<?xml version="1.0" encoding="UTF-8" standalone="no"?><!DOCTYPE svg PUBLIC "-//W3C//DTD SVG 1.1//EN" "http://www.w3.org/Graphics/SVG/1.1/DTD/svg11.dtd"><svg width="100%" height="100%" viewBox="0 0 123 123" version="1.1" xmlns="http://www.w3.org/2000/svg" xmlns:xlink="http://www.w3.org/1999/xlink" xml:space="preserve" xmlns:serif="http://www.serif.com/" style="fill-rule:evenodd;clip-rule:evenodd;stroke-linecap:round;stroke-linejoin:round;stroke-miterlimit:1.5;"><path d="M61.05,2.146c32.511,0 58.905,26.394 58.905,58.904c0,32.511 -26.394,58.905 -58.905,58.905c-32.51,0 -58.904,-26.394 -58.904,-58.905c0,-32.51 26.394,-58.904 58.904,-58.904Zm0,33.456c14.046,0 25.449,11.403 25.449,25.448c0,14.046 -11.403,25.449 -25.449,25.449c-14.045,0 -25.448,-11.403 -25.448,-25.449c0,-14.045 11.403,-25.448 25.448,-25.448Z" style="fill:#ebebeb;"/><clipPath id="_clip1"><path d="M61.05,2.146c32.511,0 58.905,26.394 58.905,58.904c0,32.511 -26.394,58.905 -58.905,58.905c-32.51,0 -58.904,-26.394 -58.904,-58.905c0,-32.51 26.394,-58.904 58.904,-58.904Zm0,33.456c14.046,0 25.449,11.403 25.449,25.448c0,14.046 -11.403,25.449 -25.449,25.449c-14.045,0 -25.448,-11.403 -25.448,-25.449c0,-14.045 11.403,-25.448 25.448,-25.448Z"/></clipPath><g clip-path="url(#_clip1)"><ellipse cx="61.69" cy="80.685" rx="101.886" ry="47.253" style="fill:url(#_Linear2);"/><path d="M38.397,102.035l49.937,0c5.434,7.24 8.162,20.12 6.321,25.903l-63.843,0c-0.843,-4.833 1.686,-13.467 7.585,-25.903Z" style="fill:#9e7c58;stroke:#000;stroke-width:2.71px;"/><path d="M-14.416,30.145c39.052,60.91 110.815,57.705 170.652,-6.169c0,0 -98.159,-110.923 -170.652,6.169Z" style="fill:url(#_Linear3);"/><clipPath id="_clip4"><path d="M-14.416,30.145c39.052,60.91 110.815,57.705 170.652,-6.169c0,0 -98.159,-110.923 -170.652,6.169Z"/></clipPath><g clip-path="url(#_clip4)"><path d="M-69.145,-16.263c39.052,60.909 110.814,57.704 170.651,-6.169c0,0 -98.158,-110.924 -170.651,6.169Z" style="fill:#d67a52;"/></g><path d="M32.708,43.88l0,-67.425" style="fill:none;stroke:#000;stroke-width:3.06px;"/><path d="M89.598,43.88l0,-67.425" style="fill:none;stroke:#000;stroke-width:3.06px;"/></g><path d="M60.673,2.676l-0.35,0.008l-0.027,0.001l-0.376,0.01l-0.375,0.014l-0.375,0.015l-0.374,0.018l-0.373,0.02l-0.373,0.022l-0.372,0.025l-0.372,0.027l-0.371,0.03l-0.37,0.032l-0.369,0.034l-0.369,0.036l-0.368,0.039l-0.367,0.04l-0.366,0.044l-0.366,0.045l-0.365,0.048l-0.364,0.05l-0.364,0.052l-0.363,0.054l-0.361,0.057l-0.362,0.058l-0.36,0.061l-0.36,0.064l-0.358,0.065l-0.358,0.068l-0.358,0.069l-0.356,0.072l-0.355,0.074l-0.355,0.077l-0.354,0.078l-0.353,0.08l-0.352,0.083l-0.352,0.085l-0.35,0.087l-0.349,0.089l-0.349,0.091l-0.348,0.093l-0.347,0.095l-0.346,0.097l-0.345,0.1l-0.344,0.101l-0.024,0.007l-0.319,0.096l-0.343,0.105l-0.341,0.107l-0.341,0.109l-0.34,0.112l-0.338,0.113l-0.338,0.115l-0.337,0.117l-0.336,0.119l-0.335,0.121l-0.333,0.123l-0.333,0.126l-0.332,0.127l-0.331,0.129l-0.33,0.131l-0.329,0.133l-0.328,0.134l-0.326,0.137l-0.326,0.139l-0.325,0.14l-0.323,0.143l-0.323,0.144l-0.321,0.147l-0.321,0.148l-0.319,0.15l-0.318,0.152l-0.318,0.154l-0.316,0.155l-0.315,0.158l-0.313,0.159l-0.313,0.161l-0.312,0.163l-0.31,0.165l-0.31,0.167l-0.308,0.168l-0.307,0.17l-0.306,0.172l-0.304,0.174l-0.304,0.175l-0.302,0.178l-0.301,0.179l-0.3,0.18l-0.299,0.183l-0.297,0.184l-0.297,0.186l-0.295,0.188l-0.293,0.189l-0.293,0.191l-0.291,0.193l-0.29,0.195l-0.289,0.196l-0.288,0.198l-0.286,0.199l-0.285,0.202l-0.284,0.202l-0.282,0.205l-0.281,0.206l-0.28,0.208l-0.279,0.209l-0.277,0.211l-0.276,0.213l-0.274,0.214l-0.273,0.216l-0.272,0.217l-0.271,0.219l-0.269,0.22l-0.267,0.223l-0.267,0.223l-0.265,0.225l-0.263,0.227l-0.262,0.228l-0.261,0.23l-0.26,0.231l-0.258,0.233l-0.256,0.235l-0.255,0.235l-0.254,0.238l-0.252,0.238l-0.251,0.241l-0.249,0.241l-0.248,0.243l-0.246,0.245l-0.245,0.246l-0.243,0.248l-0.242,0.249l-0.241,0.25l-0.238,0.252l-0.238,0.253l-0.236,0.254l-0.234,0.256l-0.233,0.258l-0.231,0.258l-0.23,0.26l-0.228,0.262l-0.226,0.263l-0.225,0.264l-0.224,0.265l-0.221,0.267l-0.221,0.268l-0.218,0.27l-0.217,0.271l-0.216,0.272l-0.213,0.273l-0.213,0.275l-0.21,0.276l-0.209,0.277l-0.207,0.278l-0.206,0.28l-0.204,0.281l-0.202,0.282l-0.201,0.283l-0.199,0.285l-0.197,0.286l-0.195,0.287l-0.037,0.055l-0.158,0.233l-0.192,0.289l-0.191,0.291l-0.189,0.291l-0.188,0.293l-0.186,0.294l-0.184,0.295l-0.182,0.296l-0.18,0.298l-0.179,0.298l-0.177,0.3l-0.175,0.301l-0.174,0.302l-0.171,0.303l-0.17,0.304l-0.168,0.305l-0.166,0.307l-0.165,0.307l-0.163,0.308l-0.16,0.31l-0.159,0.311l-0.157,0.311l-0.156,0.313l-0.153,0.314l-0.152,0.315l-0.149,0.316l-0.148,0.317l-0.146,0.317l-0.144,0.319l-0.142,0.32l-0.141,0.321l-0.138,0.322l-0.136,0.323l-0.135,0.324l-0.132,0.324l-0.131,0.326l-0.129,0.327l-0.127,0.327l-0.124,0.329l-0.123,0.329l-0.121,0.331l-0.119,0.331l-0.117,0.332l-0.115,0.334l-0.113,0.334l-0.111,0.334l-0.109,0.336l-0.107,0.337l-0.104,0.337l-0.103,0.339l-0.101,0.339l-0.099,0.34l-0.097,0.341l-0.094,0.341l-0.093,0.343l-0.09,0.343l-0.089,0.344l-0.086,0.345l-0.085,0.346l-0.082,0.346l-0.08,0.348l-0.078,0.348l-0.076,0.348l-0.074,0.35l-0.071,0.35l-0.07,0.351l-0.067,0.352l-0.065,0.353l-0.063,0.353l-0.061,0.354l-0.051,0.306l-0.008,0.048l-0.057,0.355l-0.055,0.356l-0.053,0.357l-0.05,0.357l-0.049,0.358l-0.046,0.359l-0.044,0.359l-0.041,0.36l-0.04,0.361l-0.037,0.361l-0.035,0.362l-0.033,0.363l-0.03,0.363l-0.028,0.364l-0.026,0.364l-0.024,0.365l-0.021,0.365l-0.02,0.367l-0.016,0.366l-0.015,0.368l-0.012,0.368l-0.01,0.368l-0.007,0.369l-0.006,0.37l-0.003,0.37l0,0.37l0.002,0.371l0.004,0.372l0.007,0.37l0.008,0.37l0.012,0.369l0.013,0.369l0.016,0.368l0.018,0.367l0.02,0.367l0.023,0.366l0.025,0.366l0.028,0.365l0.029,0.364l0.032,0.363l0.034,0.363l0.036,0.362l0.039,0.361l0.041,0.361l0.043,0.36l0.045,0.359l0.047,0.359l0.05,0.357l0.052,0.358l0.054,0.356l0.056,0.355l0.058,0.355l0.061,0.354l0.063,0.354l0.065,0.352l0.067,0.352l0.069,0.351l0.071,0.35l0.073,0.349l0.076,0.349l0.077,0.347l0.08,0.347l0.082,0.346l0.084,0.346l0.086,0.344l0.088,0.344l0.09,0.342l0.092,0.342l0.094,0.341l0.096,0.34l0.099,0.339l0.07,0.236l0.03,0.103l0.101,0.337l0.104,0.337l0.105,0.336l0.108,0.335l0.11,0.334l0.111,0.333l0.114,0.332l0.115,0.331l0.118,0.331l0.119,0.329l0.121,0.329l0.124,0.327l0.125,0.327l0.127,0.325l0.129,0.325l0.131,0.323l0.133,0.323l0.135,0.321l0.137,0.321l0.138,0.319l0.141,0.319l0.142,0.317l0.144,0.317l0.146,0.315l0.148,0.315l0.15,0.313l0.152,0.312l0.153,0.311l0.155,0.31l0.158,0.309l0.158,0.308l0.161,0.307l0.163,0.306l0.164,0.304l0.166,0.304l0.168,0.302l0.169,0.301l0.172,0.3l0.173,0.299l0.175,0.298l0.176,0.297l0.178,0.295l0.181,0.295l0.181,0.293l0.184,0.292l0.185,0.29l0.187,0.29l0.188,0.288l0.19,0.287l0.192,0.286l0.194,0.285l0.195,0.283l0.197,0.282l0.198,0.281l0.2,0.28l0.202,0.278l0.204,0.277l0.205,0.276l0.206,0.275l0.208,0.273l0.21,0.272l0.212,0.271l0.213,0.269l0.214,0.268l0.216,0.267l0.218,0.265l0.219,0.264l0.221,0.263l0.222,0.261l0.224,0.26l0.225,0.259l0.227,0.257l0.228,0.256l0.197,0.217l0.033,0.037l0.231,0.254l0.232,0.252l0.234,0.251l0.235,0.249l0.236,0.248l0.238,0.247l0.24,0.245l0.241,0.243l0.242,0.243l0.244,0.24l0.246,0.24l0.246,0.237l0.248,0.237l0.25,0.235l0.251,0.233l0.252,0.232l0.254,0.23l0.255,0.229l0.256,0.228l0.258,0.226l0.259,0.224l0.261,0.223l0.262,0.221l0.263,0.22l0.264,0.218l0.266,0.216l0.267,0.215l0.269,0.214l0.27,0.212l0.271,0.21l0.272,0.208l0.274,0.207l0.274,0.206l0.276,0.204l0.278,0.202l0.158,0.113l0.12,0.088l0.28,0.199l0.28,0.198l0.282,0.196l0.283,0.195l0.285,0.193l0.285,0.191l0.287,0.189l0.288,0.188l0.289,0.186l0.29,0.185l0.292,0.182l0.293,0.181l0.293,0.18l0.295,0.177l0.296,0.176l0.298,0.174l0.298,0.173l0.3,0.17l0.3,0.169l0.302,0.167l0.303,0.165l0.304,0.164l0.305,0.162l0.306,0.16l0.307,0.158l0.308,0.156l0.31,0.155l0.31,0.152l0.312,0.151l0.312,0.149l0.314,0.147l0.314,0.146l0.316,0.143l0.06,0.027l0.256,0.115l0.317,0.14l0.319,0.139l0.319,0.137l0.32,0.134l0.321,0.133l0.323,0.131l0.323,0.129l0.324,0.127l0.325,0.125l0.326,0.124l0.327,0.121l0.328,0.119l0.329,0.118l0.33,0.115l0.331,0.114l0.331,0.111l0.333,0.11l0.333,0.107l0.335,0.106l0.335,0.103l0.336,0.102l0.337,0.099l0.338,0.098l0.338,0.095l0.34,0.094l0.34,0.091l0.341,0.089l0.343,0.088l0.342,0.085l0.344,0.083l0.345,0.081l0.345,0.079l0.114,0.025l0.232,0.052l0.347,0.075l0.347,0.074l0.348,0.071l0.35,0.069l0.349,0.066l0.351,0.065l0.351,0.063l0.353,0.06l0.352,0.058l0.354,0.056l0.354,0.054l0.355,0.052l0.356,0.05l0.357,0.047l0.357,0.045l0.358,0.043l0.358,0.041l0.359,0.038l0.36,0.037l0.361,0.034l0.361,0.031l0.362,0.03l0.363,0.027l0.363,0.025l0.364,0.023l0.364,0.021l0.365,0.018l0.366,0.016l0.366,0.013l0.367,0.012l0.367,0.009l0.369,0.006l0.368,0.005l0.176,0.001l0.193,0.001l0.37,0l0.368,-0.002l0.369,-0.004l0.367,-0.007l0.367,-0.009l0.367,-0.011l0.366,-0.014l0.365,-0.015l0.365,-0.019l0.364,-0.02l0.363,-0.023l0.363,-0.025l0.362,-0.027l0.362,-0.03l0.361,-0.032l0.36,-0.034l0.36,-0.036l0.359,-0.038l0.359,-0.041l0.357,-0.043l0.357,-0.045l0.357,-0.047l0.355,-0.05l0.355,-0.052l0.355,-0.054l0.353,-0.056l0.353,-0.058l0.352,-0.06l0.352,-0.063l0.351,-0.064l0.349,-0.067l0.35,-0.069l0.348,-0.071l0.348,-0.073l0.347,-0.076l0.346,-0.077l0.345,-0.08l0.345,-0.081l0.344,-0.084l0.343,-0.086l0.342,-0.087l0.341,-0.09l0.341,-0.092l0.339,-0.094l0.339,-0.096l0.338,-0.098l0.338,-0.1l0.336,-0.102l0.335,-0.104l0.335,-0.107l0.334,-0.108l0.332,-0.11l0.332,-0.112l0.331,-0.114l0.331,-0.116l0.329,-0.118l0.328,-0.12l0.327,-0.122l0.327,-0.124l0.325,-0.125l0.325,-0.128l0.324,-0.13l0.322,-0.131l0.322,-0.134l0.32,-0.135l0.32,-0.137l0.319,-0.14l0.318,-0.141l0.316,-0.143l0.316,-0.144l0.315,-0.147l0.313,-0.149l0.313,-0.15l0.188,-0.092l0.124,-0.06l0.31,-0.153l0.31,-0.156l0.309,-0.157l0.307,-0.159l0.307,-0.161l0.305,-0.162l0.305,-0.165l0.303,-0.166l0.302,-0.168l0.301,-0.17l0.3,-0.171l0.299,-0.173l0.298,-0.176l0.297,-0.176l0.295,-0.179l0.294,-0.18l0.294,-0.182l0.292,-0.184l0.29,-0.185l0.29,-0.187l0.288,-0.189l0.288,-0.191l0.286,-0.192l0.285,-0.194l0.283,-0.196l0.283,-0.197l0.281,-0.199l0.28,-0.2l0.279,-0.202l0.277,-0.204l0.276,-0.206l0.275,-0.207l0.274,-0.209l0.272,-0.21l0.271,-0.212l0.27,-0.213l0.269,-0.215l0.267,-0.217l0.266,-0.218l0.264,-0.22l0.263,-0.222l0.262,-0.223l0.261,-0.224l0.259,-0.226l0.258,-0.228l0.256,-0.229l0.255,-0.231l0.254,-0.232l0.253,-0.233l0.25,-0.235l0.25,-0.237l0.248,-0.238l0.247,-0.24l0.245,-0.241l0.244,-0.242l0.242,-0.244l0.241,-0.246l0.24,-0.247l0.238,-0.248l0.236,-0.25l0.236,-0.251l0.233,-0.253l0.232,-0.254l0.231,-0.255l0.229,-0.257l0.228,-0.258l0.226,-0.26l0.224,-0.261l0.223,-0.262l0.222,-0.264l0.22,-0.265l0.218,-0.266l0.217,-0.268l0.215,-0.269l0.214,-0.27l0.212,-0.272l0.211,-0.273l0.208,-0.274l0.208,-0.276l0.205,-0.277l0.084,-0.114l0.121,-0.164l0.202,-0.279l0.202,-0.28l0.199,-0.282l0.198,-0.283l0.196,-0.284l0.195,-0.286l0.193,-0.287l0.191,-0.288l0.189,-0.289l0.188,-0.29l0.186,-0.292l0.185,-0.293l0.182,-0.294l0.181,-0.295l0.18,-0.296l0.177,-0.298l0.176,-0.299l0.174,-0.299l0.172,-0.301l0.171,-0.303l0.169,-0.303l0.167,-0.305l0.165,-0.305l0.163,-0.307l0.162,-0.308l0.16,-0.309l0.158,-0.31l0.156,-0.311l0.154,-0.312l0.153,-0.313l0.15,-0.315l0.149,-0.315l0.147,-0.317l0.145,-0.317l0.144,-0.319l0.141,-0.319l0.139,-0.321l0.138,-0.322l0.136,-0.322l0.133,-0.324l0.132,-0.325l0.13,-0.325l0.128,-0.327l0.126,-0.328l0.124,-0.328l0.123,-0.33l0.12,-0.331l0.118,-0.331l0.116,-0.333l0.115,-0.333l0.112,-0.334l0.11,-0.336l0.109,-0.336l0.106,-0.337l0.104,-0.338l0.103,-0.339l0.1,-0.34l0.098,-0.34l0.096,-0.342l0.094,-0.342l0.093,-0.344l0.09,-0.344l0.087,-0.345l0.086,-0.346l0.084,-0.347l0.082,-0.347l0.079,-0.348l0.078,-0.35l0.075,-0.35l0.073,-0.35l0.071,-0.352l0.069,-0.352l0.067,-0.354l0.065,-0.354l0.062,-0.354l0.061,-0.356l0.058,-0.356l0.056,-0.357l0.053,-0.358l0.052,-0.358l0.005,-0.034l0.045,-0.326l0.047,-0.359l0.046,-0.361l0.043,-0.361l0.041,-0.362l0.038,-0.363l0.037,-0.364l0.034,-0.364l0.032,-0.365l0.029,-0.365l0.028,-0.366l0.025,-0.367l0.023,-0.368l0.02,-0.368l0.018,-0.369l0.016,-0.369l0.014,-0.37l0.011,-0.371l0.009,-0.371l0.006,-0.372l0.004,-0.373l0.002,-0.372l0,-0.372l-0.003,-0.372l-0.006,-0.371l-0.007,-0.37l-0.01,-0.37l-0.012,-0.369l-0.015,-0.369l-0.017,-0.368l-0.019,-0.367l-0.022,-0.367l-0.023,-0.367l-0.027,-0.365l-0.028,-0.366l-0.031,-0.364l-0.032,-0.364l-0.036,-0.363l-0.037,-0.363l-0.04,-0.362l-0.042,-0.361l-0.044,-0.361l-0.046,-0.36l-0.049,-0.359l-0.05,-0.359l-0.053,-0.358l-0.056,-0.357l-0.057,-0.357l-0.06,-0.356l-0.061,-0.355l-0.064,-0.354l-0.066,-0.354l-0.069,-0.353l-0.07,-0.352l-0.072,-0.352l-0.075,-0.35l-0.077,-0.35l-0.079,-0.349l-0.081,-0.349l-0.083,-0.347l-0.085,-0.347l-0.087,-0.346l-0.09,-0.345l-0.091,-0.345l-0.094,-0.343l-0.096,-0.343l-0.097,-0.342l-0.1,-0.341l-0.102,-0.34l-0.104,-0.34l-0.106,-0.338l-0.107,-0.338l-0.11,-0.337l-0.112,-0.336l-0.114,-0.334l-0.116,-0.335l-0.118,-0.333l-0.12,-0.332l-0.122,-0.331l-0.124,-0.331l-0.126,-0.329l-0.127,-0.329l-0.13,-0.327l-0.132,-0.327l-0.133,-0.325l-0.136,-0.325l-0.137,-0.324l-0.14,-0.323l-0.141,-0.321l-0.143,-0.321l-0.145,-0.32l-0.147,-0.318l-0.149,-0.318l-0.151,-0.317l-0.153,-0.315l-0.154,-0.315l-0.156,-0.313l-0.159,-0.313l-0.16,-0.311l-0.161,-0.31l-0.164,-0.31l-0.166,-0.308l-0.167,-0.307l-0.169,-0.306l-0.171,-0.305l-0.173,-0.303l-0.174,-0.303l-0.177,-0.301l-0.178,-0.301l-0.179,-0.299l-0.182,-0.298l-0.183,-0.297l-0.185,-0.295l-0.187,-0.295l-0.189,-0.293l-0.19,-0.292l-0.192,-0.291l-0.194,-0.29l-0.195,-0.288l-0.197,-0.288l-0.199,-0.286l-0.201,-0.284l-0.202,-0.284l-0.204,-0.282l-0.205,-0.281l-0.207,-0.28l-0.209,-0.279l-0.211,-0.277l-0.212,-0.276l-0.213,-0.275l-0.216,-0.273l-0.217,-0.272l-0.218,-0.271l-0.22,-0.269l-0.222,-0.268l-0.223,-0.267l-0.225,-0.265l-0.227,-0.264l-0.228,-0.263l-0.229,-0.261l-0.231,-0.26l-0.233,-0.259l-0.234,-0.257l-0.236,-0.256l-0.237,-0.254l-0.239,-0.253l-0.24,-0.252l-0.242,-0.25l-0.244,-0.248l-0.244,-0.248l-0.247,-0.245l-0.247,-0.245l-0.156,-0.152l-0.093,-0.091l-0.251,-0.241l-0.252,-0.241l-0.253,-0.238l-0.255,-0.237l-0.256,-0.236l-0.258,-0.234l-0.259,-0.233l-0.261,-0.231l-0.261,-0.23l-0.264,-0.228l-0.264,-0.226l-0.267,-0.225l-0.267,-0.224l-0.269,-0.221l-0.27,-0.221l-0.272,-0.218l-0.273,-0.218l-0.274,-0.215l-0.275,-0.214l-0.277,-0.212l-0.279,-0.211l-0.279,-0.209l-0.281,-0.208l-0.282,-0.205l-0.284,-0.204l-0.284,-0.203l-0.287,-0.201l-0.287,-0.199l-0.288,-0.198l-0.29,-0.195l-0.291,-0.194l-0.293,-0.193l-0.293,-0.191l-0.295,-0.189l-0.296,-0.187l-0.297,-0.185l-0.299,-0.184l-0.3,-0.182l-0.301,-0.181l-0.302,-0.178l-0.303,-0.177l-0.304,-0.175l-0.306,-0.173l-0.307,-0.172l-0.308,-0.17l-0.309,-0.167l-0.31,-0.167l-0.311,-0.164l-0.313,-0.162l-0.313,-0.161l-0.315,-0.159l-0.316,-0.157l-0.317,-0.155l-0.318,-0.153l-0.319,-0.151l-0.32,-0.15l-0.321,-0.147l-0.323,-0.146l-0.323,-0.144l-0.325,-0.142l-0.325,-0.14l-0.327,-0.138l-0.327,-0.136l-0.329,-0.134l-0.329,-0.132l-0.331,-0.131l-0.331,-0.128l-0.333,-0.126l-0.334,-0.125l-0.334,-0.122l-0.336,-0.121l-0.336,-0.118l-0.338,-0.117l-0.338,-0.114l-0.34,-0.112l-0.34,-0.111l-0.341,-0.108l-0.342,-0.107l-0.344,-0.104l-0.344,-0.102l-0.344,-0.1l-0.346,-0.098l-0.347,-0.096l-0.348,-0.094l-0.348,-0.092l-0.349,-0.09l-0.351,-0.088l-0.351,-0.085l-0.352,-0.084l-0.352,-0.081l-0.354,-0.079l-0.354,-0.077l-0.356,-0.075l-0.356,-0.073l-0.357,-0.07l-0.357,-0.069l-0.359,-0.066l-0.359,-0.064l-0.36,-0.062l-0.361,-0.059l-0.362,-0.058l-0.362,-0.055l-0.363,-0.053l-0.364,-0.051l-0.365,-0.048l-0.365,-0.046l-0.366,-0.044l-0.367,-0.042l-0.367,-0.04l-0.368,-0.037l-0.369,-0.035l-0.37,-0.032l-0.37,-0.031l-0.371,-0.028l-0.372,-0.025l-0.372,-0.024l-0.373,-0.021l-0.374,-0.018l-0.374,-0.017l-0.375,-0.014l-0.375,-0.011l-0.13,-0.004l-0.246,-0.006l-0.377,-0.007l-0.377,-0.004l-0.378,0.006Zm0.216,33.455l-0.149,0.006l-0.011,0.001l-0.161,0.007l-0.16,0.008l-0.16,0.01l-0.16,0.01l-0.159,0.011l-0.159,0.013l-0.158,0.013l-0.159,0.014l-0.158,0.016l-0.157,0.016l-0.157,0.017l-0.157,0.018l-0.157,0.019l-0.156,0.02l-0.156,0.022l-0.156,0.022l-0.155,0.022l-0.155,0.024l-0.154,0.025l-0.154,0.026l-0.154,0.027l-0.154,0.028l-0.153,0.028l-0.152,0.03l-0.152,0.03l-0.152,0.032l-0.152,0.032l-0.151,0.033l-0.151,0.034l-0.15,0.035l-0.15,0.036l-0.15,0.037l-0.149,0.038l-0.149,0.038l-0.148,0.04l-0.148,0.04l-0.148,0.041l-0.147,0.043l-0.147,0.043l-0.146,0.043l-0.146,0.045l-0.146,0.046l-0.01,0.003l-0.135,0.043l-0.145,0.047l-0.144,0.047l-0.144,0.049l-0.143,0.049l-0.144,0.051l-0.142,0.051l-0.143,0.052l-0.141,0.053l-0.142,0.053l-0.141,0.055l-0.14,0.055l-0.14,0.056l-0.14,0.057l-0.139,0.058l-0.138,0.058l-0.139,0.06l-0.137,0.06l-0.138,0.061l-0.136,0.061l-0.137,0.063l-0.136,0.063l-0.135,0.064l-0.135,0.065l-0.134,0.066l-0.134,0.067l-0.134,0.067l-0.133,0.068l-0.132,0.069l-0.132,0.069l-0.131,0.071l-0.131,0.071l-0.131,0.071l-0.13,0.073l-0.129,0.073l-0.129,0.074l-0.129,0.075l-0.127,0.076l-0.128,0.076l-0.127,0.077l-0.126,0.078l-0.126,0.079l-0.125,0.079l-0.125,0.08l-0.124,0.08l-0.123,0.082l-0.124,0.082l-0.122,0.083l-0.122,0.083l-0.122,0.084l-0.12,0.085l-0.121,0.086l-0.12,0.086l-0.119,0.087l-0.118,0.088l-0.118,0.088l-0.118,0.089l-0.117,0.089l-0.116,0.091l-0.116,0.091l-0.115,0.091l-0.115,0.093l-0.114,0.093l-0.113,0.093l-0.113,0.095l-0.112,0.095l-0.112,0.095l-0.111,0.096l-0.11,0.097l-0.11,0.098l-0.109,0.098l-0.109,0.098l-0.108,0.1l-0.107,0.1l-0.107,0.1l-0.106,0.102l-0.106,0.101l-0.104,0.103l-0.105,0.103l-0.103,0.103l-0.103,0.105l-0.102,0.104l-0.102,0.106l-0.101,0.106l-0.101,0.106l-0.099,0.108l-0.099,0.107l-0.099,0.109l-0.097,0.108l-0.097,0.11l-0.097,0.11l-0.096,0.11l-0.095,0.112l-0.094,0.111l-0.094,0.112l-0.093,0.113l-0.092,0.113l-0.092,0.114l-0.091,0.115l-0.09,0.115l-0.09,0.115l-0.089,0.116l-0.088,0.117l-0.087,0.117l-0.087,0.117l-0.086,0.118l-0.086,0.119l-0.084,0.119l-0.084,0.119l-0.083,0.12l-0.083,0.121l-0.082,0.121l-0.081,0.121l-0.08,0.123l-0.015,0.023l-0.065,0.099l-0.079,0.122l-0.079,0.124l-0.078,0.123l-0.077,0.124l-0.076,0.125l-0.076,0.125l-0.075,0.125l-0.074,0.126l-0.074,0.127l-0.072,0.127l-0.072,0.127l-0.071,0.128l-0.071,0.128l-0.069,0.129l-0.069,0.129l-0.068,0.13l-0.068,0.13l-0.066,0.13l-0.066,0.131l-0.065,0.131l-0.064,0.132l-0.063,0.132l-0.063,0.132l-0.062,0.133l-0.061,0.134l-0.06,0.134l-0.059,0.134l-0.059,0.134l-0.058,0.135l-0.057,0.136l-0.056,0.135l-0.055,0.136l-0.055,0.137l-0.054,0.137l-0.053,0.137l-0.052,0.138l-0.051,0.138l-0.05,0.138l-0.05,0.139l-0.049,0.139l-0.048,0.139l-0.047,0.14l-0.046,0.14l-0.045,0.141l-0.045,0.141l-0.044,0.141l-0.043,0.142l-0.042,0.142l-0.041,0.142l-0.04,0.142l-0.039,0.143l-0.039,0.143l-0.038,0.144l-0.036,0.144l-0.036,0.144l-0.035,0.144l-0.035,0.145l-0.033,0.145l-0.032,0.146l-0.032,0.145l-0.03,0.146l-0.03,0.147l-0.029,0.146l-0.028,0.147l-0.027,0.147l-0.026,0.148l-0.025,0.147l-0.025,0.148l-0.023,0.149l-0.02,0.128l-0.003,0.02l-0.022,0.149l-0.021,0.149l-0.021,0.149l-0.019,0.15l-0.019,0.149l-0.017,0.151l-0.017,0.15l-0.016,0.15l-0.014,0.151l-0.014,0.151l-0.013,0.152l-0.012,0.151l-0.011,0.152l-0.01,0.152l-0.009,0.152l-0.008,0.153l-0.008,0.153l-0.006,0.153l-0.005,0.153l-0.004,0.153l-0.004,0.154l-0.002,0.154l-0.002,0.154l0,0.154l0.001,0.155l0.001,0.155l0.003,0.154l0.003,0.155l0.005,0.155l0.005,0.154l0.006,0.154l0.008,0.154l0.008,0.154l0.009,0.153l0.011,0.153l0.011,0.152l0.012,0.152l0.013,0.152l0.014,0.152l0.015,0.151l0.016,0.152l0.017,0.15l0.018,0.151l0.019,0.15l0.019,0.15l0.021,0.149l0.021,0.149l0.023,0.149l0.023,0.148l0.024,0.148l0.025,0.148l0.026,0.148l0.027,0.147l0.028,0.147l0.028,0.146l0.03,0.146l0.03,0.146l0.032,0.145l0.032,0.145l0.033,0.145l0.034,0.144l0.035,0.144l0.035,0.144l0.037,0.143l0.037,0.143l0.039,0.142l0.039,0.142l0.04,0.142l0.04,0.141l0.042,0.141l0.042,0.141l0.031,0.097l0.013,0.043l0.043,0.14l0.044,0.14l0.045,0.139l0.046,0.139l0.047,0.138l0.047,0.138l0.048,0.138l0.05,0.137l0.049,0.137l0.051,0.136l0.052,0.136l0.052,0.136l0.053,0.135l0.054,0.135l0.055,0.134l0.055,0.134l0.057,0.134l0.057,0.133l0.058,0.133l0.058,0.132l0.06,0.132l0.06,0.131l0.061,0.131l0.062,0.13l0.062,0.13l0.063,0.13l0.064,0.129l0.065,0.129l0.066,0.128l0.066,0.128l0.067,0.127l0.068,0.127l0.068,0.126l0.069,0.126l0.07,0.125l0.071,0.125l0.071,0.125l0.073,0.124l0.072,0.123l0.074,0.123l0.074,0.122l0.075,0.122l0.076,0.122l0.076,0.121l0.077,0.12l0.078,0.12l0.079,0.12l0.079,0.119l0.08,0.118l0.08,0.118l0.082,0.118l0.082,0.117l0.082,0.116l0.083,0.116l0.084,0.115l0.085,0.115l0.085,0.114l0.086,0.114l0.087,0.113l0.087,0.112l0.088,0.113l0.089,0.111l0.089,0.111l0.09,0.11l0.09,0.11l0.091,0.109l0.092,0.109l0.092,0.108l0.093,0.108l0.094,0.107l0.094,0.106l0.095,0.106l0.096,0.105l0.082,0.09l0.014,0.015l0.096,0.105l0.097,0.104l0.097,0.103l0.098,0.103l0.098,0.102l0.1,0.102l0.099,0.101l0.101,0.1l0.101,0.1l0.101,0.1l0.102,0.098l0.103,0.098l0.103,0.098l0.104,0.097l0.104,0.096l0.105,0.095l0.106,0.095l0.106,0.094l0.107,0.094l0.107,0.093l0.108,0.093l0.108,0.091l0.109,0.091l0.109,0.091l0.11,0.09l0.111,0.089l0.111,0.088l0.111,0.088l0.113,0.087l0.112,0.087l0.113,0.086l0.114,0.085l0.114,0.084l0.115,0.084l0.115,0.083l0.066,0.047l0.05,0.036l0.115,0.082l0.117,0.082l0.117,0.081l0.117,0.08l0.118,0.08l0.118,0.079l0.119,0.078l0.119,0.077l0.12,0.077l0.12,0.076l0.121,0.076l0.121,0.074l0.122,0.074l0.122,0.074l0.123,0.072l0.123,0.072l0.124,0.071l0.124,0.07l0.124,0.07l0.125,0.069l0.125,0.068l0.126,0.068l0.127,0.066l0.126,0.066l0.128,0.065l0.127,0.065l0.128,0.063l0.129,0.063l0.129,0.062l0.129,0.062l0.13,0.06l0.13,0.06l0.131,0.059l0.025,0.012l0.105,0.047l0.132,0.059l0.131,0.057l0.132,0.057l0.132,0.056l0.133,0.055l0.133,0.054l0.134,0.053l0.134,0.053l0.135,0.052l0.134,0.051l0.135,0.051l0.136,0.049l0.136,0.049l0.136,0.048l0.137,0.047l0.137,0.046l0.138,0.046l0.138,0.044l0.138,0.044l0.138,0.043l0.139,0.042l0.14,0.041l0.139,0.041l0.14,0.04l0.141,0.038l0.14,0.038l0.141,0.038l0.142,0.036l0.142,0.035l0.142,0.035l0.142,0.033l0.143,0.033l0.047,0.011l0.096,0.022l0.143,0.031l0.144,0.031l0.144,0.03l0.144,0.029l0.145,0.028l0.145,0.027l0.145,0.027l0.146,0.025l0.146,0.025l0.146,0.023l0.147,0.023l0.147,0.022l0.147,0.021l0.147,0.02l0.148,0.019l0.148,0.018l0.148,0.018l0.149,0.016l0.149,0.016l0.149,0.014l0.15,0.014l0.15,0.013l0.15,0.012l0.15,0.01l0.151,0.01l0.151,0.009l0.151,0.008l0.151,0.008l0.152,0.006l0.152,0.005l0.152,0.004l0.153,0.003l0.152,0.003l0.073,0l0.08,0.001l0.154,0.001l0.152,0l0.153,-0.001l0.152,-0.001l0.152,-0.003l0.152,-0.004l0.152,-0.005l0.151,-0.006l0.152,-0.006l0.15,-0.008l0.151,-0.009l0.151,-0.009l0.15,-0.011l0.15,-0.011l0.149,-0.012l0.15,-0.014l0.149,-0.014l0.149,-0.015l0.148,-0.016l0.149,-0.017l0.148,-0.018l0.148,-0.018l0.147,-0.02l0.147,-0.021l0.147,-0.021l0.147,-0.023l0.146,-0.023l0.146,-0.024l0.146,-0.025l0.146,-0.026l0.145,-0.027l0.145,-0.028l0.144,-0.028l0.145,-0.03l0.144,-0.03l0.143,-0.032l0.144,-0.032l0.143,-0.033l0.142,-0.034l0.143,-0.034l0.142,-0.036l0.141,-0.036l0.142,-0.038l0.141,-0.038l0.141,-0.039l0.14,-0.04l0.14,-0.04l0.14,-0.042l0.139,-0.042l0.139,-0.044l0.139,-0.044l0.138,-0.044l0.138,-0.046l0.137,-0.047l0.138,-0.047l0.137,-0.048l0.136,-0.049l0.136,-0.05l0.136,-0.051l0.135,-0.051l0.135,-0.052l0.135,-0.053l0.134,-0.054l0.134,-0.055l0.133,-0.055l0.133,-0.056l0.132,-0.057l0.133,-0.058l0.131,-0.059l0.132,-0.059l0.131,-0.06l0.13,-0.061l0.13,-0.062l0.078,-0.037l0.052,-0.025l0.13,-0.063l0.129,-0.063l0.128,-0.064l0.129,-0.065l0.128,-0.066l0.127,-0.067l0.127,-0.067l0.126,-0.068l0.126,-0.069l0.126,-0.069l0.125,-0.071l0.125,-0.071l0.124,-0.071l0.124,-0.073l0.123,-0.073l0.123,-0.074l0.123,-0.075l0.122,-0.075l0.121,-0.076l0.121,-0.077l0.121,-0.077l0.12,-0.079l0.119,-0.079l0.119,-0.079l0.119,-0.081l0.118,-0.081l0.117,-0.081l0.118,-0.083l0.116,-0.083l0.116,-0.084l0.116,-0.084l0.115,-0.086l0.114,-0.086l0.114,-0.086l0.114,-0.087l0.113,-0.088l0.112,-0.089l0.112,-0.089l0.111,-0.09l0.111,-0.091l0.11,-0.091l0.11,-0.092l0.109,-0.093l0.109,-0.093l0.108,-0.094l0.107,-0.094l0.107,-0.095l0.107,-0.096l0.105,-0.097l0.106,-0.097l0.104,-0.097l0.104,-0.099l0.104,-0.099l0.103,-0.099l0.102,-0.1l0.102,-0.101l0.101,-0.102l0.101,-0.102l0.1,-0.102l0.099,-0.103l0.099,-0.104l0.098,-0.105l0.097,-0.105l0.097,-0.105l0.097,-0.107l0.095,-0.106l0.095,-0.108l0.095,-0.108l0.094,-0.108l0.093,-0.11l0.092,-0.109l0.092,-0.11l0.091,-0.111l0.091,-0.112l0.09,-0.112l0.089,-0.112l0.089,-0.113l0.088,-0.114l0.087,-0.114l0.087,-0.115l0.035,-0.047l0.051,-0.068l0.086,-0.116l0.085,-0.116l0.084,-0.116l0.083,-0.118l0.083,-0.117l0.083,-0.119l0.081,-0.118l0.081,-0.12l0.08,-0.12l0.08,-0.12l0.079,-0.121l0.078,-0.121l0.077,-0.122l0.077,-0.123l0.076,-0.123l0.075,-0.123l0.074,-0.124l0.074,-0.124l0.073,-0.125l0.073,-0.126l0.071,-0.126l0.071,-0.126l0.07,-0.127l0.07,-0.127l0.068,-0.128l0.068,-0.128l0.068,-0.129l0.066,-0.129l0.066,-0.13l0.065,-0.13l0.064,-0.131l0.063,-0.131l0.063,-0.132l0.062,-0.132l0.061,-0.132l0.06,-0.133l0.059,-0.133l0.059,-0.134l0.058,-0.134l0.057,-0.135l0.057,-0.135l0.055,-0.136l0.055,-0.135l0.054,-0.137l0.053,-0.137l0.053,-0.137l0.051,-0.138l0.051,-0.138l0.05,-0.138l0.049,-0.139l0.048,-0.139l0.048,-0.14l0.046,-0.14l0.046,-0.14l0.045,-0.141l0.044,-0.142l0.043,-0.141l0.043,-0.142l0.041,-0.143l0.041,-0.143l0.04,-0.143l0.039,-0.143l0.038,-0.144l0.037,-0.145l0.037,-0.144l0.035,-0.145l0.035,-0.146l0.034,-0.145l0.032,-0.147l0.032,-0.146l0.032,-0.147l0.03,-0.147l0.029,-0.148l0.029,-0.148l0.027,-0.148l0.027,-0.148l0.026,-0.149l0.024,-0.149l0.024,-0.15l0.023,-0.15l0.002,-0.014l0.021,-0.136l0.021,-0.151l0.021,-0.15l0.02,-0.152l0.019,-0.151l0.018,-0.152l0.017,-0.152l0.016,-0.152l0.015,-0.153l0.014,-0.153l0.013,-0.154l0.012,-0.153l0.011,-0.154l0.011,-0.154l0.009,-0.155l0.008,-0.155l0.008,-0.155l0.006,-0.155l0.006,-0.156l0.004,-0.156l0.004,-0.157l0.002,-0.156l0.002,-0.156l0,-0.156l0,-0.156l-0.002,-0.155l-0.002,-0.155l-0.004,-0.155l-0.004,-0.155l-0.006,-0.155l-0.006,-0.154l-0.007,-0.154l-0.009,-0.154l-0.009,-0.154l-0.01,-0.153l-0.011,-0.154l-0.012,-0.152l-0.014,-0.153l-0.014,-0.153l-0.015,-0.152l-0.015,-0.152l-0.017,-0.151l-0.018,-0.152l-0.019,-0.151l-0.02,-0.151l-0.02,-0.15l-0.022,-0.151l-0.022,-0.15l-0.023,-0.15l-0.025,-0.149l-0.025,-0.149l-0.026,-0.149l-0.027,-0.149l-0.028,-0.148l-0.029,-0.148l-0.03,-0.148l-0.03,-0.148l-0.032,-0.147l-0.032,-0.147l-0.034,-0.146l-0.034,-0.146l-0.035,-0.146l-0.036,-0.146l-0.037,-0.145l-0.038,-0.145l-0.038,-0.144l-0.04,-0.145l-0.04,-0.144l-0.041,-0.143l-0.043,-0.144l-0.043,-0.142l-0.043,-0.143l-0.045,-0.142l-0.046,-0.142l-0.046,-0.142l-0.047,-0.141l-0.048,-0.14l-0.049,-0.141l-0.05,-0.14l-0.051,-0.14l-0.051,-0.139l-0.052,-0.139l-0.054,-0.138l-0.054,-0.138l-0.054,-0.138l-0.056,-0.138l-0.056,-0.137l-0.058,-0.136l-0.058,-0.136l-0.058,-0.136l-0.06,-0.135l-0.061,-0.135l-0.061,-0.135l-0.062,-0.134l-0.063,-0.134l-0.063,-0.133l-0.065,-0.133l-0.065,-0.132l-0.066,-0.132l-0.067,-0.132l-0.068,-0.131l-0.068,-0.131l-0.069,-0.13l-0.07,-0.13l-0.071,-0.129l-0.071,-0.129l-0.072,-0.128l-0.073,-0.128l-0.074,-0.128l-0.075,-0.127l-0.075,-0.127l-0.076,-0.126l-0.077,-0.125l-0.077,-0.125l-0.078,-0.125l-0.079,-0.124l-0.08,-0.124l-0.08,-0.123l-0.082,-0.123l-0.081,-0.122l-0.083,-0.122l-0.083,-0.121l-0.085,-0.121l-0.084,-0.12l-0.086,-0.12l-0.086,-0.119l-0.087,-0.118l-0.088,-0.118l-0.088,-0.118l-0.089,-0.117l-0.09,-0.116l-0.09,-0.116l-0.091,-0.116l-0.092,-0.115l-0.092,-0.114l-0.094,-0.114l-0.094,-0.113l-0.094,-0.113l-0.095,-0.112l-0.096,-0.111l-0.097,-0.111l-0.097,-0.111l-0.098,-0.11l-0.098,-0.109l-0.099,-0.108l-0.1,-0.109l-0.101,-0.107l-0.101,-0.107l-0.102,-0.106l-0.102,-0.106l-0.103,-0.105l-0.104,-0.105l-0.065,-0.065l-0.039,-0.039l-0.105,-0.103l-0.105,-0.103l-0.106,-0.102l-0.107,-0.102l-0.107,-0.101l-0.108,-0.101l-0.109,-0.099l-0.109,-0.1l-0.11,-0.098l-0.11,-0.098l-0.111,-0.097l-0.111,-0.097l-0.113,-0.096l-0.112,-0.095l-0.114,-0.095l-0.114,-0.094l-0.114,-0.093l-0.115,-0.093l-0.116,-0.092l-0.116,-0.092l-0.117,-0.09l-0.117,-0.09l-0.118,-0.09l-0.119,-0.088l-0.119,-0.088l-0.12,-0.088l-0.12,-0.086l-0.121,-0.086l-0.121,-0.085l-0.122,-0.085l-0.123,-0.084l-0.123,-0.083l-0.123,-0.082l-0.124,-0.082l-0.125,-0.081l-0.125,-0.08l-0.126,-0.08l-0.126,-0.078l-0.127,-0.078l-0.127,-0.078l-0.128,-0.076l-0.128,-0.076l-0.129,-0.075l-0.129,-0.075l-0.13,-0.073l-0.13,-0.073l-0.131,-0.072l-0.132,-0.071l-0.131,-0.071l-0.133,-0.07l-0.133,-0.069l-0.133,-0.068l-0.134,-0.067l-0.134,-0.067l-0.135,-0.066l-0.135,-0.065l-0.136,-0.064l-0.136,-0.064l-0.137,-0.063l-0.137,-0.062l-0.137,-0.061l-0.139,-0.06l-0.138,-0.06l-0.139,-0.058l-0.139,-0.058l-0.14,-0.057l-0.141,-0.057l-0.14,-0.055l-0.142,-0.055l-0.141,-0.053l-0.142,-0.053l-0.143,-0.052l-0.143,-0.052l-0.143,-0.05l-0.144,-0.049l-0.144,-0.049l-0.145,-0.048l-0.145,-0.047l-0.145,-0.046l-0.146,-0.045l-0.146,-0.045l-0.147,-0.043l-0.147,-0.043l-0.148,-0.042l-0.147,-0.04l-0.149,-0.04l-0.148,-0.04l-0.149,-0.038l-0.15,-0.037l-0.15,-0.036l-0.15,-0.036l-0.15,-0.035l-0.151,-0.033l-0.152,-0.033l-0.151,-0.032l-0.152,-0.031l-0.153,-0.03l-0.153,-0.029l-0.153,-0.028l-0.153,-0.027l-0.154,-0.027l-0.154,-0.025l-0.155,-0.024l-0.155,-0.024l-0.155,-0.022l-0.155,-0.022l-0.156,-0.021l-0.156,-0.019l-0.157,-0.019l-0.157,-0.018l-0.157,-0.016l-0.157,-0.016l-0.158,-0.015l-0.158,-0.014l-0.159,-0.013l-0.159,-0.011l-0.159,-0.011l-0.159,-0.01l-0.16,-0.009l-0.16,-0.008l-0.16,-0.007l-0.055,-0.002l-0.106,-0.004l-0.16,-0.005l-0.161,-0.003l-0.162,0.005Zm0.497,-1.058l0.11,0l0.057,-0.001l0.168,0.001l0.167,0.001l0.166,0.003l0.167,0.003l0.166,0.005l0.166,0.006l0.166,0.006l0.166,0.008l0.165,0.009l0.165,0.01l0.165,0.011l0.165,0.012l0.164,0.012l0.164,0.014l0.164,0.015l0.164,0.016l0.163,0.017l0.163,0.018l0.163,0.019l0.163,0.02l0.162,0.022l0.162,0.022l0.162,0.023l0.161,0.024l0.161,0.025l0.161,0.026l0.161,0.027l0.16,0.028l0.16,0.029l0.159,0.03l0.16,0.031l0.159,0.031l0.158,0.033l0.158,0.034l0.158,0.035l0.158,0.036l0.157,0.036l0.157,0.038l0.157,0.039l0.156,0.039l0.156,0.041l0.156,0.041l0.155,0.043l0.155,0.043l0.155,0.044l0.154,0.046l0.153,0.046l0.154,0.047l0.153,0.048l0.153,0.049l0.152,0.049l0.152,0.051l0.151,0.052l0.151,0.052l0.151,0.054l0.15,0.054l0.15,0.055l0.15,0.057l0.149,0.057l0.148,0.058l0.149,0.058l0.147,0.06l0.148,0.061l0.147,0.061l0.146,0.062l0.146,0.064l0.146,0.064l0.145,0.065l0.145,0.066l0.144,0.066l0.144,0.068l0.144,0.068l0.143,0.069l0.142,0.07l0.142,0.071l0.142,0.072l0.141,0.073l0.14,0.073l0.14,0.074l0.14,0.075l0.139,0.076l0.139,0.077l0.138,0.078l0.138,0.078l0.137,0.079l0.137,0.08l0.136,0.081l0.135,0.082l0.136,0.082l0.134,0.083l0.134,0.085l0.134,0.084l0.133,0.086l0.132,0.086l0.132,0.088l0.132,0.088l0.131,0.088l0.13,0.09l0.13,0.09l0.129,0.091l0.129,0.092l0.128,0.093l0.128,0.093l0.127,0.094l0.126,0.095l0.126,0.096l0.125,0.096l0.125,0.097l0.124,0.098l0.124,0.099l0.123,0.099l0.122,0.1l0.122,0.101l0.121,0.101l0.121,0.103l0.12,0.103l0.119,0.103l0.119,0.105l0.118,0.105l0.117,0.106l0.117,0.106l0.044,0.04l0.072,0.068l0.116,0.108l0.115,0.109l0.114,0.109l0.113,0.11l0.113,0.111l0.112,0.112l0.112,0.112l0.111,0.113l0.11,0.114l0.11,0.114l0.108,0.115l0.109,0.116l0.107,0.116l0.107,0.117l0.106,0.118l0.106,0.118l0.105,0.119l0.104,0.12l0.103,0.12l0.103,0.121l0.102,0.121l0.101,0.123l0.101,0.122l0.1,0.124l0.099,0.124l0.099,0.124l0.097,0.126l0.097,0.126l0.097,0.126l0.095,0.127l0.095,0.128l0.094,0.128l0.094,0.129l0.092,0.13l0.092,0.13l0.091,0.131l0.091,0.131l0.089,0.132l0.089,0.132l0.088,0.133l0.087,0.134l0.087,0.134l0.086,0.135l0.085,0.135l0.084,0.136l0.083,0.137l0.083,0.137l0.082,0.137l0.081,0.139l0.08,0.138l0.079,0.14l0.079,0.139l0.078,0.141l0.077,0.141l0.076,0.141l0.075,0.142l0.075,0.142l0.073,0.143l0.073,0.144l0.072,0.144l0.071,0.144l0.071,0.146l0.069,0.145l0.069,0.146l0.068,0.147l0.066,0.147l0.067,0.147l0.065,0.148l0.064,0.149l0.063,0.149l0.063,0.15l0.062,0.15l0.061,0.15l0.059,0.151l0.059,0.152l0.059,0.152l0.057,0.152l0.056,0.153l0.056,0.153l0.054,0.154l0.054,0.154l0.052,0.155l0.052,0.155l0.051,0.155l0.05,0.156l0.049,0.157l0.048,0.157l0.047,0.157l0.046,0.158l0.046,0.158l0.044,0.158l0.043,0.159l0.043,0.16l0.041,0.16l0.041,0.16l0.039,0.16l0.039,0.161l0.037,0.162l0.037,0.162l0.036,0.162l0.034,0.162l0.034,0.163l0.033,0.164l0.031,0.164l0.031,0.164l0.03,0.164l0.028,0.165l0.028,0.165l0.027,0.166l0.025,0.166l0.025,0.166l0.023,0.167l0.023,0.167l0.022,0.167l0.02,0.168l0.02,0.168l0.018,0.168l0.017,0.169l0.017,0.169l0.015,0.169l0.014,0.169l0.014,0.17l0.012,0.171l0.011,0.17l0.01,0.171l0.009,0.171l0.008,0.172l0.006,0.171l0.006,0.173l0.005,0.172l0.003,0.172l0.003,0.173l0.001,0.173l0,0.172l-0.001,0.172l-0.002,0.172l-0.003,0.171l-0.004,0.172l-0.005,0.171l-0.006,0.171l-0.008,0.17l-0.008,0.171l-0.01,0.17l-0.01,0.17l-0.012,0.169l-0.012,0.17l-0.014,0.169l-0.015,0.169l-0.016,0.168l-0.017,0.169l-0.017,0.168l-0.018,0.152l-0.001,0.016l-0.021,0.167l-0.021,0.167l-0.023,0.167l-0.023,0.167l-0.025,0.166l-0.026,0.166l-0.026,0.165l-0.028,0.166l-0.028,0.165l-0.03,0.164l-0.031,0.165l-0.031,0.164l-0.033,0.164l-0.034,0.163l-0.034,0.163l-0.036,0.163l-0.036,0.162l-0.038,0.162l-0.039,0.162l-0.039,0.161l-0.041,0.161l-0.041,0.16l-0.043,0.16l-0.043,0.16l-0.045,0.16l-0.045,0.159l-0.046,0.158l-0.048,0.159l-0.048,0.158l-0.049,0.157l-0.05,0.157l-0.051,0.157l-0.052,0.156l-0.053,0.156l-0.054,0.155l-0.055,0.155l-0.056,0.155l-0.056,0.154l-0.058,0.154l-0.058,0.153l-0.06,0.153l-0.06,0.153l-0.061,0.152l-0.062,0.152l-0.063,0.151l-0.064,0.15l-0.065,0.151l-0.066,0.149l-0.066,0.15l-0.068,0.149l-0.068,0.148l-0.07,0.148l-0.07,0.147l-0.071,0.147l-0.071,0.147l-0.073,0.146l-0.074,0.146l-0.074,0.145l-0.076,0.144l-0.076,0.144l-0.077,0.144l-0.078,0.143l-0.078,0.142l-0.08,0.142l-0.08,0.142l-0.081,0.141l-0.082,0.14l-0.083,0.14l-0.084,0.139l-0.084,0.139l-0.086,0.139l-0.086,0.137l-0.087,0.138l-0.088,0.136l-0.088,0.136l-0.09,0.136l-0.09,0.135l-0.091,0.135l-0.091,0.133l-0.093,0.134l-0.055,0.078l-0.038,0.054l-0.095,0.132l-0.095,0.132l-0.096,0.131l-0.097,0.13l-0.098,0.129l-0.098,0.129l-0.099,0.129l-0.1,0.128l-0.1,0.127l-0.102,0.126l-0.102,0.126l-0.103,0.126l-0.103,0.124l-0.104,0.125l-0.106,0.123l-0.105,0.123l-0.107,0.122l-0.107,0.122l-0.108,0.121l-0.109,0.12l-0.109,0.12l-0.11,0.119l-0.111,0.118l-0.112,0.118l-0.112,0.117l-0.113,0.116l-0.114,0.116l-0.114,0.115l-0.115,0.114l-0.116,0.114l-0.116,0.113l-0.117,0.112l-0.118,0.112l-0.118,0.111l-0.12,0.11l-0.119,0.11l-0.121,0.109l-0.121,0.108l-0.122,0.107l-0.122,0.107l-0.123,0.106l-0.124,0.105l-0.125,0.105l-0.125,0.104l-0.125,0.103l-0.127,0.102l-0.127,0.102l-0.127,0.101l-0.128,0.1l-0.129,0.1l-0.13,0.098l-0.13,0.098l-0.131,0.097l-0.131,0.097l-0.132,0.095l-0.133,0.095l-0.133,0.094l-0.134,0.094l-0.134,0.092l-0.135,0.092l-0.136,0.091l-0.136,0.09l-0.136,0.09l-0.138,0.089l-0.138,0.087l-0.138,0.087l-0.139,0.087l-0.14,0.085l-0.14,0.085l-0.141,0.084l-0.141,0.082l-0.142,0.083l-0.142,0.081l-0.143,0.081l-0.144,0.079l-0.144,0.079l-0.145,0.078l-0.145,0.077l-0.146,0.076l-0.146,0.076l-0.058,0.03l-0.089,0.044l-0.147,0.073l-0.148,0.073l-0.149,0.071l-0.149,0.071l-0.149,0.07l-0.151,0.069l-0.15,0.068l-0.151,0.067l-0.152,0.066l-0.152,0.065l-0.152,0.065l-0.153,0.063l-0.154,0.063l-0.154,0.062l-0.154,0.06l-0.155,0.06l-0.156,0.059l-0.156,0.058l-0.156,0.058l-0.157,0.056l-0.157,0.055l-0.158,0.054l-0.158,0.054l-0.158,0.052l-0.159,0.052l-0.16,0.05l-0.16,0.05l-0.16,0.049l-0.161,0.047l-0.161,0.047l-0.161,0.046l-0.162,0.045l-0.163,0.043l-0.163,0.043l-0.163,0.042l-0.164,0.041l-0.164,0.04l-0.164,0.039l-0.165,0.038l-0.165,0.037l-0.165,0.036l-0.166,0.035l-0.167,0.033l-0.166,0.033l-0.168,0.032l-0.167,0.031l-0.168,0.03l-0.168,0.029l-0.168,0.027l-0.169,0.027l-0.169,0.026l-0.17,0.025l-0.17,0.023l-0.17,0.023l-0.171,0.021l-0.171,0.021l-0.171,0.019l-0.171,0.019l-0.172,0.017l-0.172,0.016l-0.173,0.015l-0.173,0.014l-0.173,0.013l-0.173,0.012l-0.174,0.011l-0.174,0.01l-0.174,0.008l-0.175,0.008l-0.174,0.006l-0.176,0.006l-0.175,0.004l-0.176,0.003l-0.176,0.002l-0.091,0.001l-0.084,0l-0.176,-0.001l-0.176,-0.002l-0.175,-0.003l-0.175,-0.004l-0.174,-0.005l-0.175,-0.007l-0.174,-0.007l-0.174,-0.009l-0.174,-0.009l-0.173,-0.011l-0.173,-0.012l-0.173,-0.013l-0.173,-0.013l-0.172,-0.016l-0.172,-0.016l-0.172,-0.017l-0.171,-0.018l-0.171,-0.019l-0.171,-0.021l-0.17,-0.021l-0.171,-0.022l-0.169,-0.024l-0.17,-0.025l-0.169,-0.025l-0.169,-0.027l-0.169,-0.027l-0.168,-0.029l-0.168,-0.03l-0.167,-0.031l-0.167,-0.031l-0.167,-0.033l-0.167,-0.034l-0.166,-0.035l-0.111,-0.024l-0.055,-0.012l-0.165,-0.037l-0.165,-0.038l-0.164,-0.04l-0.165,-0.04l-0.163,-0.041l-0.164,-0.043l-0.163,-0.043l-0.162,-0.044l-0.163,-0.046l-0.161,-0.046l-0.162,-0.047l-0.161,-0.048l-0.16,-0.049l-0.16,-0.05l-0.16,-0.051l-0.159,-0.052l-0.159,-0.053l-0.159,-0.054l-0.158,-0.055l-0.157,-0.056l-0.157,-0.056l-0.157,-0.058l-0.156,-0.059l-0.156,-0.059l-0.155,-0.061l-0.155,-0.061l-0.155,-0.062l-0.153,-0.063l-0.154,-0.064l-0.153,-0.065l-0.152,-0.066l-0.152,-0.067l-0.123,-0.055l-0.029,-0.013l-0.151,-0.069l-0.15,-0.07l-0.15,-0.071l-0.149,-0.072l-0.148,-0.073l-0.149,-0.073l-0.147,-0.075l-0.148,-0.075l-0.146,-0.077l-0.146,-0.077l-0.146,-0.078l-0.145,-0.078l-0.145,-0.08l-0.143,-0.08l-0.144,-0.082l-0.143,-0.082l-0.142,-0.083l-0.142,-0.084l-0.141,-0.084l-0.141,-0.086l-0.14,-0.086l-0.14,-0.087l-0.139,-0.088l-0.138,-0.089l-0.138,-0.089l-0.137,-0.091l-0.137,-0.091l-0.136,-0.092l-0.135,-0.092l-0.135,-0.094l-0.135,-0.094l-0.133,-0.095l-0.133,-0.096l-0.058,-0.042l-0.075,-0.055l-0.131,-0.098l-0.131,-0.099l-0.13,-0.099l-0.13,-0.1l-0.129,-0.101l-0.128,-0.102l-0.128,-0.103l-0.127,-0.103l-0.126,-0.104l-0.126,-0.105l-0.125,-0.105l-0.125,-0.106l-0.124,-0.107l-0.123,-0.108l-0.122,-0.108l-0.122,-0.109l-0.121,-0.11l-0.121,-0.11l-0.12,-0.112l-0.119,-0.111l-0.118,-0.113l-0.118,-0.113l-0.117,-0.114l-0.117,-0.115l-0.116,-0.115l-0.115,-0.116l-0.114,-0.117l-0.114,-0.117l-0.113,-0.118l-0.112,-0.119l-0.111,-0.12l-0.111,-0.12l-0.11,-0.12l-0.11,-0.122l-0.108,-0.122l-0.016,-0.017l-0.092,-0.106l-0.106,-0.124l-0.106,-0.124l-0.105,-0.125l-0.105,-0.126l-0.103,-0.126l-0.103,-0.127l-0.102,-0.128l-0.102,-0.128l-0.1,-0.129l-0.1,-0.129l-0.099,-0.13l-0.098,-0.131l-0.098,-0.131l-0.096,-0.132l-0.096,-0.132l-0.096,-0.133l-0.094,-0.134l-0.094,-0.134l-0.092,-0.135l-0.092,-0.135l-0.091,-0.136l-0.091,-0.137l-0.089,-0.137l-0.089,-0.137l-0.088,-0.138l-0.087,-0.139l-0.087,-0.139l-0.085,-0.14l-0.085,-0.14l-0.084,-0.141l-0.083,-0.141l-0.082,-0.142l-0.081,-0.143l-0.081,-0.143l-0.079,-0.143l-0.079,-0.144l-0.078,-0.145l-0.077,-0.145l-0.076,-0.145l-0.076,-0.146l-0.074,-0.147l-0.074,-0.147l-0.073,-0.147l-0.072,-0.148l-0.071,-0.149l-0.07,-0.149l-0.069,-0.149l-0.068,-0.15l-0.068,-0.151l-0.067,-0.151l-0.065,-0.151l-0.065,-0.152l-0.064,-0.152l-0.063,-0.153l-0.062,-0.153l-0.061,-0.154l-0.06,-0.154l-0.06,-0.154l-0.058,-0.155l-0.058,-0.155l-0.056,-0.156l-0.056,-0.157l-0.055,-0.156l-0.053,-0.157l-0.053,-0.158l-0.052,-0.158l-0.051,-0.158l-0.05,-0.159l-0.049,-0.159l-0.048,-0.159l-0.047,-0.16l-0.046,-0.161l-0.045,-0.16l-0.014,-0.049l-0.03,-0.113l-0.042,-0.161l-0.042,-0.162l-0.04,-0.163l-0.04,-0.162l-0.038,-0.164l-0.038,-0.163l-0.036,-0.164l-0.036,-0.164l-0.034,-0.164l-0.034,-0.165l-0.032,-0.165l-0.032,-0.166l-0.03,-0.166l-0.03,-0.166l-0.028,-0.166l-0.028,-0.167l-0.026,-0.167l-0.025,-0.168l-0.025,-0.167l-0.023,-0.168l-0.022,-0.169l-0.021,-0.168l-0.021,-0.169l-0.019,-0.169l-0.018,-0.17l-0.017,-0.17l-0.016,-0.17l-0.015,-0.17l-0.013,-0.17l-0.013,-0.171l-0.012,-0.171l-0.01,-0.171l-0.01,-0.172l-0.008,-0.172l-0.008,-0.172l-0.006,-0.172l-0.005,-0.173l-0.005,-0.172l-0.003,-0.173l-0.002,-0.174l0,-0.173l0,-0.174l0.001,-0.173l0.003,-0.175l0.003,-0.174l0.005,-0.173l0.006,-0.174l0.007,-0.173l0.007,-0.173l0.009,-0.172l0.011,-0.173l0.011,-0.171l0.012,-0.172l0.013,-0.171l0.015,-0.171l0.015,-0.171l0.017,-0.17l0.017,-0.171l0.019,-0.169l0.019,-0.17l0.021,-0.169l0.022,-0.168l0.023,-0.169l0.023,-0.168l0.025,-0.167l0.026,-0.168l0.027,-0.166l0.028,-0.167l0.029,-0.166l0.03,-0.166l0.031,-0.166l0.004,-0.022l0.028,-0.143l0.034,-0.164l0.034,-0.164l0.036,-0.164l0.036,-0.164l0.038,-0.163l0.038,-0.162l0.04,-0.162l0.04,-0.162l0.041,-0.161l0.043,-0.161l0.043,-0.161l0.044,-0.16l0.046,-0.16l0.046,-0.159l0.047,-0.159l0.048,-0.158l0.049,-0.158l0.05,-0.158l0.051,-0.157l0.052,-0.156l0.053,-0.156l0.053,-0.156l0.055,-0.155l0.055,-0.155l0.057,-0.154l0.057,-0.154l0.058,-0.153l0.059,-0.153l0.061,-0.153l0.06,-0.152l0.062,-0.151l0.063,-0.151l0.064,-0.15l0.064,-0.15l0.065,-0.15l0.067,-0.149l0.067,-0.148l0.068,-0.148l0.068,-0.148l0.07,-0.146l0.071,-0.147l0.071,-0.146l0.072,-0.145l0.073,-0.145l0.074,-0.144l0.075,-0.144l0.075,-0.143l0.077,-0.143l0.077,-0.142l0.078,-0.142l0.079,-0.141l0.08,-0.14l0.08,-0.14l0.081,-0.139l0.083,-0.139l0.082,-0.138l0.084,-0.138l0.085,-0.137l0.085,-0.137l0.086,-0.136l0.087,-0.135l0.087,-0.135l0.089,-0.134l0.089,-0.134l0.09,-0.133l0.091,-0.132l0.091,-0.132l0.092,-0.132l0.093,-0.13l0.076,-0.105l0.018,-0.025l0.095,-0.129l0.096,-0.129l0.096,-0.128l0.097,-0.127l0.098,-0.127l0.099,-0.126l0.099,-0.125l0.1,-0.125l0.101,-0.124l0.101,-0.123l0.102,-0.123l0.103,-0.122l0.104,-0.122l0.104,-0.12l0.105,-0.121l0.106,-0.119l0.106,-0.119l0.107,-0.118l0.108,-0.118l0.108,-0.117l0.109,-0.116l0.11,-0.115l0.11,-0.115l0.111,-0.114l0.112,-0.114l0.112,-0.113l0.113,-0.112l0.114,-0.111l0.114,-0.111l0.115,-0.11l0.116,-0.109l0.116,-0.109l0.117,-0.108l0.117,-0.107l0.118,-0.106l0.119,-0.106l0.119,-0.105l0.12,-0.104l0.121,-0.104l0.121,-0.103l0.121,-0.102l0.123,-0.101l0.123,-0.101l0.123,-0.1l0.124,-0.099l0.125,-0.098l0.125,-0.098l0.126,-0.097l0.127,-0.096l0.127,-0.095l0.127,-0.095l0.128,-0.094l0.129,-0.093l0.129,-0.092l0.13,-0.092l0.13,-0.091l0.131,-0.09l0.132,-0.089l0.132,-0.088l0.132,-0.088l0.133,-0.087l0.134,-0.086l0.134,-0.085l0.134,-0.085l0.135,-0.083l0.136,-0.083l0.136,-0.082l0.137,-0.081l0.137,-0.081l0.138,-0.079l0.138,-0.079l0.139,-0.078l0.139,-0.077l0.139,-0.077l0.14,-0.075l0.141,-0.075l0.141,-0.073l0.142,-0.073l0.142,-0.072l0.142,-0.072l0.143,-0.07l0.143,-0.07l0.144,-0.068l0.145,-0.068l0.144,-0.067l0.145,-0.066l0.146,-0.065l0.146,-0.065l0.147,-0.063l0.147,-0.063l0.147,-0.062l0.148,-0.061l0.148,-0.06l0.149,-0.059l0.149,-0.058l0.149,-0.057l0.15,-0.057l0.15,-0.055l0.151,-0.055l0.151,-0.053l0.151,-0.053l0.152,-0.052l0.152,-0.051l0.153,-0.05l0.153,-0.049l0.153,-0.048l0.154,-0.048l0.154,-0.046l0.155,-0.045l0.154,-0.045l0.156,-0.043l0.155,-0.043l0.156,-0.042l0.146,-0.038l0.01,-0.002l0.157,-0.04l0.157,-0.038l0.157,-0.037l0.158,-0.037l0.158,-0.035l0.158,-0.035l0.159,-0.033l0.159,-0.033l0.159,-0.031l0.16,-0.031l0.16,-0.029l0.16,-0.029l0.16,-0.028l0.161,-0.026l0.161,-0.026l0.162,-0.025l0.161,-0.023l0.162,-0.023l0.162,-0.022l0.163,-0.02l0.162,-0.02l0.163,-0.019l0.163,-0.017l0.164,-0.017l0.164,-0.015l0.164,-0.015l0.164,-0.014l0.164,-0.012l0.165,-0.012l0.165,-0.01l0.165,-0.01l0.165,-0.008l0.166,-0.007l0.166,-0.007l0.166,-0.005l0.166,-0.004l0.167,-0.003l0.166,-0.002l0.167,-0.001l0.167,0l0.168,0.001l0.167,0.002l0.012,0l0.156,0.003l0.167,0.005l0.168,-0.003l0.168,-0.002Zm0.432,-33.453l0.251,0.002l0.132,0.001l0.382,0.005l0.382,0.008l0.382,0.01l0.38,0.012l0.381,0.015l0.379,0.017l0.379,0.02l0.379,0.021l0.378,0.025l0.377,0.026l0.377,0.029l0.376,0.032l0.375,0.034l0.375,0.036l0.374,0.038l0.373,0.041l0.373,0.043l0.372,0.045l0.371,0.047l0.371,0.05l0.37,0.053l0.37,0.054l0.368,0.057l0.368,0.059l0.367,0.061l0.367,0.063l0.365,0.066l0.365,0.068l0.365,0.07l0.363,0.072l0.363,0.075l0.362,0.077l0.361,0.079l0.36,0.081l0.36,0.083l0.358,0.086l0.358,0.088l0.358,0.09l0.356,0.092l0.355,0.094l0.355,0.096l0.354,0.099l0.352,0.1l0.353,0.103l0.351,0.105l0.35,0.107l0.349,0.109l0.349,0.111l0.347,0.113l0.347,0.115l0.346,0.118l0.345,0.119l0.343,0.121l0.343,0.124l0.342,0.126l0.341,0.127l0.34,0.13l0.34,0.131l0.338,0.134l0.337,0.136l0.336,0.137l0.335,0.14l0.334,0.142l0.333,0.143l0.332,0.146l0.331,0.148l0.33,0.149l0.329,0.152l0.328,0.153l0.327,0.155l0.326,0.158l0.324,0.159l0.324,0.161l0.322,0.163l0.322,0.165l0.32,0.167l0.319,0.168l0.318,0.171l0.317,0.172l0.316,0.175l0.315,0.176l0.313,0.178l0.312,0.18l0.312,0.181l0.31,0.184l0.308,0.185l0.308,0.187l0.306,0.189l0.305,0.191l0.304,0.193l0.303,0.194l0.302,0.196l0.3,0.198l0.299,0.2l0.298,0.201l0.296,0.203l0.296,0.205l0.294,0.207l0.292,0.208l0.292,0.211l0.29,0.211l0.289,0.214l0.287,0.215l0.286,0.217l0.285,0.219l0.284,0.22l0.282,0.222l0.281,0.224l0.279,0.225l0.278,0.227l0.277,0.228l0.275,0.231l0.274,0.231l0.273,0.234l0.271,0.235l0.27,0.237l0.268,0.238l0.267,0.24l0.265,0.241l0.264,0.243l0.263,0.245l0.098,0.092l0.163,0.154l0.259,0.248l0.258,0.25l0.257,0.251l0.255,0.253l0.253,0.254l0.252,0.255l0.251,0.258l0.249,0.258l0.247,0.26l0.246,0.262l0.245,0.263l0.243,0.265l0.241,0.266l0.24,0.268l0.238,0.269l0.236,0.27l0.235,0.272l0.234,0.273l0.231,0.275l0.231,0.276l0.228,0.278l0.227,0.279l0.225,0.28l0.224,0.282l0.222,0.283l0.22,0.285l0.219,0.286l0.217,0.287l0.215,0.289l0.214,0.29l0.212,0.291l0.21,0.293l0.209,0.294l0.207,0.295l0.205,0.297l0.203,0.298l0.202,0.299l0.2,0.301l0.198,0.301l0.197,0.304l0.194,0.304l0.193,0.306l0.191,0.306l0.189,0.309l0.188,0.309l0.186,0.311l0.183,0.311l0.183,0.314l0.18,0.314l0.178,0.315l0.177,0.317l0.174,0.318l0.173,0.319l0.171,0.32l0.169,0.322l0.168,0.322l0.165,0.324l0.163,0.325l0.162,0.326l0.159,0.327l0.158,0.328l0.156,0.33l0.154,0.33l0.152,0.332l0.149,0.332l0.148,0.334l0.146,0.335l0.144,0.336l0.143,0.337l0.14,0.338l0.138,0.339l0.136,0.341l0.134,0.341l0.132,0.342l0.13,0.343l0.128,0.345l0.126,0.345l0.124,0.346l0.121,0.348l0.12,0.348l0.118,0.349l0.115,0.35l0.114,0.352l0.111,0.352l0.11,0.353l0.107,0.354l0.105,0.355l0.103,0.356l0.101,0.357l0.098,0.358l0.097,0.358l0.094,0.36l0.092,0.36l0.09,0.362l0.088,0.362l0.086,0.363l0.083,0.364l0.082,0.365l0.079,0.366l0.076,0.366l0.075,0.368l0.072,0.368l0.07,0.369l0.068,0.37l0.066,0.37l0.063,0.372l0.061,0.372l0.059,0.373l0.057,0.374l0.054,0.374l0.052,0.375l0.049,0.376l0.048,0.377l0.044,0.378l0.043,0.378l0.04,0.379l0.038,0.38l0.036,0.38l0.033,0.381l0.031,0.382l0.028,0.382l0.026,0.383l0.024,0.384l0.021,0.385l0.019,0.385l0.016,0.385l0.014,0.387l0.012,0.387l0.009,0.387l0.007,0.389l0.004,0.388l0.002,0.389l-0.001,0.389l-0.003,0.388l-0.006,0.387l-0.008,0.387l-0.01,0.386l-0.013,0.385l-0.016,0.385l-0.018,0.385l-0.02,0.384l-0.022,0.383l-0.025,0.382l-0.028,0.382l-0.029,0.382l-0.033,0.381l-0.034,0.38l-0.037,0.379l-0.039,0.379l-0.042,0.378l-0.044,0.377l-0.042,0.342l-0.004,0.035l-0.049,0.376l-0.051,0.376l-0.054,0.374l-0.056,0.374l-0.058,0.373l-0.06,0.373l-0.063,0.372l-0.065,0.37l-0.068,0.371l-0.069,0.369l-0.072,0.369l-0.074,0.368l-0.076,0.367l-0.079,0.366l-0.081,0.366l-0.083,0.364l-0.085,0.364l-0.087,0.363l-0.09,0.363l-0.092,0.361l-0.094,0.36l-0.096,0.36l-0.098,0.359l-0.1,0.358l-0.103,0.357l-0.105,0.356l-0.107,0.356l-0.109,0.354l-0.111,0.353l-0.113,0.353l-0.115,0.352l-0.118,0.35l-0.119,0.35l-0.122,0.349l-0.124,0.348l-0.126,0.347l-0.127,0.346l-0.13,0.344l-0.132,0.344l-0.134,0.343l-0.136,0.342l-0.138,0.341l-0.14,0.34l-0.142,0.339l-0.144,0.338l-0.147,0.337l-0.148,0.336l-0.15,0.334l-0.152,0.334l-0.154,0.333l-0.156,0.331l-0.158,0.331l-0.159,0.329l-0.162,0.328l-0.164,0.327l-0.166,0.326l-0.167,0.325l-0.17,0.324l-0.171,0.323l-0.173,0.321l-0.176,0.32l-0.177,0.32l-0.179,0.318l-0.18,0.316l-0.183,0.316l-0.185,0.314l-0.186,0.314l-0.188,0.312l-0.19,0.311l-0.192,0.309l-0.194,0.308l-0.195,0.308l-0.197,0.305l-0.2,0.305l-0.2,0.303l-0.203,0.303l-0.204,0.3l-0.207,0.3l-0.208,0.298l-0.209,0.297l-0.125,0.175l-0.087,0.121l-0.213,0.294l-0.215,0.293l-0.217,0.291l-0.219,0.29l-0.22,0.289l-0.222,0.287l-0.224,0.286l-0.226,0.285l-0.227,0.283l-0.229,0.282l-0.23,0.281l-0.232,0.279l-0.234,0.278l-0.235,0.276l-0.237,0.275l-0.239,0.273l-0.24,0.272l-0.242,0.271l-0.243,0.269l-0.245,0.267l-0.247,0.267l-0.248,0.264l-0.25,0.264l-0.251,0.261l-0.253,0.261l-0.255,0.258l-0.256,0.258l-0.257,0.255l-0.259,0.254l-0.261,0.253l-0.262,0.251l-0.264,0.25l-0.265,0.248l-0.266,0.246l-0.268,0.245l-0.27,0.243l-0.271,0.242l-0.273,0.24l-0.274,0.239l-0.275,0.237l-0.277,0.235l-0.278,0.233l-0.28,0.232l-0.281,0.231l-0.283,0.229l-0.284,0.227l-0.285,0.225l-0.287,0.224l-0.288,0.222l-0.29,0.22l-0.29,0.219l-0.293,0.217l-0.293,0.215l-0.295,0.214l-0.297,0.212l-0.297,0.21l-0.299,0.208l-0.301,0.207l-0.301,0.204l-0.303,0.204l-0.304,0.201l-0.306,0.199l-0.307,0.198l-0.308,0.196l-0.309,0.194l-0.311,0.193l-0.311,0.19l-0.314,0.189l-0.314,0.187l-0.315,0.185l-0.317,0.183l-0.318,0.182l-0.319,0.179l-0.321,0.178l-0.321,0.176l-0.323,0.174l-0.324,0.172l-0.325,0.17l-0.327,0.168l-0.327,0.166l-0.131,0.065l-0.198,0.099l-0.33,0.162l-0.331,0.16l-0.333,0.158l-0.333,0.156l-0.335,0.154l-0.335,0.152l-0.337,0.151l-0.338,0.148l-0.339,0.146l-0.339,0.144l-0.341,0.142l-0.343,0.14l-0.343,0.139l-0.344,0.136l-0.345,0.134l-0.346,0.132l-0.347,0.13l-0.349,0.128l-0.349,0.125l-0.35,0.124l-0.351,0.122l-0.353,0.119l-0.353,0.118l-0.354,0.115l-0.355,0.113l-0.356,0.111l-0.357,0.109l-0.358,0.107l-0.359,0.105l-0.36,0.103l-0.361,0.1l-0.361,0.098l-0.363,0.096l-0.363,0.094l-0.365,0.092l-0.365,0.089l-0.366,0.087l-0.367,0.085l-0.367,0.083l-0.369,0.081l-0.37,0.078l-0.37,0.076l-0.371,0.074l-0.372,0.072l-0.373,0.069l-0.373,0.067l-0.374,0.065l-0.375,0.062l-0.376,0.06l-0.377,0.058l-0.377,0.056l-0.378,0.053l-0.379,0.051l-0.38,0.049l-0.38,0.046l-0.381,0.044l-0.382,0.041l-0.383,0.039l-0.383,0.037l-0.384,0.034l-0.384,0.032l-0.386,0.03l-0.386,0.027l-0.386,0.025l-0.387,0.022l-0.388,0.02l-0.389,0.018l-0.389,0.015l-0.39,0.012l-0.39,0.01l-0.391,0.008l-0.391,0.005l-0.393,0.003l-0.205,0l-0.187,0l-0.391,-0.003l-0.391,-0.005l-0.391,-0.008l-0.39,-0.01l-0.389,-0.013l-0.389,-0.015l-0.388,-0.018l-0.387,-0.02l-0.387,-0.022l-0.386,-0.025l-0.386,-0.027l-0.385,-0.03l-0.384,-0.032l-0.384,-0.035l-0.383,-0.037l-0.382,-0.039l-0.381,-0.042l-0.381,-0.044l-0.381,-0.046l-0.379,-0.048l-0.379,-0.052l-0.378,-0.053l-0.377,-0.056l-0.377,-0.057l-0.376,-0.061l-0.375,-0.062l-0.374,-0.065l-0.373,-0.067l-0.373,-0.07l-0.372,-0.072l-0.371,-0.074l-0.371,-0.076l-0.369,-0.078l-0.247,-0.054l-0.122,-0.027l-0.368,-0.084l-0.367,-0.085l-0.366,-0.088l-0.365,-0.09l-0.364,-0.093l-0.364,-0.094l-0.362,-0.097l-0.362,-0.099l-0.361,-0.101l-0.36,-0.103l-0.359,-0.105l-0.358,-0.108l-0.357,-0.11l-0.357,-0.111l-0.355,-0.114l-0.354,-0.116l-0.354,-0.119l-0.352,-0.12l-0.352,-0.122l-0.35,-0.125l-0.35,-0.126l-0.348,-0.129l-0.348,-0.13l-0.346,-0.133l-0.346,-0.135l-0.344,-0.137l-0.343,-0.139l-0.343,-0.141l-0.341,-0.142l-0.34,-0.145l-0.34,-0.147l-0.338,-0.149l-0.272,-0.122l-0.065,-0.029l-0.335,-0.154l-0.335,-0.155l-0.334,-0.158l-0.332,-0.159l-0.331,-0.162l-0.33,-0.163l-0.329,-0.166l-0.328,-0.167l-0.327,-0.169l-0.325,-0.171l-0.324,-0.173l-0.324,-0.175l-0.321,-0.177l-0.321,-0.178l-0.32,-0.181l-0.318,-0.182l-0.317,-0.184l-0.316,-0.187l-0.315,-0.188l-0.313,-0.189l-0.313,-0.192l-0.311,-0.193l-0.309,-0.196l-0.309,-0.197l-0.307,-0.198l-0.306,-0.201l-0.305,-0.203l-0.303,-0.204l-0.302,-0.206l-0.301,-0.207l-0.299,-0.21l-0.298,-0.211l-0.297,-0.213l-0.128,-0.093l-0.167,-0.122l-0.294,-0.217l-0.292,-0.219l-0.291,-0.22l-0.289,-0.222l-0.288,-0.224l-0.287,-0.226l-0.285,-0.227l-0.284,-0.229l-0.283,-0.23l-0.281,-0.232l-0.28,-0.234l-0.278,-0.236l-0.277,-0.237l-0.275,-0.238l-0.274,-0.241l-0.273,-0.242l-0.27,-0.243l-0.27,-0.245l-0.268,-0.247l-0.267,-0.248l-0.265,-0.25l-0.263,-0.251l-0.262,-0.253l-0.261,-0.255l-0.258,-0.256l-0.258,-0.257l-0.256,-0.259l-0.254,-0.261l-0.253,-0.262l-0.251,-0.263l-0.25,-0.266l-0.248,-0.266l-0.246,-0.268l-0.245,-0.27l-0.243,-0.271l-0.035,-0.039l-0.206,-0.234l-0.24,-0.274l-0.238,-0.276l-0.236,-0.277l-0.234,-0.279l-0.233,-0.28l-0.231,-0.281l-0.23,-0.283l-0.228,-0.285l-0.226,-0.285l-0.224,-0.287l-0.223,-0.289l-0.221,-0.29l-0.22,-0.291l-0.217,-0.292l-0.216,-0.294l-0.214,-0.295l-0.213,-0.297l-0.21,-0.297l-0.209,-0.3l-0.208,-0.3l-0.205,-0.302l-0.204,-0.303l-0.202,-0.304l-0.2,-0.305l-0.198,-0.307l-0.196,-0.308l-0.195,-0.309l-0.193,-0.311l-0.191,-0.312l-0.189,-0.312l-0.187,-0.315l-0.186,-0.315l-0.184,-0.317l-0.181,-0.317l-0.18,-0.319l-0.178,-0.32l-0.176,-0.322l-0.175,-0.322l-0.172,-0.324l-0.17,-0.325l-0.169,-0.325l-0.166,-0.328l-0.165,-0.328l-0.163,-0.329l-0.161,-0.33l-0.158,-0.332l-0.157,-0.332l-0.155,-0.334l-0.153,-0.335l-0.151,-0.336l-0.149,-0.337l-0.147,-0.337l-0.145,-0.339l-0.143,-0.34l-0.141,-0.342l-0.139,-0.342l-0.137,-0.343l-0.134,-0.344l-0.133,-0.345l-0.131,-0.346l-0.129,-0.347l-0.126,-0.348l-0.125,-0.349l-0.122,-0.35l-0.12,-0.351l-0.119,-0.352l-0.116,-0.353l-0.114,-0.354l-0.112,-0.355l-0.11,-0.355l-0.107,-0.357l-0.106,-0.357l-0.103,-0.359l-0.031,-0.109l-0.07,-0.25l-0.098,-0.36l-0.096,-0.361l-0.094,-0.363l-0.092,-0.362l-0.089,-0.364l-0.087,-0.365l-0.085,-0.365l-0.083,-0.366l-0.081,-0.367l-0.078,-0.368l-0.076,-0.369l-0.074,-0.369l-0.072,-0.37l-0.069,-0.371l-0.068,-0.372l-0.064,-0.372l-0.063,-0.373l-0.06,-0.374l-0.058,-0.375l-0.056,-0.375l-0.053,-0.376l-0.051,-0.377l-0.049,-0.378l-0.046,-0.378l-0.044,-0.379l-0.042,-0.379l-0.04,-0.38l-0.036,-0.381l-0.035,-0.382l-0.032,-0.382l-0.03,-0.383l-0.028,-0.383l-0.025,-0.384l-0.022,-0.385l-0.021,-0.385l-0.017,-0.386l-0.016,-0.386l-0.013,-0.387l-0.01,-0.388l-0.008,-0.388l-0.006,-0.388l-0.003,-0.389l-0.001,-0.39l0.002,-0.391l0.004,-0.39l0.007,-0.389l0.009,-0.389l0.012,-0.389l0.014,-0.388l0.016,-0.387l0.019,-0.386l0.021,-0.386l0.024,-0.385l0.026,-0.385l0.029,-0.383l0.031,-0.384l0.033,-0.382l0.036,-0.382l0.038,-0.381l0.04,-0.38l0.043,-0.38l0.045,-0.379l0.048,-0.378l0.05,-0.377l0.052,-0.377l0.054,-0.376l0.057,-0.375l0.059,-0.374l0.061,-0.374l0.064,-0.373l0.066,-0.371l0.009,-0.051l0.059,-0.321l0.071,-0.37l0.073,-0.369l0.076,-0.369l0.078,-0.367l0.08,-0.367l0.082,-0.366l0.084,-0.366l0.087,-0.364l0.088,-0.363l0.091,-0.363l0.093,-0.361l0.096,-0.361l0.097,-0.36l0.1,-0.359l0.101,-0.358l0.104,-0.357l0.106,-0.356l0.109,-0.355l0.11,-0.354l0.112,-0.353l0.115,-0.353l0.116,-0.351l0.119,-0.35l0.121,-0.349l0.122,-0.349l0.125,-0.347l0.127,-0.346l0.129,-0.346l0.131,-0.344l0.133,-0.343l0.135,-0.342l0.137,-0.341l0.139,-0.34l0.142,-0.339l0.143,-0.338l0.145,-0.337l0.147,-0.336l0.149,-0.334l0.151,-0.334l0.153,-0.332l0.154,-0.332l0.157,-0.33l0.159,-0.329l0.161,-0.328l0.162,-0.327l0.165,-0.325l0.166,-0.325l0.168,-0.323l0.171,-0.322l0.172,-0.321l0.174,-0.32l0.175,-0.319l0.178,-0.317l0.179,-0.316l0.182,-0.315l0.183,-0.314l0.185,-0.312l0.187,-0.312l0.188,-0.31l0.19,-0.308l0.193,-0.308l0.194,-0.306l0.195,-0.305l0.198,-0.304l0.199,-0.302l0.201,-0.301l0.203,-0.3l0.204,-0.299l0.207,-0.297l0.168,-0.239l0.04,-0.057l0.21,-0.294l0.212,-0.293l0.213,-0.291l0.215,-0.29l0.217,-0.289l0.219,-0.287l0.22,-0.286l0.222,-0.285l0.224,-0.283l0.225,-0.282l0.227,-0.281l0.228,-0.279l0.23,-0.277l0.232,-0.276l0.233,-0.275l0.235,-0.273l0.237,-0.272l0.238,-0.271l0.239,-0.269l0.241,-0.267l0.243,-0.266l0.245,-0.264l0.245,-0.263l0.248,-0.262l0.249,-0.26l0.25,-0.258l0.252,-0.257l0.254,-0.256l0.254,-0.254l0.257,-0.252l0.258,-0.251l0.259,-0.249l0.261,-0.248l0.262,-0.246l0.264,-0.245l0.265,-0.243l0.267,-0.241l0.268,-0.24l0.27,-0.238l0.27,-0.236l0.273,-0.235l0.274,-0.234l0.275,-0.231l0.276,-0.23l0.278,-0.229l0.279,-0.227l0.281,-0.225l0.282,-0.223l0.283,-0.222l0.285,-0.22l0.286,-0.218l0.287,-0.217l0.288,-0.215l0.29,-0.213l0.292,-0.212l0.292,-0.209l0.294,-0.209l0.295,-0.206l0.296,-0.204l0.298,-0.203l0.299,-0.201l0.3,-0.2l0.301,-0.197l0.302,-0.196l0.304,-0.194l0.305,-0.192l0.306,-0.191l0.308,-0.188l0.308,-0.187l0.31,-0.185l0.311,-0.183l0.312,-0.181l0.313,-0.18l0.315,-0.177l0.315,-0.176l0.317,-0.174l0.318,-0.172l0.319,-0.17l0.32,-0.168l0.321,-0.166l0.323,-0.165l0.323,-0.162l0.325,-0.161l0.325,-0.158l0.327,-0.157l0.327,-0.155l0.329,-0.153l0.33,-0.151l0.331,-0.149l0.332,-0.146l0.333,-0.145l0.333,-0.144l0.335,-0.141l0.336,-0.139l0.337,-0.137l0.338,-0.135l0.339,-0.133l0.34,-0.131l0.341,-0.129l0.342,-0.127l0.342,-0.125l0.344,-0.122l0.345,-0.121l0.345,-0.119l0.347,-0.117l0.347,-0.114l0.348,-0.113l0.349,-0.11l0.35,-0.108l0.351,-0.107l0.352,-0.104l0.353,-0.102l0.353,-0.099l0.33,-0.091l0.025,-0.007l0.355,-0.095l0.356,-0.093l0.357,-0.091l0.358,-0.088l0.359,-0.087l0.359,-0.084l0.36,-0.082l0.361,-0.08l0.362,-0.078l0.363,-0.075l0.363,-0.074l0.364,-0.071l0.365,-0.068l0.365,-0.067l0.367,-0.064l0.367,-0.063l0.367,-0.059l0.369,-0.058l0.369,-0.055l0.369,-0.053l0.371,-0.051l0.371,-0.049l0.372,-0.046l0.372,-0.044l0.373,-0.041l0.374,-0.04l0.375,-0.036l0.375,-0.035l0.375,-0.032l0.377,-0.03l0.376,-0.028l0.378,-0.025l0.378,-0.023l0.379,-0.021l0.379,-0.018l0.38,-0.015l0.38,-0.014l0.381,-0.011l0.381,-0.008l0.382,-0.006l0.383,-0.004l0.383,-0.001l0.027,0l0.356,0.001l0.384,0.004l0.385,-0.002l0.383,0Z"/><defs><linearGradient id="_Linear2" x1="0" y1="0" x2="1" y2="0" gradientUnits="userSpaceOnUse" gradientTransform="matrix(5.78685e-15,94.5064,-94.5064,5.78685e-15,63.0498,33.4315)"><stop offset="0" style="stop-color:#fff;stop-opacity:1"/><stop offset="0.55" style="stop-color:#efefef;stop-opacity:1"/><stop offset="1" style="stop-color:#b3b3b3;stop-opacity:1"/></linearGradient><linearGradient id="_Linear3" x1="0" y1="0" x2="1" y2="0" gradientUnits="userSpaceOnUse" gradientTransform="matrix(4.44089e-15,71.7745,-71.7745,4.44089e-15,63.0498,2.14583)"><stop offset="0" style="stop-color:#cf5b35;stop-opacity:1"/><stop offset="0.55" style="stop-color:#c25533;stop-opacity:1"/><stop offset="1" style="stop-color:#91402d;stop-opacity:1"/></linearGradient></defs></svg>