<?xml version="1.0" encoding="UTF-8" standalone="no"?><!DOCTYPE svg PUBLIC "-//W3C//DTD SVG 1.1//EN" "http://www.w3.org/Graphics/SVG/1.1/DTD/svg11.dtd"><svg width="100%" height="100%" viewBox="0 0 127 132" version="1.1" xmlns="http://www.w3.org/2000/svg" xmlns:xlink="http://www.w3.org/1999/xlink" xml:space="preserve" xmlns:serif="http://www.serif.com/" style="fill-rule:evenodd;clip-rule:evenodd;stroke-linejoin:round;stroke-miterlimit:1.41421;"><path d="M121.746,2.146c-3.807,24.543 -6.978,48.487 -38.272,66.032l40.664,40.664l-20.332,20.332l-40.664,-40.664l-40.664,40.664l-20.332,-20.332l40.664,-40.664c-23.591,-14.573 -36.204,-36.482 -37.381,-66.032c22.875,1.681 43.264,12.622 57.713,45.7c10.795,-24.143 26.825,-39.841 58.604,-45.7Z" style="fill:#93c06b;"/><clipPath id="_clip1"><path d="M121.746,2.146c-3.807,24.543 -6.978,48.487 -38.272,66.032l40.664,40.664l-20.332,20.332l-40.664,-40.664l-40.664,40.664l-20.332,-20.332l40.664,-40.664c-23.591,-14.573 -36.204,-36.482 -37.381,-66.032c22.875,1.681 43.264,12.622 57.713,45.7c10.795,-24.143 26.825,-39.841 58.604,-45.7Z"/></clipPath><g clip-path="url(#_clip1)"><path d="M-11.035,97.157c0,0 37.381,-34.353 53.113,42.69c15.731,77.042 32.419,3.183 32.419,3.183c0,0 36.253,-71.784 54.596,-58.921c18.343,12.863 -10.703,76.348 -10.703,76.348l-43.893,39.42l-85.532,-78.39l0,-24.33Z" style="fill:#e4db82;"/><path d="M19.113,21.383c1.192,0.549 30.324,15.413 44.408,43.974c0,0 15.21,-25.065 31.669,-32.261c0,0 -17.553,14.183 -31.946,35.037c-1.682,-3.105 -22.752,-35.179 -44.131,-46.75Z" style="fill:#485c37;"/></g><path d="M5.802,0.795l0.272,0.022l0.272,0.023l0.272,0.024l0.271,0.024l0.272,0.026l0.271,0.026l0.271,0.028l0.27,0.028l0.271,0.029l0.27,0.03l0.27,0.031l0.27,0.032l0.269,0.033l0.269,0.033l0.27,0.035l0.268,0.036l0.269,0.036l0.268,0.038l0.269,0.038l0.268,0.04l0.267,0.04l0.268,0.042l0.267,0.042l0.267,0.043l0.267,0.045l0.266,0.045l0.267,0.046l0.266,0.048l0.265,0.048l0.266,0.049l0.265,0.051l0.265,0.051l0.265,0.052l0.265,0.054l0.264,0.054l0.264,0.056l0.264,0.056l0.263,0.058l0.264,0.058l0.263,0.06l0.262,0.061l0.263,0.062l0.262,0.062l0.262,0.064l0.262,0.065l0.261,0.067l0.261,0.067l0.261,0.068l0.261,0.069l0.26,0.071l0.26,0.072l0.26,0.072l0.259,0.074l0.259,0.075l0.259,0.076l0.259,0.078l0.258,0.078l0.258,0.08l0.258,0.08l0.257,0.082l0.258,0.083l0.256,0.084l0.257,0.086l0.256,0.086l0.256,0.088l0.256,0.089l0.255,0.09l0.255,0.091l0.255,0.092l0.254,0.094l0.254,0.095l0.254,0.096l0.254,0.097l0.253,0.099l0.252,0.099l0.253,0.101l0.252,0.103l0.252,0.103l0.251,0.105l0.252,0.105l0.251,0.108l0.25,0.108l0.25,0.11l0.25,0.111l0.25,0.112l0.249,0.113l0.249,0.115l0.248,0.116l0.248,0.117l0.248,0.119l0.248,0.12l0.247,0.121l0.246,0.123l0.247,0.124l0.246,0.125l0.245,0.126l0.246,0.128l0.245,0.129l0.244,0.131l0.245,0.131l0.243,0.133l0.244,0.135l0.243,0.136l0.243,0.137l0.242,0.138l0.242,0.14l0.242,0.142l0.241,0.142l0.241,0.144l0.24,0.146l0.24,0.147l0.24,0.148l0.239,0.149l0.239,0.151l0.239,0.153l0.238,0.153l0.238,0.156l0.237,0.156l0.237,0.158l0.237,0.16l0.236,0.16l0.236,0.163l0.235,0.163l0.235,0.166l0.234,0.166l0.235,0.168l0.233,0.17l0.234,0.171l0.232,0.172l0.233,0.174l0.232,0.176l0.232,0.176l0.231,0.179l0.231,0.18l0.23,0.181l0.23,0.183l0.229,0.184l0.229,0.186l0.229,0.187l0.228,0.189l0.228,0.19l0.227,0.192l0.227,0.193l0.227,0.195l0.226,0.196l0.225,0.198l0.225,0.2l0.225,0.201l0.224,0.202l0.224,0.205l0.224,0.205l0.222,0.207l0.223,0.209l0.222,0.21l0.221,0.212l0.222,0.214l0.22,0.215l0.22,0.217l0.22,0.218l0.219,0.22l0.219,0.221l0.218,0.223l0.218,0.225l0.218,0.226l0.217,0.228l0.216,0.229l0.216,0.231l0.215,0.233l0.215,0.234l0.215,0.236l0.214,0.238l0.214,0.239l0.213,0.241l0.212,0.242l0.213,0.244l0.211,0.246l0.211,0.248l0.211,0.249l0.21,0.251l0.21,0.252l0.209,0.254l0.209,0.256l0.208,0.258l0.208,0.259l0.207,0.261l0.207,0.262l0.206,0.265l0.206,0.266l0.206,0.268l0.204,0.269l0.205,0.271l0.203,0.273l0.204,0.275l0.203,0.276l0.202,0.278l0.202,0.28l0.201,0.282l0.201,0.283l0.2,0.285l0.2,0.287l0.199,0.289l0.199,0.29l0.198,0.292l0.197,0.294l0.198,0.296l0.196,0.297l0.196,0.3l0.196,0.301l0.195,0.303l0.195,0.304l0.194,0.307l0.193,0.308l0.193,0.31l0.193,0.312l0.192,0.314l0.191,0.315l0.191,0.318l0.19,0.319l0.19,0.321l0.19,0.323l0.188,0.325l0.189,0.327l0.187,0.328l0.187,0.331l0.187,0.332l0.186,0.334l0.186,0.336l0.185,0.338l0.184,0.34l0.184,0.341l0.184,0.344l0.182,0.345l0.183,0.348l0.181,0.349l0.182,0.351l0.18,0.353l0.18,0.355l0.18,0.357l0.179,0.359l0.178,0.361l0.178,0.363l0.178,0.364l0.176,0.367l0.177,0.369l0.175,0.37l0.175,0.373l0.175,0.374l0.174,0.377l0.149,0.324l0.085,-0.179l0.133,-0.278l0.134,-0.277l0.134,-0.276l0.135,-0.276l0.135,-0.275l0.136,-0.274l0.137,-0.274l0.137,-0.272l0.137,-0.272l0.139,-0.271l0.138,-0.27l0.14,-0.27l0.14,-0.269l0.14,-0.268l0.141,-0.267l0.142,-0.266l0.142,-0.266l0.143,-0.265l0.143,-0.264l0.144,-0.263l0.145,-0.263l0.145,-0.262l0.146,-0.261l0.146,-0.26l0.148,-0.259l0.147,-0.259l0.149,-0.258l0.149,-0.257l0.149,-0.257l0.15,-0.255l0.151,-0.255l0.152,-0.254l0.152,-0.253l0.153,-0.252l0.153,-0.252l0.155,-0.251l0.154,-0.25l0.156,-0.249l0.156,-0.249l0.157,-0.248l0.158,-0.246l0.158,-0.247l0.159,-0.245l0.159,-0.244l0.161,-0.244l0.161,-0.243l0.161,-0.242l0.163,-0.242l0.163,-0.24l0.164,-0.24l0.164,-0.239l0.166,-0.238l0.166,-0.238l0.167,-0.236l0.167,-0.236l0.168,-0.235l0.169,-0.234l0.17,-0.233l0.171,-0.233l0.171,-0.232l0.172,-0.231l0.173,-0.23l0.173,-0.229l0.175,-0.229l0.175,-0.227l0.176,-0.227l0.176,-0.226l0.178,-0.226l0.178,-0.224l0.179,-0.224l0.18,-0.223l0.18,-0.222l0.182,-0.221l0.182,-0.22l0.183,-0.22l0.184,-0.219l0.185,-0.218l0.185,-0.217l0.186,-0.216l0.187,-0.216l0.188,-0.214l0.189,-0.214l0.19,-0.213l0.19,-0.212l0.192,-0.212l0.192,-0.21l0.193,-0.21l0.194,-0.209l0.195,-0.208l0.195,-0.207l0.197,-0.206l0.197,-0.206l0.199,-0.205l0.199,-0.204l0.2,-0.203l0.201,-0.202l0.202,-0.201l0.202,-0.201l0.204,-0.2l0.204,-0.198l0.206,-0.198l0.206,-0.198l0.207,-0.196l0.209,-0.196l0.209,-0.194l0.21,-0.194l0.211,-0.193l0.211,-0.192l0.213,-0.191l0.214,-0.191l0.215,-0.189l0.215,-0.189l0.217,-0.188l0.217,-0.187l0.219,-0.186l0.219,-0.186l0.221,-0.184l0.221,-0.184l0.222,-0.182l0.224,-0.182l0.224,-0.181l0.225,-0.181l0.226,-0.179l0.228,-0.178l0.228,-0.178l0.229,-0.177l0.23,-0.176l0.231,-0.175l0.233,-0.174l0.233,-0.173l0.234,-0.173l0.235,-0.171l0.236,-0.171l0.238,-0.17l0.238,-0.169l0.239,-0.168l0.241,-0.167l0.241,-0.167l0.242,-0.165l0.244,-0.165l0.244,-0.163l0.246,-0.163l0.247,-0.162l0.247,-0.162l0.249,-0.16l0.25,-0.159l0.25,-0.159l0.252,-0.157l0.253,-0.157l0.254,-0.156l0.256,-0.155l0.256,-0.154l0.257,-0.154l0.258,-0.152l0.26,-0.151l0.26,-0.151l0.262,-0.15l0.263,-0.149l0.264,-0.148l0.265,-0.147l0.266,-0.146l0.267,-0.145l0.268,-0.145l0.27,-0.143l0.27,-0.143l0.272,-0.142l0.273,-0.141l0.274,-0.14l0.275,-0.139l0.276,-0.138l0.277,-0.137l0.279,-0.137l0.28,-0.135l0.28,-0.135l0.282,-0.134l0.283,-0.133l0.285,-0.132l0.285,-0.131l0.287,-0.13l0.288,-0.129l0.289,-0.129l0.29,-0.127l0.291,-0.127l0.293,-0.126l0.294,-0.125l0.295,-0.124l0.296,-0.123l0.297,-0.122l0.299,-0.121l0.3,-0.121l0.301,-0.119l0.302,-0.119l0.303,-0.117l0.305,-0.117l0.306,-0.116l0.307,-0.115l0.308,-0.114l0.31,-0.113l0.311,-0.113l0.312,-0.111l0.313,-0.111l0.315,-0.109l0.316,-0.109l0.317,-0.108l0.318,-0.106l0.32,-0.106l0.321,-0.106l0.322,-0.104l0.324,-0.103l0.324,-0.102l0.326,-0.102l0.328,-0.1l0.328,-0.1l0.33,-0.099l0.331,-0.098l0.333,-0.097l0.334,-0.096l0.335,-0.095l0.336,-0.094l0.338,-0.093l0.339,-0.093l0.341,-0.091l0.341,-0.091l0.344,-0.089l0.344,-0.089l0.346,-0.088l0.347,-0.087l0.348,-0.086l0.35,-0.085l0.351,-0.084l0.353,-0.084l0.354,-0.082l0.355,-0.082l0.357,-0.08l0.358,-0.08l0.359,-0.079l0.361,-0.077l0.362,-0.077l0.363,-0.076l0.365,-0.075l0.246,-0.05l0.121,-0.025l0.367,-0.073l0.369,-0.072l0.371,-0.071l0.372,-0.071l0.373,-0.069l0.374,-0.069l0.167,-0.016l0.167,0.013l0.163,0.041l0.153,0.069l0.139,0.095l0.12,0.117l0.099,0.135l0.073,0.151l0.047,0.162l0.017,0.167l-0.011,0.167l-0.957,-0.148l1.269,0.196l-0.259,1.733l-0.085,0.568l-0.173,1.15l-0.174,1.149l-0.176,1.148l-0.089,0.575l-0.09,0.573l-0.09,0.574l-0.091,0.573l-0.093,0.573l-0.093,0.573l-0.094,0.573l-0.096,0.572l-0.097,0.572l-0.098,0.571l-0.099,0.572l-0.102,0.57l-0.103,0.571l-0.104,0.57l-0.107,0.57l-0.108,0.569l-0.11,0.569l-0.112,0.568l-0.115,0.568l-0.116,0.568l-0.119,0.567l-0.122,0.566l-0.123,0.566l-0.127,0.565l-0.129,0.565l-0.131,0.564l-0.135,0.564l-0.137,0.562l-0.07,0.282l-0.071,0.281l-0.071,0.281l-0.073,0.281l-0.072,0.28l-0.074,0.281l-0.075,0.28l-0.075,0.28l-0.076,0.28l-0.077,0.28l-0.078,0.279l-0.079,0.28l-0.08,0.279l-0.08,0.279l-0.082,0.279l-0.082,0.278l-0.083,0.279l-0.085,0.278l-0.085,0.278l-0.086,0.278l-0.087,0.278l-0.088,0.277l-0.089,0.277l-0.09,0.277l-0.091,0.277l-0.092,0.277l-0.093,0.276l-0.094,0.276l-0.095,0.276l-0.096,0.276l-0.037,0.103l-0.061,0.172l-0.098,0.276l-0.1,0.274l-0.101,0.275l-0.101,0.275l-0.103,0.274l-0.105,0.274l-0.105,0.274l-0.106,0.273l-0.108,0.273l-0.109,0.273l-0.11,0.273l-0.111,0.273l-0.112,0.272l-0.114,0.272l-0.114,0.271l-0.116,0.272l-0.118,0.271l-0.118,0.271l-0.12,0.271l-0.121,0.27l-0.123,0.27l-0.123,0.27l-0.125,0.269l-0.127,0.269l-0.127,0.269l-0.129,0.269l-0.131,0.268l-0.132,0.268l-0.133,0.268l-0.134,0.267l-0.136,0.267l-0.137,0.267l-0.139,0.266l-0.14,0.266l-0.142,0.266l-0.143,0.266l-0.145,0.265l-0.146,0.264l-0.147,0.265l-0.149,0.264l-0.151,0.264l-0.152,0.263l-0.153,0.263l-0.155,0.263l-0.157,0.262l-0.158,0.263l-0.16,0.261l-0.161,0.261l-0.163,0.261l-0.164,0.261l-0.166,0.26l-0.168,0.26l-0.169,0.26l-0.171,0.259l-0.173,0.258l-0.174,0.259l-0.176,0.258l-0.178,0.257l-0.179,0.257l-0.181,0.257l-0.183,0.256l-0.184,0.256l-0.186,0.256l-0.188,0.255l-0.189,0.255l-0.192,0.254l-0.193,0.254l-0.195,0.253l-0.197,0.253l-0.198,0.253l-0.2,0.252l-0.202,0.252l-0.204,0.251l-0.206,0.251l-0.208,0.25l-0.209,0.25l-0.211,0.25l-0.214,0.249l-0.215,0.248l-0.217,0.248l-0.218,0.248l-0.221,0.247l-0.223,0.247l-0.225,0.246l-0.226,0.246l-0.229,0.246l-0.23,0.244l-0.233,0.245l-0.234,0.244l-0.236,0.243l-0.239,0.243l-0.24,0.243l-0.243,0.242l-0.244,0.241l-0.246,0.241l-0.249,0.24l-0.251,0.24l-0.252,0.24l-0.255,0.239l-0.257,0.238l-0.259,0.238l-0.261,0.238l-0.263,0.236l-0.265,0.237l-0.267,0.236l-0.27,0.235l-0.272,0.235l-0.273,0.234l-0.276,0.234l-0.278,0.233l-0.281,0.233l-0.282,0.232l-0.285,0.231l-0.287,0.231l-0.289,0.231l-0.292,0.23l-0.293,0.229l-0.296,0.229l-0.298,0.228l-0.301,0.228l-0.303,0.227l-0.305,0.227l-0.307,0.226l-0.31,0.225l-0.312,0.225l-0.314,0.225l-0.317,0.223l-0.319,0.224l-0.321,0.222l-0.324,0.222l-0.326,0.222l-0.328,0.221l-0.331,0.22l-0.334,0.22l-0.335,0.219l-0.338,0.218l-0.341,0.218l-0.343,0.218l-0.346,0.216l-0.348,0.216l-0.35,0.216l-0.353,0.215l-0.355,0.214l-0.326,0.195l20.144,20.028l19.123,19.041l0.2,0.237l0.156,0.268l0.107,0.291l0.055,0.305l0.001,0.311l-0.053,0.306l-0.105,0.293l-0.155,0.27l-0.2,0.239l-2.115,2.124l-18.19,18.235l-0.218,0.186l-0.244,0.15l-0.264,0.11l-0.278,0.067l-0.286,0.023l-0.286,-0.021l-0.279,-0.067l-0.265,-0.109l-0.245,-0.15l-0.219,-0.186l-4.517,-4.504l-23.088,-23.08l0.004,-0.023l-11.769,-11.769l0,-0.003l-20.822,20.777l-18.609,18.542l-0.208,0.177l-0.234,0.142l-0.253,0.104l-0.266,0.063l-0.272,0.021l-0.272,-0.022l-0.265,-0.064l-0.252,-0.106l-0.232,-0.143l-0.207,-0.177l-20.3,-20.364l-0.189,-0.227l-0.146,-0.255l-0.1,-0.277l-0.051,-0.29l0.001,-0.294l0.052,-0.29l0.101,-0.276l0.047,-0.081l0.101,-0.173l0.189,-0.224l0.086,0.086l39.289,-39.289l-0.004,-0.003l-0.274,-0.178l-0.273,-0.18l-0.272,-0.18l-0.271,-0.18l-0.27,-0.182l-0.269,-0.182l-0.268,-0.183l-0.267,-0.183l-0.266,-0.185l-0.265,-0.185l-0.264,-0.185l-0.263,-0.187l-0.262,-0.187l-0.261,-0.187l-0.26,-0.189l-0.258,-0.189l-0.258,-0.19l-0.257,-0.19l-0.256,-0.191l-0.255,-0.192l-0.254,-0.193l-0.253,-0.193l-0.251,-0.194l-0.251,-0.195l-0.25,-0.195l-0.249,-0.196l-0.247,-0.197l-0.247,-0.197l-0.246,-0.198l-0.245,-0.199l-0.243,-0.2l-0.243,-0.2l-0.242,-0.201l-0.24,-0.202l-0.24,-0.202l-0.238,-0.203l-0.238,-0.204l-0.236,-0.204l-0.236,-0.205l-0.235,-0.206l-0.233,-0.207l-0.232,-0.207l-0.232,-0.208l-0.23,-0.208l-0.23,-0.21l-0.228,-0.21l-0.227,-0.21l-0.227,-0.212l-0.225,-0.212l-0.224,-0.213l-0.224,-0.213l-0.222,-0.214l-0.221,-0.215l-0.22,-0.216l-0.219,-0.216l-0.218,-0.217l-0.218,-0.218l-0.216,-0.218l-0.215,-0.219l-0.214,-0.22l-0.213,-0.221l-0.212,-0.221l-0.21,-0.222l-0.21,-0.222l-0.209,-0.224l-0.208,-0.224l-0.207,-0.224l-0.206,-0.226l-0.204,-0.226l-0.204,-0.227l-0.203,-0.227l-0.201,-0.228l-0.201,-0.229l-0.199,-0.23l-0.199,-0.23l-0.197,-0.231l-0.197,-0.232l-0.195,-0.232l-0.195,-0.233l-0.193,-0.234l-0.192,-0.234l-0.192,-0.235l-0.19,-0.236l-0.189,-0.237l-0.188,-0.237l-0.187,-0.238l-0.186,-0.239l-0.185,-0.239l-0.184,-0.24l-0.183,-0.241l-0.182,-0.241l-0.181,-0.242l-0.18,-0.243l-0.178,-0.243l-0.178,-0.245l-0.177,-0.245l-0.175,-0.245l-0.175,-0.246l-0.174,-0.247l-0.172,-0.248l-0.172,-0.249l-0.17,-0.249l-0.169,-0.249l-0.169,-0.251l-0.167,-0.251l-0.166,-0.252l-0.165,-0.252l-0.164,-0.254l-0.163,-0.254l-0.163,-0.254l-0.161,-0.255l-0.159,-0.256l-0.159,-0.257l-0.158,-0.258l-0.157,-0.258l-0.156,-0.258l-0.154,-0.26l-0.154,-0.26l-0.153,-0.261l-0.151,-0.261l-0.151,-0.263l-0.149,-0.263l-0.148,-0.263l-0.148,-0.265l-0.146,-0.265l-0.145,-0.265l-0.144,-0.267l-0.143,-0.267l-0.142,-0.267l-0.141,-0.269l-0.14,-0.269l-0.139,-0.27l-0.138,-0.27l-0.137,-0.272l-0.136,-0.272l-0.134,-0.272l-0.134,-0.273l-0.132,-0.274l-0.132,-0.275l-0.13,-0.275l-0.13,-0.276l-0.128,-0.277l-0.127,-0.277l-0.127,-0.279l-0.125,-0.278l-0.124,-0.28l-0.123,-0.28l-0.122,-0.281l-0.121,-0.281l-0.12,-0.282l-0.118,-0.283l-0.118,-0.284l-0.117,-0.284l-0.116,-0.285l-0.114,-0.286l-0.114,-0.286l-0.112,-0.287l-0.112,-0.288l-0.11,-0.288l-0.109,-0.289l-0.108,-0.29l-0.108,-0.29l-0.106,-0.291l-0.105,-0.292l-0.104,-0.293l-0.103,-0.293l-0.101,-0.294l-0.101,-0.294l-0.1,-0.295l-0.099,-0.296l-0.097,-0.297l-0.097,-0.297l-0.095,-0.298l-0.095,-0.299l-0.093,-0.299l-0.092,-0.3l-0.092,-0.301l-0.09,-0.301l-0.089,-0.302l-0.088,-0.303l-0.087,-0.303l-0.086,-0.304l-0.085,-0.305l-0.084,-0.305l-0.082,-0.306l-0.082,-0.307l-0.081,-0.308l-0.079,-0.308l-0.079,-0.309l-0.077,-0.309l-0.077,-0.31l-0.075,-0.311l-0.074,-0.312l-0.073,-0.312l-0.073,-0.313l-0.071,-0.313l-0.07,-0.315l-0.069,-0.315l-0.068,-0.315l-0.066,-0.317l-0.066,-0.317l-0.065,-0.317l-0.063,-0.319l-0.063,-0.319l-0.062,-0.319l-0.06,-0.321l-0.059,-0.321l-0.059,-0.322l-0.057,-0.322l-0.056,-0.323l-0.055,-0.324l-0.054,-0.324l-0.053,-0.325l-0.052,-0.326l-0.051,-0.327l-0.05,-0.327l-0.049,-0.328l-0.048,-0.328l-0.046,-0.329l-0.046,-0.33l-0.044,-0.331l-0.044,-0.331l-0.042,-0.332l-0.041,-0.333l-0.041,-0.333l-0.039,-0.334l-0.038,-0.334l-0.037,-0.336l-0.036,-0.336l-0.035,-0.336l-0.034,-0.338l-0.033,-0.338l-0.032,-0.338l-0.03,-0.34l-0.03,-0.34l-0.029,-0.341l-0.027,-0.341l-0.016,-0.212l-0.01,-0.13l-0.026,-0.343l-0.024,-0.343l-0.023,-0.345l-0.022,-0.344l-0.021,-0.346l-0.02,-0.346l-0.019,-0.347l-0.018,-0.347l-0.017,-0.349l-0.015,-0.349l-0.015,-0.349l-0.014,-0.348l0.01,-0.232l0.049,-0.227l0.086,-0.215l0.121,-0.198l0.153,-0.174l0.179,-0.147l0.202,-0.114l0.218,-0.079l0.228,-0.041l0.232,-0.002l0.27,0.021Zm114.291,2.661l-0.361,0.074l-0.119,0.024l-0.241,0.05l-0.359,0.076l-0.357,0.077l-0.355,0.077l-0.355,0.079l-0.352,0.079l-0.352,0.08l-0.35,0.081l-0.348,0.082l-0.347,0.082l-0.346,0.084l-0.345,0.085l-0.342,0.085l-0.342,0.086l-0.34,0.087l-0.339,0.088l-0.337,0.089l-0.336,0.09l-0.335,0.09l-0.333,0.092l-0.332,0.092l-0.331,0.093l-0.329,0.094l-0.328,0.095l-0.327,0.096l-0.325,0.097l-0.324,0.097l-0.322,0.099l-0.321,0.099l-0.32,0.1l-0.319,0.101l-0.317,0.102l-0.316,0.102l-0.314,0.104l-0.314,0.104l-0.312,0.105l-0.31,0.107l-0.31,0.107l-0.308,0.107l-0.307,0.109l-0.305,0.11l-0.304,0.11l-0.303,0.111l-0.302,0.112l-0.3,0.113l-0.299,0.114l-0.298,0.115l-0.297,0.115l-0.295,0.116l-0.295,0.118l-0.292,0.118l-0.292,0.119l-0.29,0.119l-0.29,0.121l-0.288,0.121l-0.286,0.123l-0.286,0.123l-0.284,0.124l-0.283,0.124l-0.282,0.126l-0.281,0.127l-0.279,0.127l-0.278,0.128l-0.277,0.129l-0.276,0.13l-0.275,0.131l-0.274,0.131l-0.272,0.132l-0.271,0.134l-0.27,0.134l-0.269,0.135l-0.268,0.135l-0.266,0.137l-0.265,0.137l-0.265,0.138l-0.263,0.139l-0.262,0.14l-0.261,0.141l-0.259,0.142l-0.259,0.142l-0.257,0.143l-0.257,0.144l-0.255,0.145l-0.254,0.146l-0.253,0.146l-0.252,0.148l-0.25,0.148l-0.25,0.149l-0.249,0.15l-0.247,0.151l-0.247,0.151l-0.245,0.152l-0.244,0.154l-0.244,0.154l-0.242,0.154l-0.241,0.156l-0.24,0.156l-0.239,0.158l-0.238,0.158l-0.237,0.159l-0.235,0.16l-0.235,0.16l-0.234,0.162l-0.233,0.162l-0.232,0.163l-0.23,0.164l-0.23,0.164l-0.229,0.166l-0.227,0.166l-0.227,0.167l-0.226,0.168l-0.224,0.169l-0.224,0.17l-0.223,0.17l-0.222,0.172l-0.22,0.172l-0.22,0.173l-0.219,0.173l-0.218,0.175l-0.217,0.175l-0.216,0.176l-0.214,0.177l-0.214,0.178l-0.214,0.179l-0.212,0.179l-0.211,0.181l-0.21,0.181l-0.21,0.182l-0.208,0.182l-0.207,0.184l-0.207,0.184l-0.206,0.185l-0.204,0.186l-0.204,0.187l-0.203,0.188l-0.202,0.188l-0.201,0.19l-0.201,0.19l-0.199,0.191l-0.199,0.191l-0.197,0.193l-0.197,0.193l-0.196,0.194l-0.195,0.195l-0.194,0.196l-0.193,0.197l-0.193,0.197l-0.191,0.198l-0.191,0.199l-0.19,0.2l-0.189,0.201l-0.188,0.201l-0.188,0.203l-0.186,0.203l-0.186,0.204l-0.185,0.204l-0.184,0.206l-0.184,0.206l-0.182,0.207l-0.182,0.208l-0.181,0.209l-0.18,0.21l-0.179,0.21l-0.179,0.211l-0.178,0.212l-0.177,0.213l-0.176,0.214l-0.175,0.214l-0.175,0.216l-0.174,0.216l-0.173,0.217l-0.172,0.217l-0.172,0.219l-0.171,0.219l-0.17,0.221l-0.17,0.22l-0.168,0.222l-0.168,0.223l-0.167,0.223l-0.167,0.224l-0.166,0.225l-0.165,0.226l-0.164,0.227l-0.164,0.227l-0.163,0.229l-0.162,0.229l-0.161,0.23l-0.161,0.23l-0.16,0.232l-0.16,0.232l-0.159,0.233l-0.158,0.234l-0.157,0.235l-0.157,0.235l-0.156,0.237l-0.155,0.237l-0.155,0.238l-0.154,0.238l-0.154,0.24l-0.152,0.24l-0.152,0.242l-0.152,0.241l-0.151,0.243l-0.15,0.244l-0.149,0.244l-0.149,0.245l-0.149,0.246l-0.147,0.247l-0.147,0.248l-0.147,0.248l-0.146,0.249l-0.145,0.25l-0.145,0.251l-0.144,0.252l-0.143,0.252l-0.143,0.254l-0.142,0.254l-0.142,0.254l-0.141,0.256l-0.141,0.256l-0.139,0.258l-0.14,0.258l-0.139,0.258l-0.138,0.26l-0.138,0.261l-0.137,0.261l-0.136,0.262l-0.136,0.263l-0.136,0.263l-0.135,0.265l-0.134,0.265l-0.134,0.266l-0.133,0.267l-0.133,0.267l-0.132,0.269l-0.132,0.269l-0.131,0.27l-0.131,0.27l-0.13,0.272l-0.13,0.272l-0.129,0.273l-0.129,0.274l-0.128,0.275l-0.128,0.276l-0.127,0.276l-0.127,0.277l-0.126,0.278l-0.126,0.279l-0.125,0.279l-0.126,0.282l-0.093,0.169l-0.119,0.151l-0.143,0.13l-0.162,0.104l-0.177,0.077l-0.188,0.046l-0.192,0.015l-0.192,-0.016l-0.187,-0.048l-0.177,-0.078l-0.161,-0.106l-0.142,-0.131l-0.118,-0.152l-0.092,-0.17l-0.17,-0.385l-0.169,-0.381l-0.171,-0.378l-0.17,-0.377l-0.171,-0.375l-0.172,-0.372l-0.172,-0.371l-0.173,-0.369l-0.173,-0.366l-0.174,-0.365l-0.174,-0.363l-0.175,-0.36l-0.175,-0.359l-0.176,-0.357l-0.176,-0.354l-0.177,-0.353l-0.177,-0.351l-0.178,-0.349l-0.178,-0.346l-0.179,-0.345l-0.179,-0.343l-0.18,-0.341l-0.18,-0.339l-0.181,-0.337l-0.181,-0.336l-0.182,-0.333l-0.182,-0.331l-0.182,-0.329l-0.183,-0.328l-0.184,-0.326l-0.184,-0.323l-0.185,-0.322l-0.185,-0.32l-0.185,-0.318l-0.186,-0.316l-0.186,-0.314l-0.187,-0.312l-0.188,-0.311l-0.187,-0.309l-0.189,-0.306l-0.188,-0.305l-0.189,-0.303l-0.19,-0.301l-0.19,-0.3l-0.191,-0.297l-0.191,-0.296l-0.191,-0.294l-0.192,-0.292l-0.192,-0.29l-0.193,-0.288l-0.194,-0.287l-0.193,-0.285l-0.194,-0.283l-0.195,-0.281l-0.195,-0.279l-0.195,-0.278l-0.196,-0.276l-0.197,-0.274l-0.196,-0.272l-0.198,-0.271l-0.197,-0.269l-0.198,-0.267l-0.199,-0.265l-0.199,-0.263l-0.199,-0.262l-0.2,-0.26l-0.2,-0.259l-0.201,-0.256l-0.201,-0.255l-0.201,-0.253l-0.202,-0.252l-0.203,-0.249l-0.202,-0.249l-0.204,-0.246l-0.203,-0.245l-0.204,-0.243l-0.205,-0.241l-0.204,-0.239l-0.206,-0.238l-0.205,-0.237l-0.206,-0.234l-0.207,-0.233l-0.207,-0.232l-0.207,-0.229l-0.208,-0.228l-0.208,-0.227l-0.208,-0.225l-0.209,-0.223l-0.209,-0.221l-0.21,-0.22l-0.21,-0.219l-0.21,-0.216l-0.211,-0.215l-0.211,-0.214l-0.212,-0.212l-0.212,-0.21l-0.212,-0.209l-0.213,-0.207l-0.213,-0.206l-0.214,-0.204l-0.214,-0.202l-0.214,-0.201l-0.215,-0.2l-0.215,-0.198l-0.216,-0.196l-0.215,-0.195l-0.217,-0.193l-0.216,-0.192l-0.217,-0.19l-0.218,-0.189l-0.217,-0.187l-0.218,-0.186l-0.219,-0.184l-0.219,-0.183l-0.219,-0.181l-0.219,-0.18l-0.22,-0.178l-0.221,-0.177l-0.22,-0.175l-0.222,-0.174l-0.221,-0.172l-0.222,-0.171l-0.222,-0.17l-0.222,-0.168l-0.223,-0.166l-0.223,-0.165l-0.224,-0.164l-0.224,-0.163l-0.224,-0.161l-0.225,-0.159l-0.225,-0.158l-0.225,-0.157l-0.226,-0.155l-0.226,-0.154l-0.227,-0.153l-0.226,-0.151l-0.228,-0.149l-0.227,-0.149l-0.228,-0.147l-0.228,-0.146l-0.229,-0.144l-0.228,-0.143l-0.23,-0.141l-0.229,-0.141l-0.23,-0.139l-0.231,-0.137l-0.23,-0.136l-0.231,-0.135l-0.231,-0.134l-0.232,-0.132l-0.232,-0.131l-0.232,-0.13l-0.233,-0.128l-0.233,-0.127l-0.233,-0.126l-0.234,-0.125l-0.234,-0.123l-0.234,-0.122l-0.235,-0.121l-0.235,-0.119l-0.235,-0.118l-0.236,-0.117l-0.236,-0.116l-0.237,-0.114l-0.236,-0.114l-0.237,-0.111l-0.238,-0.111l-0.237,-0.11l-0.238,-0.108l-0.239,-0.107l-0.238,-0.106l-0.239,-0.104l-0.24,-0.104l-0.239,-0.102l-0.24,-0.101l-0.241,-0.1l-0.24,-0.099l-0.241,-0.097l-0.241,-0.096l-0.242,-0.095l-0.242,-0.094l-0.242,-0.093l-0.243,-0.092l-0.242,-0.09l-0.244,-0.09l-0.243,-0.088l-0.244,-0.087l-0.244,-0.086l-0.245,-0.085l-0.244,-0.083l-0.245,-0.083l-0.246,-0.081l-0.245,-0.081l-0.247,-0.079l-0.246,-0.078l-0.246,-0.077l-0.247,-0.076l-0.248,-0.074l-0.247,-0.074l-0.248,-0.073l-0.248,-0.071l-0.249,-0.071l-0.248,-0.069l-0.25,-0.069l-0.249,-0.067l-0.25,-0.066l-0.25,-0.065l-0.25,-0.065l-0.251,-0.063l-0.25,-0.062l-0.252,-0.061l-0.251,-0.06l-0.252,-0.059l-0.252,-0.058l-0.252,-0.057l-0.253,-0.056l-0.253,-0.055l-0.253,-0.054l-0.254,-0.053l-0.253,-0.052l-0.255,-0.05l-0.254,-0.05l-0.255,-0.049l-0.255,-0.048l-0.255,-0.048l-0.255,-0.046l-0.256,-0.045l-0.256,-0.044l-0.257,-0.043l-0.256,-0.042l-0.257,-0.042l-0.258,-0.04l-0.257,-0.039l-0.258,-0.039l-0.258,-0.038l-0.258,-0.036l-0.259,-0.036l-0.259,-0.035l-0.259,-0.034l-0.259,-0.033l-0.26,-0.032l-0.26,-0.031l-0.26,-0.03l-0.261,-0.03l-0.26,-0.028l-0.261,-0.028l-0.262,-0.027l-0.261,-0.026l-0.262,-0.025l-0.262,-0.024l-0.025,-0.002l0.008,0.149l0.021,0.338l0.021,0.337l0.022,0.337l0.023,0.336l0.025,0.335l0.025,0.335l0.026,0.333l0.011,0.127l0.017,0.206l0.028,0.333l0.029,0.331l0.031,0.331l0.031,0.33l0.032,0.33l0.034,0.328l0.034,0.328l0.036,0.328l0.036,0.326l0.038,0.326l0.038,0.325l0.04,0.325l0.041,0.323l0.041,0.323l0.043,0.323l0.043,0.321l0.045,0.321l0.046,0.32l0.047,0.32l0.047,0.318l0.049,0.318l0.05,0.317l0.051,0.317l0.052,0.316l0.052,0.315l0.054,0.314l0.055,0.314l0.056,0.313l0.057,0.312l0.058,0.312l0.059,0.311l0.06,0.31l0.061,0.31l0.062,0.308l0.063,0.308l0.064,0.308l0.065,0.306l0.066,0.306l0.067,0.305l0.069,0.305l0.069,0.304l0.07,0.303l0.071,0.302l0.072,0.302l0.073,0.301l0.074,0.3l0.076,0.299l0.076,0.299l0.077,0.298l0.078,0.298l0.08,0.296l0.08,0.296l0.081,0.296l0.082,0.294l0.084,0.294l0.084,0.293l0.085,0.293l0.087,0.292l0.087,0.291l0.088,0.29l0.09,0.29l0.09,0.289l0.092,0.288l0.092,0.288l0.093,0.287l0.095,0.286l0.095,0.285l0.097,0.285l0.097,0.284l0.098,0.283l0.1,0.283l0.1,0.282l0.102,0.281l0.102,0.281l0.104,0.28l0.104,0.279l0.106,0.278l0.106,0.278l0.107,0.277l0.109,0.277l0.109,0.275l0.111,0.275l0.111,0.275l0.113,0.273l0.113,0.273l0.115,0.273l0.115,0.271l0.117,0.271l0.117,0.27l0.119,0.27l0.119,0.268l0.121,0.269l0.122,0.267l0.122,0.267l0.124,0.266l0.124,0.265l0.126,0.265l0.126,0.264l0.128,0.263l0.128,0.263l0.13,0.261l0.13,0.262l0.132,0.26l0.132,0.26l0.134,0.259l0.134,0.259l0.136,0.258l0.136,0.257l0.138,0.256l0.139,0.256l0.139,0.255l0.141,0.254l0.141,0.254l0.143,0.253l0.143,0.252l0.145,0.252l0.145,0.251l0.147,0.25l0.147,0.25l0.149,0.249l0.149,0.248l0.151,0.248l0.152,0.247l0.152,0.246l0.154,0.245l0.154,0.245l0.156,0.244l0.156,0.244l0.158,0.243l0.158,0.242l0.16,0.242l0.16,0.24l0.162,0.241l0.162,0.239l0.164,0.239l0.164,0.238l0.166,0.237l0.166,0.237l0.168,0.236l0.169,0.236l0.169,0.235l0.171,0.234l0.171,0.233l0.173,0.233l0.173,0.232l0.175,0.231l0.175,0.231l0.177,0.23l0.177,0.23l0.179,0.229l0.179,0.228l0.181,0.227l0.181,0.227l0.183,0.226l0.183,0.225l0.185,0.225l0.185,0.224l0.187,0.224l0.187,0.222l0.189,0.223l0.189,0.221l0.191,0.221l0.191,0.22l0.193,0.219l0.194,0.219l0.194,0.218l0.196,0.218l0.196,0.217l0.198,0.216l0.198,0.215l0.2,0.215l0.2,0.214l0.202,0.214l0.202,0.213l0.204,0.212l0.204,0.211l0.206,0.211l0.206,0.21l0.208,0.21l0.209,0.209l0.209,0.208l0.211,0.208l0.211,0.207l0.213,0.206l0.213,0.205l0.215,0.205l0.215,0.205l0.217,0.203l0.218,0.203l0.218,0.203l0.22,0.201l0.22,0.201l0.222,0.201l0.223,0.199l0.223,0.199l0.225,0.199l0.225,0.197l0.227,0.197l0.228,0.197l0.228,0.196l0.23,0.195l0.23,0.194l0.232,0.194l0.233,0.193l0.233,0.193l0.235,0.191l0.236,0.192l0.236,0.19l0.238,0.19l0.239,0.189l0.239,0.189l0.241,0.188l0.242,0.187l0.242,0.187l0.244,0.186l0.245,0.185l0.245,0.185l0.247,0.184l0.248,0.183l0.248,0.183l0.25,0.182l0.251,0.181l0.252,0.181l0.252,0.18l0.254,0.179l0.255,0.179l0.256,0.178l0.256,0.178l0.258,0.176l0.259,0.177l0.26,0.175l0.26,0.175l0.262,0.174l0.263,0.174l0.264,0.173l0.265,0.172l0.265,0.172l0.267,0.171l0.268,0.17l0.269,0.17l0.27,0.169l0.271,0.168l0.274,0.169l0.205,0.151l0.177,0.183l0.146,0.209l0.11,0.23l0.07,0.245l0.03,0.254l-0.012,0.255l-0.053,0.249l-0.094,0.238l-0.131,0.219l-0.165,0.195l0,0l-38.438,38.61l0.003,0l-0.949,0.95l0.003,0l17.945,17.945l0,-0.074l20.093,-20.094l-0.018,-0.054l19.3,-19.344l0.217,-0.186l0.244,-0.15l0.264,-0.11l0.278,-0.068l0.286,-0.023l0,0l0.285,0.022l0.279,0.067l0.265,0.109l0.245,0.149l0.218,0.186l10.268,10.244l23.116,23.125l5.988,6.001l0,0.004l14.914,-14.914l0.04,0.007l2.851,-2.842l0.006,0l-19.242,-19.243l0.067,-0.022l-20.122,-20.246l-0.175,-0.209l-0.139,-0.235l-0.097,-0.255l-0.053,-0.267l-0.008,-0.272l0.037,-0.27l0.082,-0.26l0.027,-0.052l0.098,-0.19l0.162,-0.218l0.197,-0.188l0.226,-0.152l0.363,-0.203l0.357,-0.202l0.356,-0.202l0.352,-0.203l0.35,-0.203l0.348,-0.204l0.345,-0.204l0.342,-0.205l0.34,-0.206l0.338,-0.206l0.335,-0.206l0.332,-0.207l0.33,-0.208l0.328,-0.208l0.325,-0.209l0.323,-0.209l0.32,-0.209l0.318,-0.211l0.316,-0.21l0.313,-0.211l0.311,-0.212l0.309,-0.212l0.306,-0.213l0.304,-0.213l0.301,-0.214l0.299,-0.214l0.297,-0.215l0.295,-0.215l0.292,-0.216l0.29,-0.216l0.288,-0.217l0.285,-0.217l0.284,-0.218l0.281,-0.218l0.278,-0.219l0.277,-0.219l0.275,-0.22l0.272,-0.22l0.27,-0.22l0.268,-0.221l0.266,-0.222l0.263,-0.222l0.262,-0.222l0.259,-0.223l0.258,-0.224l0.255,-0.223l0.253,-0.225l0.251,-0.225l0.249,-0.225l0.247,-0.225l0.245,-0.227l0.243,-0.226l0.241,-0.227l0.238,-0.228l0.237,-0.228l0.235,-0.228l0.233,-0.229l0.231,-0.229l0.229,-0.23l0.227,-0.23l0.225,-0.231l0.223,-0.231l0.222,-0.231l0.219,-0.232l0.218,-0.232l0.215,-0.233l0.214,-0.233l0.212,-0.234l0.21,-0.234l0.209,-0.234l0.206,-0.235l0.205,-0.236l0.203,-0.235l0.201,-0.236l0.199,-0.237l0.198,-0.237l0.195,-0.237l0.194,-0.238l0.193,-0.239l0.19,-0.238l0.189,-0.239l0.187,-0.24l0.186,-0.24l0.184,-0.24l0.182,-0.241l0.18,-0.241l0.179,-0.241l0.177,-0.242l0.176,-0.242l0.174,-0.243l0.172,-0.243l0.171,-0.244l0.169,-0.244l0.168,-0.244l0.166,-0.245l0.165,-0.245l0.163,-0.245l0.161,-0.246l0.16,-0.247l0.158,-0.246l0.157,-0.247l0.156,-0.248l0.154,-0.248l0.152,-0.248l0.151,-0.248l0.15,-0.249l0.148,-0.25l0.147,-0.25l0.145,-0.25l0.144,-0.25l0.143,-0.251l0.141,-0.251l0.14,-0.252l0.138,-0.252l0.137,-0.253l0.136,-0.252l0.134,-0.253l0.133,-0.254l0.132,-0.254l0.13,-0.254l0.13,-0.255l0.128,-0.255l0.126,-0.255l0.125,-0.256l0.125,-0.256l0.122,-0.256l0.122,-0.257l0.12,-0.257l0.12,-0.258l0.118,-0.257l0.116,-0.259l0.116,-0.258l0.114,-0.259l0.114,-0.259l0.112,-0.26l0.111,-0.26l0.109,-0.26l0.109,-0.261l0.108,-0.261l0.106,-0.261l0.106,-0.262l0.104,-0.262l0.103,-0.262l0.102,-0.263l0.102,-0.262l0.1,-0.264l0.099,-0.263l0.098,-0.264l0.097,-0.265l0.06,-0.165l0.036,-0.099l0.095,-0.265l0.094,-0.265l0.094,-0.266l0.092,-0.266l0.091,-0.266l0.091,-0.266l0.089,-0.267l0.089,-0.267l0.087,-0.267l0.087,-0.268l0.086,-0.268l0.085,-0.268l0.084,-0.269l0.083,-0.269l0.082,-0.269l0.082,-0.27l0.08,-0.269l0.08,-0.27l0.079,-0.271l0.078,-0.271l0.078,-0.27l0.077,-0.272l0.075,-0.271l0.075,-0.272l0.075,-0.272l0.073,-0.272l0.073,-0.273l0.072,-0.273l0.072,-0.273l0.07,-0.273l0.139,-0.548l0.137,-0.549l0.134,-0.55l0.131,-0.551l0.129,-0.551l0.126,-0.553l0.125,-0.554l0.121,-0.555l0.12,-0.555l0.118,-0.557l0.115,-0.557l0.114,-0.559l0.112,-0.559l0.11,-0.56l0.108,-0.561l0.107,-0.562l0.105,-0.562l0.104,-0.563l0.102,-0.564l0.102,-0.565l0.1,-0.566l0.098,-0.566l0.098,-0.567l0.097,-0.567l0.096,-0.568l0.095,-0.569l0.094,-0.57l0.094,-0.569l0.186,-1.143l0.185,-1.144l0.183,-1.146l0.091,-0.567l0.04,-0.253l-0.147,0.03Z"/></svg>