<?xml version="1.0" encoding="UTF-8" standalone="no"?><!DOCTYPE svg PUBLIC "-//W3C//DTD SVG 1.1//EN" "http://www.w3.org/Graphics/SVG/1.1/DTD/svg11.dtd"><svg width="100%" height="100%" viewBox="0 0 126 131" version="1.1" xmlns="http://www.w3.org/2000/svg" xmlns:xlink="http://www.w3.org/1999/xlink" xml:space="preserve" xmlns:serif="http://www.serif.com/" style="fill-rule:evenodd;clip-rule:evenodd;stroke-linejoin:round;stroke-miterlimit:1.41421;"><rect id="Artboard1" x="0" y="0" width="125.4" height="130.2" style="fill:none;"/><g id="ex"><path d="M42.818,96.453c-4.764,1.516 -13.394,-64.132 43.871,-86.201" style="fill:#2b699f;"/><path d="M87.488,9.943l-0.491,1.104l-0.331,0.134l-0.058,0.023l-0.271,0.111l-0.327,0.134l-0.325,0.136l-0.323,0.137l-0.323,0.137l-0.32,0.139l-0.32,0.139l-0.317,0.14l-0.316,0.142l-0.315,0.142l-0.313,0.143l-0.312,0.144l-0.31,0.144l-0.308,0.146l-0.308,0.147l-0.305,0.147l-0.304,0.149l-0.303,0.149l-0.301,0.15l-0.3,0.151l-0.298,0.151l-0.297,0.153l-0.296,0.153l-0.294,0.155l-0.292,0.155l-0.291,0.156l-0.29,0.156l-0.288,0.158l-0.286,0.158l-0.286,0.16l-0.283,0.16l-0.283,0.16l-0.281,0.162l-0.279,0.162l-0.278,0.163l-0.277,0.164l-0.275,0.165l-0.274,0.165l-0.273,0.166l-0.271,0.167l-0.269,0.168l-0.269,0.168l-0.267,0.17l-0.265,0.17l-0.264,0.17l-0.263,0.172l-0.261,0.172l-0.26,0.172l-0.259,0.174l-0.257,0.174l-0.256,0.175l-0.254,0.176l-0.254,0.176l-0.251,0.177l-0.251,0.178l-0.249,0.178l-0.248,0.179l-0.246,0.18l-0.245,0.18l-0.244,0.181l-0.242,0.182l-0.241,0.182l-0.24,0.183l-0.239,0.183l-0.237,0.185l-0.236,0.184l-0.234,0.186l-0.234,0.186l-0.231,0.187l-0.231,0.187l-0.229,0.188l-0.228,0.188l-0.227,0.189l-0.226,0.19l-0.224,0.19l-0.223,0.191l-0.222,0.192l-0.22,0.192l-0.219,0.192l-0.218,0.193l-0.217,0.194l-0.215,0.194l-0.214,0.195l-0.213,0.195l-0.211,0.196l-0.211,0.196l-0.209,0.197l-0.112,0.107l-0.096,0.09l-0.207,0.198l-0.206,0.198l-0.204,0.199l-0.204,0.199l-0.202,0.2l-0.201,0.2l-0.199,0.2l-0.199,0.201l-0.197,0.202l-0.196,0.202l-0.195,0.203l-0.194,0.203l-0.192,0.203l-0.192,0.204l-0.19,0.204l-0.189,0.205l-0.188,0.205l-0.186,0.206l-0.186,0.206l-0.184,0.207l-0.183,0.207l-0.182,0.207l-0.181,0.208l-0.18,0.208l-0.178,0.209l-0.178,0.209l-0.176,0.21l-0.175,0.21l-0.174,0.21l-0.173,0.21l-0.172,0.211l-0.17,0.212l-0.17,0.212l-0.168,0.212l-0.167,0.212l-0.166,0.213l-0.165,0.213l-0.164,0.214l-0.163,0.214l-0.162,0.214l-0.161,0.214l-0.159,0.215l-0.159,0.216l-0.157,0.215l-0.156,0.216l-0.156,0.216l-0.154,0.216l-0.153,0.217l-0.152,0.217l-0.151,0.218l-0.15,0.217l-0.149,0.218l-0.147,0.218l-0.147,0.219l-0.146,0.219l-0.144,0.219l-0.144,0.219l-0.143,0.219l-0.141,0.22l-0.141,0.22l-0.139,0.22l-0.139,0.221l-0.137,0.22l-0.136,0.221l-0.136,0.221l-0.134,0.222l-0.134,0.221l-0.132,0.222l-0.131,0.222l-0.131,0.222l-0.129,0.223l-0.128,0.222l-0.128,0.223l-0.126,0.223l-0.126,0.223l-0.124,0.223l-0.124,0.223l-0.122,0.224l-0.122,0.224l-0.12,0.224l-0.12,0.224l-0.118,0.224l-0.118,0.224l-0.117,0.225l-0.113,0.22l-0.003,0.004l-0.115,0.224l-0.114,0.225l-0.114,0.225l-0.112,0.224l-0.112,0.225l-0.11,0.225l-0.11,0.225l-0.109,0.225l-0.108,0.226l-0.107,0.225l-0.106,0.225l-0.105,0.226l-0.104,0.225l-0.103,0.226l-0.103,0.226l-0.101,0.225l-0.101,0.226l-0.1,0.226l-0.098,0.226l-0.098,0.226l-0.097,0.225l-0.097,0.226l-0.095,0.226l-0.094,0.226l-0.094,0.226l-0.093,0.226l-0.091,0.226l-0.091,0.226l-0.09,0.226l-0.09,0.226l-0.088,0.226l-0.088,0.226l-0.086,0.226l-0.086,0.226l-0.085,0.225l-0.084,0.226l-0.083,0.226l-0.083,0.226l-0.082,0.225l-0.08,0.226l-0.08,0.225l-0.03,0.084l-0.05,0.142l-0.079,0.225l-0.079,0.225l-0.077,0.225l-0.076,0.223l-0.152,0.451l-0.148,0.449l-0.144,0.448l-0.142,0.448l-0.138,0.448l-0.135,0.447l-0.133,0.446l-0.129,0.446l-0.126,0.445l-0.123,0.444l-0.12,0.444l-0.118,0.443l-0.114,0.442l-0.111,0.441l-0.093,0.375l-0.016,0.065l-0.109,0.438l-0.106,0.438l-0.103,0.437l-0.1,0.435l-0.098,0.435l-0.094,0.433l-0.092,0.432l-0.09,0.431l-0.087,0.43l-0.084,0.428l-0.081,0.427l-0.079,0.426l-0.052,0.292l-0.025,0.133l-0.076,0.422l-0.074,0.421l-0.072,0.42l-0.068,0.418l-0.067,0.416l-0.064,0.415l-0.061,0.413l-0.059,0.412l-0.057,0.41l-0.055,0.408l-0.052,0.406l-0.05,0.404l-0.047,0.403l-0.014,0.125l-0.033,0.275l-0.045,0.399l-0.043,0.396l-0.041,0.394l-0.038,0.393l-0.037,0.39l-0.034,0.388l-0.032,0.385l-0.03,0.384l-0.029,0.381l-0.026,0.379l-0.024,0.376l-0.022,0.374l-0.02,0.372l-0.012,0.223l-0.007,0.146l-0.018,0.367l-0.016,0.364l-0.014,0.361l-0.013,0.359l-0.01,0.356l-0.009,0.353l-0.007,0.351l-0.005,0.347l-0.004,0.345l-0.002,0.342l0,0.339l0.001,0.336l0.003,0.333l0.005,0.33l0.003,0.164l0.002,0.163l0.006,0.323l0.008,0.321l0.009,0.317l0.011,0.314l0.012,0.311l0.014,0.307l0.015,0.304l0.016,0.3l0.018,0.297l0.019,0.294l0.02,0.289l0.022,0.287l0.023,0.282l0.024,0.279l0.025,0.275l0.026,0.271l0.028,0.267l0.029,0.264l0.029,0.259l0.031,0.256l0.032,0.251l0.033,0.248l0.034,0.243l0.035,0.239l0.035,0.235l0.037,0.23l0.038,0.227l0.038,0.221l0.039,0.218l0.04,0.212l0.041,0.209l0.016,0.083l0.024,0.121l0.042,0.199l0.041,0.194l0.043,0.19l0.043,0.185l0.044,0.18l0.044,0.175l0.044,0.17l0.045,0.165l0.046,0.159l0.045,0.155l0.046,0.149l0.046,0.143l0.047,0.139l0.046,0.132l0.046,0.127l0.046,0.121l0.046,0.115l0.046,0.109l0.045,0.103l0.044,0.096l0.043,0.09l0.043,0.084l0.041,0.077l0.042,0.073l0.017,0.029l0.019,0.03l0.018,0.029l0.017,0.027l0.017,0.025l0.016,0.023l0.016,0.021l0.014,0.019l0.013,0.018l0.033,0.038l-0.018,-0.019l0.037,0.041l-0.02,-0.02l0.017,0.018l0.017,0.016l-0.024,-0.021l0.016,0.015l0.015,0.013l-0.027,-0.021l0.013,0.011l0.014,0.01l-0.032,-0.021l0.022,0.016l-0.037,-0.021l0.029,0.016l-0.04,-0.021l0.029,0.015l-0.042,-0.019l0.028,0.013l-0.045,-0.019l0.029,0.012l-0.048,-0.017l0.029,0.01l-0.05,-0.016l0.029,0.01l-0.046,-0.013l0.022,0.006l-0.055,-0.012l0.029,0.006l-0.029,-0.004l-0.03,-0.004l-0.031,-0.002l-0.032,0l-0.032,0.002l-0.032,0.003l-0.032,0.004l-0.03,0.007l-0.027,0.007l1.4,0.77l-0.77,1.4l-0.056,0.017l-0.086,0.021l-0.087,0.016l-0.088,0.012l-0.088,0.007l-0.089,0.002l-0.088,-0.002l-0.088,-0.007l-0.086,-0.012l-0.084,-0.015l-0.07,-0.017l-0.012,-0.003l-0.081,-0.022l-0.077,-0.027l-0.076,-0.029l-0.072,-0.031l-0.07,-0.034l-0.068,-0.036l-0.065,-0.038l-0.063,-0.04l-0.06,-0.041l-0.059,-0.042l-0.056,-0.044l-0.055,-0.044l-0.053,-0.046l-0.051,-0.047l-0.05,-0.048l-0.049,-0.048l-0.047,-0.05l-0.046,-0.05l-0.045,-0.051l-0.044,-0.053l-0.043,-0.053l-0.042,-0.053l-0.042,-0.055l-0.04,-0.056l-0.04,-0.056l-0.04,-0.058l-0.041,-0.061l-0.074,-0.116l-0.074,-0.123l-0.073,-0.127l-0.072,-0.131l-0.07,-0.136l-0.069,-0.139l-0.068,-0.143l-0.067,-0.147l-0.066,-0.152l-0.065,-0.156l-0.065,-0.16l-0.064,-0.165l-0.063,-0.169l-0.062,-0.173l-0.062,-0.178l-0.061,-0.182l-0.06,-0.186l-0.06,-0.19l-0.059,-0.195l-0.058,-0.2l-0.058,-0.203l-0.057,-0.208l-0.056,-0.212l-0.055,-0.217l-0.033,-0.13l-0.022,-0.09l-0.053,-0.225l-0.052,-0.229l-0.052,-0.234l-0.05,-0.237l-0.05,-0.242l-0.049,-0.246l-0.048,-0.249l-0.047,-0.254l-0.046,-0.258l-0.046,-0.261l-0.044,-0.266l-0.043,-0.269l-0.042,-0.274l-0.042,-0.277l-0.04,-0.281l-0.039,-0.285l-0.038,-0.288l-0.036,-0.292l-0.036,-0.296l-0.034,-0.3l-0.034,-0.303l-0.032,-0.307l-0.03,-0.31l-0.03,-0.314l-0.028,-0.317l-0.027,-0.32l-0.025,-0.324l-0.024,-0.328l-0.022,-0.33l-0.022,-0.334l-0.019,-0.337l-0.009,-0.169l-0.009,-0.172l-0.015,-0.343l-0.014,-0.347l-0.012,-0.35l-0.01,-0.353l-0.009,-0.356l-0.008,-0.359l-0.005,-0.361l-0.004,-0.365l-0.002,-0.368l0,-0.37l0.001,-0.373l0.003,-0.376l0.005,-0.379l0.007,-0.381l0.004,-0.152l0.006,-0.232l0.012,-0.387l0.014,-0.389l0.016,-0.391l0.018,-0.394l0.021,-0.397l0.022,-0.399l0.024,-0.401l0.026,-0.404l0.029,-0.406l0.03,-0.408l0.033,-0.41l0.035,-0.413l0.038,-0.415l0.027,-0.286l0.013,-0.13l0.043,-0.419l0.046,-0.421l0.049,-0.422l0.051,-0.425l0.053,-0.426l0.055,-0.428l0.058,-0.43l0.061,-0.432l0.063,-0.434l0.065,-0.435l0.069,-0.437l0.07,-0.439l0.074,-0.44l0.023,-0.138l0.054,-0.303l0.081,-0.443l0.084,-0.444l0.087,-0.446l0.089,-0.447l0.092,-0.448l0.095,-0.449l0.098,-0.451l0.1,-0.452l0.104,-0.453l0.106,-0.454l0.109,-0.456l0.112,-0.456l0.017,-0.068l0.101,-0.389l0.121,-0.457l0.124,-0.459l0.128,-0.459l0.13,-0.46l0.133,-0.461l0.137,-0.462l0.14,-0.462l0.142,-0.463l0.146,-0.464l0.15,-0.464l0.152,-0.464l0.156,-0.465l0.159,-0.466l0.163,-0.465l0.082,-0.234l0.084,-0.233l0.084,-0.234l0.085,-0.233l0.054,-0.147l0.032,-0.087l0.088,-0.233l0.088,-0.233l0.089,-0.233l0.091,-0.234l0.091,-0.233l0.091,-0.234l0.093,-0.233l0.094,-0.234l0.094,-0.233l0.096,-0.234l0.096,-0.234l0.097,-0.233l0.098,-0.234l0.099,-0.233l0.1,-0.234l0.101,-0.234l0.101,-0.233l0.103,-0.234l0.103,-0.233l0.105,-0.234l0.105,-0.233l0.106,-0.234l0.107,-0.233l0.108,-0.233l0.109,-0.233l0.11,-0.234l0.111,-0.233l0.112,-0.233l0.113,-0.233l0.114,-0.233l0.114,-0.232l0.116,-0.233l0.116,-0.233l0.118,-0.232l0.118,-0.232l0.12,-0.233l0.12,-0.232l0.122,-0.232l0.122,-0.232l0.123,-0.231l0.125,-0.232l0.002,-0.005l0.124,-0.226l0.126,-0.231l0.128,-0.231l0.129,-0.231l0.13,-0.23l0.131,-0.23l0.131,-0.231l0.133,-0.229l0.134,-0.23l0.135,-0.23l0.136,-0.229l0.137,-0.229l0.137,-0.229l0.139,-0.229l0.14,-0.229l0.141,-0.228l0.142,-0.228l0.143,-0.228l0.144,-0.227l0.145,-0.228l0.146,-0.227l0.148,-0.226l0.148,-0.227l0.149,-0.226l0.151,-0.226l0.151,-0.226l0.152,-0.225l0.154,-0.225l0.155,-0.225l0.155,-0.225l0.157,-0.224l0.158,-0.224l0.159,-0.223l0.16,-0.224l0.161,-0.223l0.162,-0.222l0.163,-0.223l0.164,-0.221l0.166,-0.222l0.166,-0.221l0.168,-0.221l0.169,-0.221l0.17,-0.22l0.171,-0.22l0.172,-0.219l0.173,-0.219l0.174,-0.219l0.176,-0.218l0.176,-0.218l0.178,-0.217l0.179,-0.217l0.18,-0.217l0.181,-0.216l0.182,-0.215l0.184,-0.216l0.184,-0.215l0.186,-0.214l0.187,-0.214l0.188,-0.213l0.189,-0.214l0.19,-0.212l0.192,-0.212l0.193,-0.212l0.193,-0.211l0.196,-0.211l0.196,-0.21l0.197,-0.21l0.199,-0.209l0.199,-0.209l0.201,-0.208l0.202,-0.207l0.204,-0.208l0.204,-0.206l0.206,-0.206l0.207,-0.206l0.208,-0.205l0.209,-0.204l0.211,-0.204l0.212,-0.204l0.213,-0.202l0.214,-0.203l0.215,-0.201l0.217,-0.201l0.218,-0.201l0.219,-0.2l0.101,-0.092l0.119,-0.107l0.222,-0.198l0.223,-0.198l0.225,-0.197l0.225,-0.197l0.227,-0.196l0.228,-0.195l0.23,-0.195l0.23,-0.194l0.232,-0.193l0.233,-0.193l0.235,-0.192l0.235,-0.191l0.237,-0.191l0.238,-0.19l0.24,-0.19l0.24,-0.188l0.242,-0.188l0.244,-0.188l0.244,-0.186l0.246,-0.186l0.247,-0.186l0.249,-0.184l0.249,-0.184l0.251,-0.183l0.253,-0.183l0.253,-0.181l0.255,-0.181l0.257,-0.18l0.257,-0.18l0.259,-0.179l0.26,-0.177l0.262,-0.178l0.262,-0.176l0.265,-0.176l0.265,-0.175l0.267,-0.174l0.268,-0.173l0.269,-0.173l0.271,-0.171l0.272,-0.171l0.274,-0.17l0.275,-0.17l0.276,-0.168l0.277,-0.168l0.279,-0.167l0.28,-0.166l0.282,-0.165l0.283,-0.164l0.284,-0.164l0.286,-0.163l0.287,-0.161l0.289,-0.161l0.289,-0.16l0.292,-0.16l0.292,-0.158l0.294,-0.157l0.295,-0.157l0.297,-0.156l0.298,-0.154l0.3,-0.154l0.301,-0.153l0.302,-0.152l0.304,-0.152l0.305,-0.15l0.307,-0.149l0.307,-0.149l0.31,-0.147l0.311,-0.147l0.312,-0.145l0.313,-0.145l0.316,-0.144l0.316,-0.142l0.318,-0.142l0.319,-0.141l0.321,-0.14l0.322,-0.139l0.324,-0.137l0.325,-0.137l0.327,-0.136l0.328,-0.135l0.329,-0.134l0.331,-0.133l0.332,-0.132l0.334,-0.131l0.336,-0.13l0.336,-0.128l0.279,-0.106l0.06,-0.022l0.338,-0.126l1.107,0.485Z"/><path d="M108.953,73.844c5.944,13.794 -29.131,35.262 -45.723,23.617l-30.68,27.927l-15.34,-13.964l30.68,-27.927c-13.401,-31.653 35.932,-83.889 52.525,-74.88c16.14,8.763 -7.869,62.233 -23.605,75.193c4.57,-5.149 26.184,-23.796 32.143,-9.966Z" style="fill:#edd985;"/><g><clipPath id="_clip1"><path d="M108.953,73.844c5.944,13.794 -29.131,35.262 -45.723,23.617l-30.68,27.927l-15.34,-13.964l30.68,-27.927c-13.401,-31.653 35.932,-83.889 52.525,-74.88c16.14,8.763 -7.869,62.233 -23.605,75.193c4.57,-5.149 26.184,-23.796 32.143,-9.966Z"/></clipPath><g clip-path="url(#_clip1)"><path d="M7.266,103.399c64.28,-153.734 147.28,-150.286 105.722,-8.961c-4.371,14.863 -8.075,52.435 -8.075,52.435l-33.116,27.072l-64.531,-53.836l0,-16.71Z" style="fill:url(#_Linear2);"/><path d="M93.352,-5.465c0,0 -32.5,45.5 23.5,46.5" style="fill:#ecd884;"/></g></g><path d="M96.107,6.117l0.138,0.002l0.137,0.003l0.138,0.005l0.136,0.007l0.137,0.008l0.136,0.009l0.135,0.011l0.135,0.012l0.135,0.014l0.134,0.015l0.134,0.017l0.133,0.018l0.133,0.02l0.264,0.044l0.131,0.025l0.131,0.026l0.13,0.028l0.129,0.029l0.129,0.031l0.129,0.032l0.128,0.034l0.127,0.036l0.126,0.037l0.127,0.039l0.125,0.04l0.125,0.042l0.124,0.044l0.123,0.046l0.123,0.047l0.122,0.049l0.121,0.05l0.121,0.052l0.12,0.054l0.119,0.056l0.118,0.057l0.118,0.059l0.116,0.06l0.115,0.062l0.111,0.061l0.109,0.063l0.107,0.063l0.107,0.065l0.106,0.065l0.105,0.067l0.104,0.069l0.102,0.069l0.102,0.071l0.101,0.071l0.099,0.073l0.099,0.074l0.194,0.152l0.095,0.077l0.094,0.079l0.186,0.16l0.091,0.082l0.09,0.083l0.089,0.084l0.088,0.085l0.086,0.086l0.086,0.087l0.085,0.089l0.083,0.089l0.083,0.09l0.081,0.091l0.08,0.092l0.08,0.093l0.078,0.094l0.077,0.095l0.076,0.096l0.075,0.097l0.074,0.098l0.072,0.098l0.072,0.1l0.071,0.1l0.138,0.204l0.067,0.103l0.067,0.104l0.065,0.104l0.128,0.212l0.062,0.107l0.061,0.108l0.12,0.218l0.058,0.111l0.057,0.111l0.056,0.111l0.055,0.113l0.054,0.113l0.054,0.114l0.052,0.115l0.051,0.116l0.05,0.116l0.05,0.117l0.048,0.117l0.094,0.238l0.09,0.24l0.043,0.121l0.043,0.122l0.042,0.122l0.041,0.123l0.04,0.124l0.039,0.125l0.038,0.125l0.037,0.125l0.072,0.254l0.034,0.127l0.034,0.129l0.033,0.128l0.032,0.13l0.031,0.13l0.06,0.262l0.028,0.132l0.028,0.133l0.027,0.133l0.026,0.134l0.025,0.134l0.025,0.135l0.023,0.135l0.023,0.137l0.022,0.136l0.022,0.138l0.02,0.137l0.02,0.139l0.018,0.139l0.019,0.139l0.017,0.14l0.032,0.282l0.015,0.142l0.014,0.142l0.014,0.143l0.013,0.146l0.022,0.286l0.021,0.291l0.017,0.293l0.014,0.295l0.012,0.297l0.008,0.299l0.006,0.301l0.003,0.303l0,0.305l-0.003,0.307l-0.005,0.309l-0.008,0.311l-0.011,0.312l-0.014,0.315l-0.016,0.317l-0.018,0.318l-0.022,0.32l-0.023,0.322l-0.027,0.324l-0.029,0.325l-0.031,0.327l-0.034,0.329l-0.036,0.331l-0.039,0.332l-0.042,0.333l-0.043,0.336l-0.026,0.188l-0.02,0.149l-0.049,0.338l-0.051,0.34l-0.053,0.341l-0.055,0.343l-0.058,0.344l-0.06,0.346l-0.063,0.347l-0.064,0.348l-0.067,0.35l-0.069,0.351l-0.071,0.353l-0.073,0.353l-0.076,0.355l-0.077,0.356l-0.08,0.357l-0.082,0.358l-0.083,0.36l-0.086,0.36l-0.088,0.362l-0.09,0.362l-0.092,0.364l-0.093,0.364l-0.096,0.366l-0.098,0.366l-0.099,0.367l-0.102,0.368l-0.103,0.369l-0.105,0.37l-0.107,0.371l-0.109,0.371l-0.111,0.372l-0.113,0.373l-0.114,0.373l-0.116,0.374l-0.118,0.375l-0.119,0.375l-0.121,0.376l-0.123,0.376l-0.125,0.377l-0.126,0.377l-0.128,0.378l-0.129,0.378l-0.131,0.378l-0.133,0.379l-0.134,0.379l-0.136,0.38l-0.137,0.379l-0.139,0.38l-0.14,0.38l-0.142,0.381l-0.143,0.38l-0.145,0.381l-0.146,0.38l-0.147,0.381l-0.149,0.381l-0.15,0.38l-0.152,0.381l-0.153,0.381l-0.154,0.38l-0.156,0.381l-0.157,0.38l-0.158,0.38l-0.159,0.38l-0.161,0.38l-0.162,0.379l-0.163,0.379l-0.164,0.379l-0.165,0.378l-0.167,0.378l-0.167,0.378l-0.169,0.377l-0.17,0.377l-0.171,0.376l-0.172,0.376l-0.173,0.375l-0.174,0.374l-0.175,0.374l-0.176,0.374l-0.177,0.372l-0.178,0.372l-0.179,0.371l-0.18,0.371l-0.181,0.369l-0.182,0.369l-0.182,0.368l-0.184,0.367l-0.184,0.366l-0.185,0.365l-0.186,0.364l-0.186,0.363l-0.188,0.363l-0.188,0.361l-0.189,0.36l-0.19,0.359l-0.19,0.357l-0.191,0.357l-0.192,0.355l-0.192,0.354l-0.193,0.353l-0.194,0.351l-0.194,0.351l-0.195,0.348l-0.195,0.348l-0.196,0.346l-0.197,0.344l-0.197,0.343l-0.197,0.342l-0.198,0.34l-0.199,0.339l-0.198,0.336l-0.2,0.336l-0.199,0.333l-0.201,0.332l-0.2,0.33l-0.201,0.329l-0.201,0.326l-0.202,0.325l-0.202,0.323l-0.202,0.321l-0.202,0.32l-0.203,0.317l-0.203,0.315l-0.203,0.314l-0.204,0.311l-0.203,0.31l-0.204,0.307l-0.204,0.305l-0.204,0.303l-0.205,0.301l-0.204,0.299l-0.169,0.244l0.09,-0.061l0.308,-0.207l0.309,-0.205l0.311,-0.203l0.313,-0.202l0.314,-0.199l0.315,-0.198l0.316,-0.195l0.318,-0.192l0.319,-0.191l0.32,-0.187l0.32,-0.185l0.322,-0.182l0.321,-0.178l0.163,-0.089l0.161,-0.088l0.162,-0.086l0.162,-0.086l0.162,-0.085l0.162,-0.084l0.162,-0.083l0.163,-0.083l0.162,-0.081l0.163,-0.081l0.162,-0.079l0.163,-0.079l0.163,-0.077l0.162,-0.077l0.163,-0.075l0.163,-0.075l0.163,-0.073l0.163,-0.072l0.162,-0.071l0.163,-0.071l0.163,-0.069l0.163,-0.067l0.163,-0.067l0.162,-0.066l0.163,-0.064l0.162,-0.063l0.163,-0.062l0.162,-0.061l0.162,-0.059l0.162,-0.058l0.163,-0.057l0.161,-0.055l0.162,-0.055l0.162,-0.052l0.161,-0.052l0.162,-0.05l0.161,-0.049l0.161,-0.047l0.161,-0.045l0.161,-0.045l0.16,-0.043l0.16,-0.041l0.16,-0.04l0.16,-0.038l0.16,-0.036l0.159,-0.036l0.159,-0.033l0.159,-0.032l0.159,-0.03l0.158,-0.029l0.158,-0.026l0.158,-0.025l0.158,-0.024l0.157,-0.021l0.157,-0.02l0.156,-0.018l0.157,-0.017l0.156,-0.014l0.155,-0.012l0.156,-0.011l0.154,-0.009l0.155,-0.006l0.154,-0.005l0.154,-0.003l0.153,-0.001l0.153,0.002l0.152,0.003l0.152,0.006l0.152,0.007l0.151,0.01l0.151,0.012l0.15,0.014l0.149,0.017l0.149,0.018l0.149,0.021l0.148,0.024l0.147,0.025l0.147,0.028l0.146,0.031l0.145,0.032l0.145,0.036l0.144,0.037l0.143,0.041l0.143,0.042l0.141,0.046l0.141,0.048l0.14,0.05l0.139,0.053l0.138,0.056l0.138,0.058l0.136,0.061l0.135,0.064l0.134,0.066l0.134,0.069l0.132,0.072l0.131,0.074l0.129,0.077l0.129,0.08l0.127,0.083l0.126,0.085l0.125,0.088l0.124,0.091l0.122,0.094l0.12,0.096l0.12,0.1l0.118,0.102l0.116,0.104l0.115,0.108l0.114,0.11l0.111,0.113l0.111,0.116l0.109,0.118l0.107,0.121l0.106,0.124l0.104,0.127l0.102,0.129l0.101,0.133l0.099,0.134l0.097,0.138l0.096,0.14l0.095,0.144l0.092,0.145l0.071,0.116l0.02,0.033l0.089,0.151l0.087,0.154l0.086,0.157l0.084,0.16l0.082,0.162l0.081,0.165l0.079,0.168l0.077,0.171l0.072,0.167l0.241,-0.091l0.055,-0.021l0.038,0.087l0.039,0.093l0.038,0.094l0.037,0.094l0.036,0.094l0.035,0.095l0.034,0.094l0.033,0.095l0.032,0.095l0.031,0.095l0.058,0.192l0.028,0.096l0.052,0.192l0.024,0.096l0.024,0.097l0.044,0.194l0.02,0.097l0.019,0.097l0.018,0.097l0.018,0.098l0.016,0.098l0.015,0.097l0.028,0.196l0.012,0.098l0.011,0.099l0.01,0.098l0.009,0.098l0.009,0.099l0.007,0.098l0.006,0.099l0.005,0.099l0.004,0.098l0.004,0.099l0.004,0.198l0,0.099l-0.001,0.099l-0.001,0.099l-0.003,0.099l-0.003,0.099l-0.004,0.1l-0.005,0.099l-0.007,0.099l-0.007,0.099l-0.008,0.099l-0.009,0.1l-0.009,0.099l-0.011,0.099l-0.012,0.099l-0.012,0.1l-0.013,0.099l-0.015,0.099l-0.015,0.099l-0.016,0.099l-0.017,0.1l-0.018,0.101l-0.037,0.196l-0.042,0.198l-0.044,0.198l-0.049,0.198l-0.051,0.197l-0.054,0.198l-0.058,0.197l-0.061,0.197l-0.064,0.197l-0.067,0.196l-0.07,0.197l-0.073,0.196l-0.077,0.196l-0.079,0.195l-0.082,0.196l-0.085,0.195l-0.088,0.194l-0.09,0.195l-0.094,0.194l-0.096,0.194l-0.099,0.193l-0.102,0.193l-0.104,0.193l-0.107,0.193l-0.11,0.192l-0.112,0.191l-0.115,0.192l-0.117,0.191l-0.12,0.19l-0.123,0.19l-0.125,0.19l-0.127,0.19l-0.13,0.188l-0.132,0.189l-0.135,0.188l-0.137,0.188l-0.139,0.187l-0.142,0.187l-0.144,0.186l-0.146,0.186l-0.149,0.185l-0.151,0.185l-0.153,0.184l-0.155,0.184l-0.157,0.183l-0.159,0.183l-0.162,0.182l-0.164,0.181l-0.165,0.181l-0.168,0.181l-0.17,0.179l-0.172,0.18l-0.174,0.178l-0.175,0.178l-0.178,0.178l-0.18,0.176l-0.182,0.176l-0.183,0.176l-0.185,0.174l-0.188,0.174l-0.189,0.174l-0.19,0.172l-0.193,0.172l-0.194,0.171l-0.197,0.171l-0.198,0.169l-0.199,0.169l-0.147,0.123l-0.054,0.045l-0.204,0.167l-0.204,0.167l-0.207,0.165l-0.208,0.164l-0.209,0.164l-0.211,0.163l-0.213,0.162l-0.214,0.161l-0.216,0.16l-0.217,0.159l-0.219,0.159l-0.22,0.157l-0.221,0.157l-0.223,0.155l-0.225,0.155l-0.225,0.153l-0.227,0.153l-0.228,0.151l-0.23,0.15l-0.231,0.15l-0.232,0.148l-0.234,0.147l-0.234,0.147l-0.236,0.145l-0.237,0.144l-0.238,0.142l-0.239,0.142l-0.241,0.141l-0.241,0.139l-0.243,0.138l-0.244,0.137l-0.244,0.136l-0.246,0.134l-0.247,0.134l-0.248,0.132l-0.248,0.13l-0.25,0.13l-0.251,0.128l-0.251,0.127l-0.252,0.125l-0.254,0.125l-0.254,0.122l-0.255,0.122l-0.255,0.12l-0.257,0.119l-0.257,0.117l-0.258,0.116l-0.259,0.114l-0.259,0.113l-0.26,0.112l-0.261,0.11l-0.261,0.108l-0.263,0.107l-0.262,0.106l-0.264,0.104l-0.263,0.102l-0.265,0.101l-0.265,0.099l-0.265,0.098l-0.266,0.096l-0.267,0.094l-0.266,0.093l-0.268,0.091l-0.268,0.089l-0.268,0.088l-0.268,0.086l-0.269,0.084l-0.269,0.083l-0.27,0.081l-0.27,0.079l-0.27,0.077l-0.27,0.075l-0.271,0.074l-0.271,0.072l-0.271,0.07l-0.271,0.068l-0.272,0.066l-0.271,0.064l-0.272,0.062l-0.272,0.061l-0.272,0.058l-0.272,0.057l-0.272,0.054l-0.272,0.053l-0.272,0.05l-0.272,0.049l-0.272,0.046l-0.272,0.045l-0.272,0.042l-0.272,0.04l-0.272,0.038l-0.272,0.036l-0.272,0.034l-0.271,0.032l-0.271,0.029l-0.271,0.028l-0.271,0.025l-0.271,0.023l-0.27,0.02l-0.271,0.018l-0.269,0.017l-0.27,0.013l-0.269,0.012l-0.269,0.009l-0.269,0.006l-0.268,0.005l-0.268,0.001l-0.267,0l-0.267,-0.003l-0.267,-0.006l-0.266,-0.008l-0.265,-0.01l-0.265,-0.013l-0.265,-0.015l-0.263,-0.018l-0.264,-0.021l-0.262,-0.023l-0.263,-0.026l-0.261,-0.029l-0.261,-0.031l-0.26,-0.034l-0.259,-0.036l-0.101,-0.016l-0.158,-0.024l-0.258,-0.042l-0.257,-0.045l-0.256,-0.048l-0.255,-0.051l-0.255,-0.054l-0.254,-0.056l-0.252,-0.059l-0.252,-0.063l-0.251,-0.065l-0.25,-0.068l-0.249,-0.071l-0.248,-0.074l-0.247,-0.077l-0.245,-0.08l-0.243,-0.082l-0.124,-0.044l-0.121,-0.043l-0.122,-0.044l-0.121,-0.045l-0.12,-0.046l-0.121,-0.046l-0.12,-0.048l-0.12,-0.048l-0.119,-0.049l-0.119,-0.049l-0.119,-0.051l-0.119,-0.051l-0.118,-0.052l-0.118,-0.053l-0.117,-0.054l-0.117,-0.054l-0.117,-0.056l-0.116,-0.056l-0.117,-0.057l-0.115,-0.057l-0.116,-0.059l-0.115,-0.059l-0.114,-0.06l-0.115,-0.061l-0.113,-0.062l-0.114,-0.062l-0.113,-0.064l-0.113,-0.064l-0.112,-0.065l-0.061,-0.036l-7.448,6.832l-15.887,14.562l-6.316,5.772l-0.234,0.182l-0.261,0.141l-0.281,0.096l-0.294,0.05l-0.297,0.001l-0.294,-0.048l-0.282,-0.095l-0.263,-0.14l-0.236,-0.182l-8.443,-7.657l-6.912,-6.29l-0.209,-0.224l-0.168,-0.255l-0.124,-0.28l-0.076,-0.297l-0.025,-0.305l0.025,-0.305l0.076,-0.296l0.123,-0.281l0.169,-0.255l0.208,-0.225l7.264,-6.616l0.036,0.039l22.5,-20.481l-0.002,-0.005l-0.073,-0.201l-0.072,-0.201l-0.07,-0.202l-0.069,-0.202l-0.067,-0.203l-0.066,-0.203l-0.064,-0.204l-0.063,-0.203l-0.061,-0.205l-0.06,-0.204l-0.058,-0.206l-0.057,-0.205l-0.056,-0.206l-0.054,-0.206l-0.052,-0.207l-0.051,-0.206l-0.05,-0.208l-0.048,-0.207l-0.047,-0.208l-0.045,-0.209l-0.044,-0.208l-0.043,-0.209l-0.041,-0.21l-0.04,-0.209l-0.038,-0.21l-0.037,-0.21l-0.035,-0.211l-0.035,-0.211l-0.032,-0.211l-0.032,-0.211l-0.03,-0.212l-0.028,-0.212l-0.028,-0.212l-0.026,-0.213l-0.024,-0.212l-0.024,-0.213l-0.022,-0.214l-0.02,-0.213l-0.02,-0.214l-0.017,-0.214l-0.017,-0.215l-0.016,-0.214l-0.014,-0.215l-0.012,-0.215l-0.012,-0.215l-0.01,-0.216l-0.009,-0.215l-0.008,-0.216l-0.006,-0.216l-0.005,-0.216l-0.004,-0.217l-0.002,-0.217l-0.002,-0.217l0,-0.217l0.001,-0.217l0.003,-0.217l0.003,-0.218l0.005,-0.218l0.006,-0.218l0.007,-0.218l0.009,-0.218l0.01,-0.218l0.01,-0.219l0.012,-0.219l0.014,-0.219l0.014,-0.219l0.016,-0.219l0.016,-0.219l0.018,-0.22l0.019,-0.219l0.021,-0.22l0.021,-0.22l0.022,-0.22l0.024,-0.22l0.025,-0.22l0.026,-0.22l0.027,-0.221l0.028,-0.22l0.029,-0.221l0.031,-0.22l0.031,-0.221l0.033,-0.221l0.033,-0.221l0.035,-0.221l0.036,-0.221l0.037,-0.221l0.038,-0.221l0.039,-0.222l0.04,-0.221l0.041,-0.222l0.042,-0.221l0.044,-0.222l0.044,-0.221l0.045,-0.222l0.047,-0.222l0.047,-0.221l0.048,-0.222l0.05,-0.222l0.05,-0.222l0.052,-0.222l0.052,-0.222l0.054,-0.221l0.054,-0.222l0.056,-0.222l0.056,-0.222l0.058,-0.222l0.058,-0.222l0.059,-0.222l0.061,-0.222l0.061,-0.222l0.062,-0.222l0.063,-0.222l0.064,-0.222l0.066,-0.222l0.066,-0.222l0.066,-0.222l0.068,-0.222l0.069,-0.222l0.07,-0.222l0.07,-0.221l0.072,-0.222l0.072,-0.222l0.074,-0.221l0.074,-0.222l0.075,-0.222l0.076,-0.221l0.077,-0.222l0.078,-0.221l0.078,-0.221l0.08,-0.222l0.08,-0.221l0.082,-0.221l0.082,-0.221l0.083,-0.221l0.083,-0.221l0.085,-0.22l0.085,-0.221l0.087,-0.221l0.087,-0.22l0.088,-0.221l0.089,-0.22l0.089,-0.22l0.091,-0.22l0.091,-0.22l0.092,-0.22l0.092,-0.22l0.094,-0.219l0.095,-0.221l0.19,-0.437l0.195,-0.438l0.197,-0.438l0.2,-0.437l0.203,-0.436l0.206,-0.435l0.21,-0.435l0.212,-0.435l0.214,-0.433l0.218,-0.433l0.067,-0.131l0.154,-0.301l0.223,-0.431l0.226,-0.43l0.229,-0.429l0.232,-0.428l0.234,-0.428l0.236,-0.426l0.24,-0.426l0.241,-0.424l0.244,-0.424l0.247,-0.422l0.249,-0.422l0.251,-0.42l0.254,-0.419l0.256,-0.418l0.258,-0.417l0.261,-0.416l0.262,-0.414l0.265,-0.413l0.267,-0.412l0.269,-0.41l0.271,-0.409l0.273,-0.408l0.275,-0.406l0.278,-0.405l0.278,-0.404l0.281,-0.402l0.283,-0.4l0.285,-0.399l0.286,-0.397l0.288,-0.396l0.29,-0.394l0.291,-0.393l0.293,-0.39l0.295,-0.389l0.297,-0.388l0.297,-0.385l0.3,-0.384l0.301,-0.382l0.302,-0.38l0.304,-0.378l0.305,-0.377l0.306,-0.374l0.308,-0.372l0.309,-0.371l0.311,-0.368l0.311,-0.367l0.313,-0.364l0.314,-0.362l0.315,-0.36l0.316,-0.358l0.317,-0.356l0.318,-0.354l0.319,-0.351l0.321,-0.349l0.321,-0.347l0.321,-0.344l0.323,-0.342l0.324,-0.34l0.324,-0.338l0.325,-0.334l0.326,-0.333l0.327,-0.33l0.327,-0.327l0.328,-0.325l0.328,-0.322l0.329,-0.32l0.329,-0.317l0.33,-0.315l0.331,-0.311l0.331,-0.309l0.331,-0.307l0.332,-0.303l0.332,-0.301l0.332,-0.298l0.332,-0.295l0.333,-0.292l0.333,-0.289l0.333,-0.287l0.334,-0.283l0.333,-0.28l0.334,-0.278l0.333,-0.274l0.334,-0.271l0.333,-0.268l0.334,-0.265l0.333,-0.262l0.333,-0.259l0.334,-0.255l0.333,-0.252l0.333,-0.249l0.332,-0.246l0.332,-0.242l0.333,-0.239l0.331,-0.235l0.332,-0.232l0.331,-0.229l0.33,-0.225l0.331,-0.222l0.329,-0.218l0.33,-0.215l0.328,-0.21l0.328,-0.208l0.328,-0.203l0.327,-0.2l0.326,-0.197l0.326,-0.192l0.325,-0.189l0.325,-0.185l0.323,-0.181l0.323,-0.178l0.322,-0.173l0.32,-0.169l0.162,-0.084l0.16,-0.082l0.16,-0.081l0.159,-0.081l0.16,-0.079l0.159,-0.078l0.159,-0.077l0.159,-0.077l0.158,-0.075l0.159,-0.074l0.158,-0.073l0.158,-0.072l0.157,-0.071l0.157,-0.07l0.158,-0.069l0.156,-0.068l0.157,-0.067l0.156,-0.066l0.156,-0.065l0.156,-0.064l0.156,-0.062l0.155,-0.062l0.155,-0.06l0.155,-0.06l0.154,-0.058l0.154,-0.057l0.154,-0.057l0.154,-0.055l0.153,-0.054l0.153,-0.052l0.153,-0.052l0.153,-0.051l0.152,-0.049l0.152,-0.048l0.151,-0.048l0.152,-0.046l0.151,-0.045l0.15,-0.043l0.151,-0.043l0.15,-0.041l0.149,-0.041l0.15,-0.039l0.149,-0.038l0.149,-0.036l0.148,-0.036l0.149,-0.034l0.147,-0.033l0.148,-0.032l0.147,-0.031l0.147,-0.029l0.147,-0.028l0.146,-0.027l0.146,-0.026l0.145,-0.025l0.145,-0.023l0.145,-0.022l0.145,-0.021l0.144,-0.019l0.144,-0.018l0.143,-0.017l0.143,-0.016l0.143,-0.014l0.142,-0.013l0.142,-0.011l0.142,-0.011l0.141,-0.008l0.141,-0.008l0.14,-0.006l0.14,-0.005l0.14,-0.003l0.139,-0.002l0.139,-0.001l0.139,0.001Zm-46.433,77.22l0.004,0.275l-0.038,0.273l-0.08,0.263l-0.119,0.248l-0.155,0.227l-0.189,0.201l-20.725,18.934l-8.426,7.666l-0.001,0l5.836,5.313l-0.002,0.002l6.771,6.19l0,0.005l7.42,-6.754l0.004,0.025l15.263,-13.794l6.865,-6.189l0.224,-0.171l0.249,-0.13l0.268,-0.087l0.278,-0.041l0.281,0.006l0.275,0.054l0.263,0.098l0.242,0.142l0.093,0.064l0.087,0.061l0.088,0.06l0.089,0.06l0.088,0.058l0.089,0.058l0.09,0.058l0.09,0.057l0.09,0.056l0.182,0.11l0.184,0.108l0.092,0.053l0.092,0.052l0.093,0.052l0.094,0.051l0.188,0.1l0.094,0.049l0.095,0.048l0.096,0.048l0.095,0.047l0.096,0.047l0.097,0.046l0.194,0.09l0.097,0.044l0.098,0.044l0.099,0.043l0.098,0.042l0.099,0.041l0.1,0.041l0.099,0.041l0.1,0.04l0.101,0.039l0.303,0.114l0.1,0.036l0.207,0.072l0.206,0.07l0.207,0.066l0.209,0.065l0.21,0.062l0.212,0.06l0.212,0.057l0.214,0.055l0.216,0.053l0.216,0.05l0.218,0.048l0.219,0.046l0.22,0.043l0.221,0.041l0.223,0.039l0.137,0.022l0.087,0.015l0.224,0.034l0.226,0.032l0.227,0.03l0.228,0.028l0.229,0.025l0.23,0.024l0.231,0.021l0.232,0.018l0.233,0.017l0.233,0.014l0.235,0.012l0.236,0.01l0.236,0.008l0.238,0.005l0.238,0.004l0.239,0.001l0.239,-0.001l0.241,-0.003l0.241,-0.005l0.242,-0.007l0.243,-0.01l0.243,-0.011l0.244,-0.014l0.244,-0.015l0.245,-0.018l0.246,-0.02l0.246,-0.021l0.247,-0.024l0.247,-0.026l0.247,-0.028l0.249,-0.03l0.248,-0.031l0.249,-0.034l0.249,-0.036l0.25,-0.037l0.25,-0.04l0.25,-0.041l0.251,-0.044l0.25,-0.045l0.252,-0.047l0.251,-0.049l0.251,-0.051l0.252,-0.053l0.251,-0.054l0.252,-0.057l0.252,-0.058l0.252,-0.06l0.252,-0.062l0.252,-0.063l0.252,-0.065l0.252,-0.067l0.252,-0.069l0.252,-0.07l0.252,-0.072l0.252,-0.074l0.251,-0.076l0.251,-0.077l0.252,-0.079l0.25,-0.08l0.251,-0.082l0.251,-0.084l0.25,-0.085l0.25,-0.087l0.249,-0.088l0.249,-0.09l0.249,-0.091l0.248,-0.093l0.248,-0.094l0.248,-0.096l0.247,-0.098l0.246,-0.099l0.246,-0.1l0.246,-0.102l0.244,-0.103l0.245,-0.104l0.243,-0.106l0.243,-0.107l0.243,-0.109l0.242,-0.11l0.241,-0.111l0.24,-0.113l0.239,-0.114l0.239,-0.115l0.238,-0.116l0.237,-0.118l0.237,-0.119l0.235,-0.12l0.234,-0.122l0.234,-0.122l0.233,-0.124l0.232,-0.125l0.23,-0.126l0.23,-0.127l0.229,-0.128l0.228,-0.13l0.226,-0.13l0.226,-0.132l0.224,-0.132l0.224,-0.134l0.222,-0.134l0.221,-0.136l0.219,-0.137l0.219,-0.137l0.217,-0.139l0.216,-0.14l0.215,-0.14l0.213,-0.141l0.212,-0.143l0.211,-0.143l0.209,-0.144l0.208,-0.145l0.207,-0.146l0.205,-0.146l0.203,-0.147l0.202,-0.148l0.201,-0.149l0.199,-0.15l0.197,-0.15l0.196,-0.151l0.194,-0.152l0.193,-0.153l0.191,-0.153l0.051,-0.042l0.138,-0.112l0.188,-0.154l0.186,-0.155l0.184,-0.155l0.183,-0.156l0.18,-0.157l0.179,-0.157l0.177,-0.157l0.176,-0.159l0.173,-0.158l0.171,-0.159l0.17,-0.16l0.168,-0.16l0.165,-0.161l0.164,-0.161l0.162,-0.161l0.159,-0.162l0.158,-0.162l0.155,-0.162l0.154,-0.163l0.151,-0.163l0.149,-0.163l0.147,-0.164l0.145,-0.164l0.143,-0.164l0.14,-0.164l0.138,-0.164l0.136,-0.165l0.134,-0.165l0.131,-0.165l0.129,-0.164l0.127,-0.166l0.124,-0.165l0.122,-0.165l0.12,-0.165l0.117,-0.165l0.115,-0.165l0.112,-0.166l0.11,-0.165l0.107,-0.165l0.105,-0.165l0.102,-0.164l0.1,-0.165l0.097,-0.164l0.094,-0.165l0.092,-0.164l0.09,-0.164l0.086,-0.163l0.084,-0.164l0.082,-0.163l0.079,-0.162l0.076,-0.163l0.073,-0.162l0.071,-0.161l0.068,-0.162l0.065,-0.16l0.063,-0.161l0.06,-0.16l0.057,-0.159l0.054,-0.159l0.051,-0.158l0.049,-0.158l0.046,-0.158l0.043,-0.156l0.041,-0.157l0.037,-0.155l0.035,-0.155l0.033,-0.157l0.014,-0.075l0.014,-0.076l0.014,-0.077l0.013,-0.077l0.012,-0.076l0.011,-0.076l0.011,-0.076l0.01,-0.076l0.009,-0.076l0.009,-0.075l0.008,-0.075l0.007,-0.076l0.006,-0.075l0.006,-0.074l0.005,-0.075l0.004,-0.075l0.004,-0.074l0.003,-0.074l0.002,-0.074l0.002,-0.074l0,-0.074l0.001,-0.073l-0.001,-0.074l-0.001,-0.073l-0.003,-0.073l-0.002,-0.073l-0.004,-0.072l-0.004,-0.073l-0.005,-0.072l-0.006,-0.073l-0.006,-0.072l-0.007,-0.072l-0.008,-0.072l-0.009,-0.071l-0.009,-0.072l-0.01,-0.071l-0.011,-0.071l-0.011,-0.072l-0.012,-0.071l-0.013,-0.07l-0.014,-0.071l-0.015,-0.071l-0.015,-0.07l-0.016,-0.07l-0.016,-0.071l-0.018,-0.07l-0.016,-0.062l-0.002,-0.008l-0.019,-0.07l-0.02,-0.069l-0.02,-0.07l-0.021,-0.069l-0.023,-0.07l-0.022,-0.069l-0.024,-0.069l-0.024,-0.069l-0.026,-0.069l-0.026,-0.069l-0.026,-0.069l-0.028,-0.069l-0.031,-0.075l0.291,-0.123l-0.064,-0.143l-0.067,-0.145l-0.068,-0.141l-0.069,-0.139l-0.07,-0.135l-0.071,-0.132l-0.072,-0.13l-0.073,-0.126l-0.074,-0.123l-0.017,-0.027l-0.058,-0.094l-0.076,-0.118l-0.077,-0.114l-0.078,-0.112l-0.079,-0.11l-0.079,-0.106l-0.081,-0.104l-0.081,-0.101l-0.082,-0.098l-0.083,-0.096l-0.084,-0.093l-0.085,-0.091l-0.086,-0.088l-0.086,-0.086l-0.087,-0.083l-0.088,-0.081l-0.089,-0.079l-0.089,-0.076l-0.09,-0.074l-0.092,-0.071l-0.092,-0.07l-0.092,-0.067l-0.094,-0.065l-0.094,-0.063l-0.096,-0.06l-0.096,-0.059l-0.097,-0.057l-0.097,-0.054l-0.099,-0.053l-0.1,-0.05l-0.1,-0.049l-0.101,-0.046l-0.102,-0.045l-0.103,-0.043l-0.105,-0.041l-0.104,-0.039l-0.106,-0.037l-0.107,-0.035l-0.108,-0.034l-0.109,-0.031l-0.109,-0.03l-0.111,-0.028l-0.112,-0.027l-0.112,-0.024l-0.114,-0.023l-0.114,-0.021l-0.116,-0.019l-0.116,-0.017l-0.117,-0.016l-0.119,-0.013l-0.119,-0.013l-0.12,-0.01l-0.121,-0.009l-0.122,-0.007l-0.123,-0.005l-0.124,-0.003l-0.125,-0.002l-0.126,0l-0.126,0.002l-0.128,0.003l-0.128,0.005l-0.129,0.007l-0.13,0.008l-0.131,0.01l-0.131,0.011l-0.133,0.014l-0.133,0.015l-0.134,0.016l-0.134,0.018l-0.136,0.02l-0.136,0.021l-0.137,0.023l-0.137,0.025l-0.138,0.026l-0.139,0.027l-0.14,0.029l-0.14,0.031l-0.141,0.032l-0.141,0.034l-0.142,0.035l-0.142,0.037l-0.143,0.038l-0.144,0.039l-0.144,0.041l-0.145,0.043l-0.145,0.043l-0.145,0.046l-0.146,0.046l-0.147,0.048l-0.147,0.049l-0.147,0.051l-0.148,0.052l-0.148,0.053l-0.148,0.055l-0.149,0.056l-0.149,0.057l-0.15,0.058l-0.149,0.06l-0.151,0.06l-0.15,0.062l-0.151,0.064l-0.15,0.064l-0.152,0.065l-0.151,0.067l-0.151,0.068l-0.152,0.069l-0.152,0.07l-0.152,0.071l-0.153,0.072l-0.152,0.073l-0.152,0.074l-0.153,0.075l-0.153,0.077l-0.153,0.077l-0.152,0.078l-0.153,0.079l-0.153,0.08l-0.153,0.081l-0.153,0.082l-0.153,0.082l-0.153,0.084l-0.153,0.084l-0.152,0.085l-0.307,0.174l-0.306,0.176l-0.305,0.179l-0.304,0.182l-0.304,0.184l-0.303,0.188l-0.303,0.189l-0.301,0.192l-0.3,0.195l-0.3,0.196l-0.298,0.198l-0.296,0.201l-0.296,0.201l-0.294,0.204l-0.292,0.204l-0.29,0.206l-0.289,0.208l-0.286,0.208l-0.285,0.209l-0.282,0.21l-0.281,0.21l-0.278,0.211l-0.275,0.211l-0.273,0.211l-0.271,0.212l-0.267,0.211l-0.265,0.212l-0.262,0.21l-0.259,0.211l-0.256,0.21l-0.253,0.209l-0.25,0.208l-0.246,0.207l-0.242,0.206l-0.239,0.205l-0.235,0.204l-0.232,0.201l-0.228,0.201l-0.08,0.071l-0.126,0.141l-0.201,0.223l-0.201,0.219l-0.201,0.217l-0.2,0.213l-0.201,0.211l-0.199,0.207l-0.2,0.204l-0.199,0.201l-0.198,0.198l-0.198,0.194l-0.198,0.191l-0.198,0.188l-0.196,0.184l-0.197,0.181l-0.196,0.177l-0.196,0.175l-0.195,0.17l-0.195,0.167l-0.194,0.164l-0.19,0.157l-0.153,0.107l-0.169,0.08l-0.18,0.052l-0.186,0.02l-0.187,-0.01l-0.183,-0.041l-0.173,-0.071l-0.159,-0.098l-0.141,-0.124l-0.118,-0.145l-0.092,-0.162l-0.065,-0.176l-0.034,-0.184l-0.004,-0.187l0.028,-0.185l0.058,-0.178l0.086,-0.166l0.113,-0.149l0.114,-0.126l0.122,-0.134l0.129,-0.138l0.134,-0.142l0.14,-0.147l0.145,-0.15l0.151,-0.154l0.156,-0.157l0.161,-0.162l0.167,-0.165l0.172,-0.169l0.178,-0.171l0.182,-0.176l0.187,-0.178l0.192,-0.181l0.197,-0.184l0.202,-0.187l0.206,-0.189l0.211,-0.192l0.215,-0.195l0.159,-0.142l0.089,-0.098l0.19,-0.215l0.191,-0.217l0.191,-0.22l0.192,-0.224l0.193,-0.226l0.192,-0.23l0.194,-0.232l0.193,-0.236l0.194,-0.239l0.195,-0.241l0.194,-0.244l0.195,-0.248l0.195,-0.25l0.196,-0.253l0.196,-0.255l0.196,-0.258l0.196,-0.261l0.196,-0.264l0.197,-0.266l0.196,-0.269l0.197,-0.272l0.197,-0.274l0.197,-0.276l0.197,-0.279l0.197,-0.282l0.198,-0.283l0.197,-0.287l0.197,-0.288l0.197,-0.291l0.197,-0.293l0.197,-0.295l0.197,-0.298l0.197,-0.3l0.197,-0.301l0.197,-0.304l0.196,-0.307l0.197,-0.308l0.196,-0.31l0.196,-0.312l0.195,-0.314l0.196,-0.316l0.195,-0.318l0.195,-0.32l0.194,-0.322l0.195,-0.323l0.194,-0.325l0.193,-0.327l0.194,-0.329l0.192,-0.33l0.193,-0.332l0.192,-0.334l0.191,-0.335l0.191,-0.337l0.191,-0.338l0.19,-0.34l0.19,-0.341l0.189,-0.343l0.188,-0.344l0.188,-0.345l0.188,-0.347l0.187,-0.348l0.186,-0.349l0.185,-0.351l0.185,-0.351l0.184,-0.353l0.184,-0.354l0.183,-0.356l0.182,-0.356l0.181,-0.357l0.181,-0.358l0.179,-0.36l0.179,-0.36l0.179,-0.361l0.177,-0.362l0.176,-0.363l0.176,-0.364l0.175,-0.365l0.174,-0.365l0.173,-0.366l0.172,-0.367l0.171,-0.368l0.17,-0.368l0.169,-0.368l0.168,-0.37l0.167,-0.37l0.166,-0.37l0.165,-0.371l0.164,-0.371l0.162,-0.372l0.162,-0.372l0.161,-0.373l0.159,-0.372l0.158,-0.374l0.157,-0.373l0.156,-0.374l0.155,-0.374l0.153,-0.374l0.152,-0.374l0.151,-0.374l0.15,-0.374l0.148,-0.375l0.147,-0.374l0.145,-0.375l0.145,-0.374l0.143,-0.374l0.141,-0.374l0.14,-0.374l0.139,-0.374l0.137,-0.374l0.136,-0.373l0.134,-0.373l0.133,-0.373l0.131,-0.373l0.13,-0.372l0.128,-0.371l0.127,-0.372l0.125,-0.371l0.124,-0.37l0.121,-0.37l0.121,-0.369l0.118,-0.369l0.117,-0.368l0.115,-0.367l0.114,-0.367l0.112,-0.366l0.11,-0.365l0.108,-0.364l0.107,-0.364l0.105,-0.363l0.103,-0.362l0.101,-0.361l0.099,-0.36l0.098,-0.359l0.095,-0.358l0.094,-0.357l0.092,-0.356l0.09,-0.355l0.088,-0.353l0.086,-0.353l0.084,-0.351l0.082,-0.35l0.08,-0.349l0.078,-0.347l0.076,-0.346l0.074,-0.345l0.072,-0.343l0.069,-0.342l0.068,-0.34l0.066,-0.339l0.063,-0.338l0.061,-0.335l0.06,-0.334l0.056,-0.333l0.055,-0.331l0.053,-0.329l0.05,-0.327l0.048,-0.325l0.046,-0.324l0.043,-0.322l0.019,-0.141l0.023,-0.179l0.039,-0.318l0.037,-0.316l0.034,-0.314l0.032,-0.312l0.03,-0.309l0.028,-0.308l0.025,-0.306l0.022,-0.303l0.02,-0.301l0.018,-0.299l0.015,-0.297l0.013,-0.294l0.011,-0.292l0.008,-0.29l0.005,-0.287l0.003,-0.284l0.001,-0.282l-0.003,-0.28l-0.004,-0.277l-0.007,-0.274l-0.01,-0.272l-0.012,-0.269l-0.015,-0.266l-0.017,-0.263l-0.02,-0.261l-0.023,-0.259l-0.012,-0.126l-0.013,-0.127l-0.013,-0.126l-0.014,-0.126l-0.015,-0.124l-0.016,-0.125l-0.016,-0.123l-0.016,-0.122l-0.018,-0.122l-0.018,-0.121l-0.018,-0.12l-0.02,-0.12l-0.02,-0.118l-0.02,-0.118l-0.022,-0.117l-0.021,-0.116l-0.023,-0.116l-0.023,-0.115l-0.024,-0.113l-0.025,-0.113l-0.025,-0.113l-0.026,-0.111l-0.026,-0.111l-0.027,-0.109l-0.028,-0.109l-0.028,-0.108l-0.029,-0.108l-0.03,-0.106l-0.03,-0.106l-0.031,-0.104l-0.031,-0.104l-0.033,-0.103l-0.033,-0.102l-0.033,-0.101l-0.034,-0.101l-0.035,-0.099l-0.035,-0.099l-0.036,-0.098l-0.037,-0.096l-0.037,-0.096l-0.038,-0.096l-0.038,-0.094l-0.039,-0.093l-0.04,-0.093l-0.041,-0.091l-0.041,-0.091l-0.041,-0.09l-0.042,-0.088l-0.043,-0.088l-0.044,-0.087l-0.044,-0.087l-0.044,-0.085l-0.046,-0.084l-0.046,-0.084l-0.046,-0.082l-0.047,-0.082l-0.048,-0.081l-0.048,-0.08l-0.049,-0.079l-0.05,-0.078l-0.05,-0.077l-0.051,-0.076l-0.051,-0.076l-0.052,-0.074l-0.053,-0.074l-0.053,-0.073l-0.054,-0.072l-0.054,-0.071l-0.055,-0.07l-0.056,-0.069l-0.056,-0.069l-0.057,-0.067l-0.058,-0.067l-0.058,-0.066l-0.059,-0.064l-0.059,-0.065l-0.061,-0.063l-0.06,-0.062l-0.062,-0.062l-0.062,-0.06l-0.063,-0.06l-0.063,-0.059l-0.064,-0.059l-0.065,-0.057l-0.065,-0.057l-0.067,-0.055l-0.066,-0.055l-0.068,-0.054l-0.068,-0.054l-0.069,-0.052l-0.07,-0.052l-0.071,-0.05l-0.071,-0.05l-0.072,-0.05l-0.073,-0.048l-0.073,-0.048l-0.074,-0.047l-0.076,-0.046l-0.076,-0.045l-0.076,-0.044l-0.078,-0.044l-0.078,-0.042l-0.08,-0.042l-0.08,-0.041l-0.08,-0.04l-0.082,-0.039l-0.082,-0.037l-0.083,-0.037l-0.083,-0.035l-0.084,-0.034l-0.085,-0.033l-0.086,-0.033l-0.086,-0.031l-0.087,-0.03l-0.088,-0.029l-0.088,-0.027l-0.089,-0.027l-0.09,-0.026l-0.091,-0.025l-0.092,-0.023l-0.092,-0.023l-0.093,-0.021l-0.094,-0.021l-0.094,-0.019l-0.096,-0.019l-0.096,-0.017l-0.097,-0.016l-0.097,-0.015l-0.099,-0.014l-0.099,-0.013l-0.1,-0.012l-0.101,-0.011l-0.101,-0.009l-0.103,-0.009l-0.103,-0.007l-0.104,-0.007l-0.105,-0.005l-0.105,-0.004l-0.106,-0.003l-0.107,-0.002l-0.108,-0.001l-0.108,0l-0.11,0.001l-0.11,0.003l-0.11,0.003l-0.112,0.005l-0.112,0.006l-0.113,0.006l-0.114,0.008l-0.114,0.009l-0.115,0.011l-0.116,0.011l-0.117,0.012l-0.117,0.014l-0.118,0.015l-0.119,0.016l-0.119,0.016l-0.12,0.019l-0.121,0.019l-0.121,0.02l-0.122,0.021l-0.123,0.023l-0.123,0.024l-0.124,0.024l-0.124,0.026l-0.126,0.027l-0.125,0.028l-0.127,0.03l-0.127,0.03l-0.128,0.032l-0.128,0.032l-0.129,0.034l-0.129,0.035l-0.13,0.036l-0.131,0.037l-0.131,0.038l-0.132,0.039l-0.132,0.04l-0.133,0.042l-0.133,0.042l-0.134,0.044l-0.135,0.045l-0.135,0.046l-0.135,0.047l-0.136,0.048l-0.137,0.049l-0.137,0.05l-0.137,0.051l-0.138,0.052l-0.138,0.054l-0.139,0.054l-0.14,0.056l-0.14,0.056l-0.14,0.058l-0.141,0.059l-0.141,0.06l-0.141,0.06l-0.143,0.062l-0.142,0.063l-0.143,0.064l-0.143,0.065l-0.144,0.066l-0.144,0.067l-0.145,0.069l-0.145,0.069l-0.145,0.07l-0.146,0.071l-0.146,0.072l-0.146,0.074l-0.147,0.074l-0.147,0.075l-0.147,0.076l-0.148,0.078l-0.147,0.077l-0.299,0.161l-0.298,0.163l-0.3,0.168l-0.301,0.171l-0.303,0.175l-0.303,0.179l-0.305,0.183l-0.305,0.187l-0.307,0.19l-0.307,0.194l-0.309,0.198l-0.309,0.202l-0.31,0.205l-0.311,0.209l-0.311,0.212l-0.313,0.216l-0.313,0.219l-0.313,0.223l-0.315,0.227l-0.315,0.23l-0.315,0.233l-0.316,0.236l-0.316,0.24l-0.317,0.244l-0.317,0.246l-0.317,0.25l-0.318,0.253l-0.318,0.256l-0.318,0.26l-0.318,0.262l-0.319,0.266l-0.318,0.269l-0.319,0.271l-0.318,0.275l-0.319,0.278l-0.319,0.281l-0.318,0.283l-0.318,0.287l-0.319,0.289l-0.318,0.292l-0.318,0.295l-0.317,0.298l-0.317,0.3l-0.317,0.304l-0.317,0.306l-0.316,0.308l-0.316,0.311l-0.315,0.314l-0.314,0.316l-0.315,0.319l-0.313,0.321l-0.313,0.324l-0.312,0.326l-0.312,0.329l-0.311,0.331l-0.31,0.333l-0.309,0.336l-0.309,0.338l-0.307,0.34l-0.307,0.342l-0.306,0.345l-0.304,0.347l-0.304,0.349l-0.303,0.35l-0.301,0.354l-0.301,0.355l-0.299,0.357l-0.298,0.359l-0.297,0.361l-0.296,0.363l-0.294,0.364l-0.293,0.367l-0.292,0.368l-0.29,0.371l-0.289,0.372l-0.288,0.373l-0.286,0.376l-0.284,0.377l-0.283,0.379l-0.281,0.38l-0.279,0.382l-0.278,0.383l-0.276,0.385l-0.275,0.387l-0.272,0.388l-0.271,0.389l-0.269,0.391l-0.267,0.392l-0.265,0.393l-0.264,0.395l-0.261,0.396l-0.259,0.397l-0.257,0.398l-0.255,0.4l-0.253,0.401l-0.251,0.401l-0.249,0.403l-0.246,0.404l-0.244,0.405l-0.242,0.406l-0.239,0.407l-0.237,0.408l-0.235,0.408l-0.232,0.41l-0.23,0.41l-0.228,0.411l-0.224,0.412l-0.223,0.413l-0.219,0.413l-0.217,0.414l-0.215,0.415l-0.211,0.415l-0.145,0.289l-0.064,0.127l-0.207,0.416l-0.203,0.417l-0.201,0.417l-0.198,0.418l-0.195,0.418l-0.192,0.418l-0.189,0.419l-0.186,0.419l-0.183,0.419l-0.181,0.421l-0.088,0.209l-0.088,0.21l-0.088,0.21l-0.086,0.21l-0.086,0.21l-0.085,0.21l-0.084,0.21l-0.083,0.21l-0.083,0.21l-0.081,0.211l-0.081,0.21l-0.08,0.21l-0.079,0.21l-0.079,0.211l-0.077,0.21l-0.077,0.21l-0.076,0.21l-0.075,0.211l-0.074,0.21l-0.074,0.21l-0.072,0.21l-0.072,0.21l-0.071,0.21l-0.07,0.21l-0.069,0.21l-0.068,0.21l-0.067,0.21l-0.066,0.21l-0.066,0.21l-0.065,0.209l-0.063,0.21l-0.063,0.21l-0.062,0.209l-0.061,0.21l-0.06,0.209l-0.059,0.209l-0.059,0.209l-0.057,0.209l-0.056,0.209l-0.056,0.209l-0.054,0.209l-0.054,0.209l-0.053,0.208l-0.051,0.209l-0.051,0.208l-0.05,0.208l-0.049,0.208l-0.048,0.208l-0.047,0.208l-0.046,0.207l-0.045,0.208l-0.044,0.207l-0.043,0.207l-0.042,0.207l-0.041,0.207l-0.04,0.207l-0.039,0.206l-0.039,0.206l-0.037,0.207l-0.036,0.205l-0.035,0.206l-0.034,0.206l-0.033,0.205l-0.032,0.205l-0.031,0.205l-0.03,0.205l-0.029,0.204l-0.028,0.205l-0.027,0.204l-0.026,0.204l-0.025,0.203l-0.024,0.204l-0.022,0.203l-0.022,0.203l-0.021,0.202l-0.019,0.203l-0.019,0.202l-0.017,0.202l-0.017,0.202l-0.015,0.201l-0.014,0.201l-0.013,0.201l-0.012,0.2l-0.011,0.201l-0.01,0.2l-0.009,0.199l-0.008,0.2l-0.006,0.199l-0.006,0.199l-0.004,0.198l-0.003,0.199l-0.003,0.198l-0.001,0.197l0,0.198l0.002,0.197l0.002,0.196l0.003,0.196l0.005,0.197l0.006,0.195l0.007,0.196l0.008,0.195l0.009,0.194l0.01,0.194l0.011,0.194l0.013,0.194l0.014,0.193l0.015,0.193l0.016,0.193l0.017,0.192l0.018,0.192l0.02,0.191l0.021,0.191l0.022,0.191l0.023,0.19l0.024,0.19l0.025,0.19l0.027,0.189l0.028,0.188l0.029,0.189l0.03,0.188l0.032,0.187l0.032,0.188l0.034,0.186l0.035,0.187l0.037,0.186l0.037,0.185l0.039,0.185l0.04,0.185l0.041,0.184l0.086,0.368l0.045,0.183l0.094,0.364l0.049,0.182l0.05,0.181l0.051,0.181l0.052,0.181l0.054,0.18l0.055,0.179l0.056,0.179l0.058,0.179l0.059,0.178l0.06,0.178l0.061,0.177l0.063,0.177l0.064,0.176l0.065,0.176l0.067,0.176l0.067,0.175l0.14,0.348l0.072,0.174l0.076,0.179l0.086,0.261l0.001,0l0.003,0.022l0.042,0.249Z"/></g><defs><linearGradient id="_Linear2" x1="0" y1="0" x2="1" y2="0" gradientUnits="userSpaceOnUse" gradientTransform="matrix(-71.7716,67.4473,-67.4473,-71.7716,96.1245,50.0883)"><stop offset="0" style="stop-color:#e8d167;stop-opacity:1"/><stop offset="0.56" style="stop-color:#d8c262;stop-opacity:1"/><stop offset="1" style="stop-color:#9a864d;stop-opacity:1"/></linearGradient></defs></svg>