<?xml version="1.0" encoding="UTF-8" standalone="no"?><!DOCTYPE svg PUBLIC "-//W3C//DTD SVG 1.1//EN" "http://www.w3.org/Graphics/SVG/1.1/DTD/svg11.dtd"><svg width="100%" height="100%" viewBox="0 0 127 132" version="1.1" xmlns="http://www.w3.org/2000/svg" xmlns:xlink="http://www.w3.org/1999/xlink" xml:space="preserve" xmlns:serif="http://www.serif.com/" style="fill-rule:evenodd;clip-rule:evenodd;stroke-linejoin:round;stroke-miterlimit:1.41421;"><g id="Layer1"><path d="M121.746,2.146c-3.807,24.543 -6.978,48.487 -38.272,66.032l40.664,40.664l-20.332,20.332l-40.664,-40.664l-40.664,40.664l-20.332,-20.332l40.664,-40.664c-23.591,-14.573 -36.204,-36.482 -37.381,-66.032c22.875,1.681 42.391,21.472 56.84,54.549c10.796,-24.142 27.698,-48.69 59.477,-54.549Z" style="fill:#fff;"/><clipPath id="_clip1"><path d="M121.746,2.146c-3.807,24.543 -6.978,48.487 -38.272,66.032l40.664,40.664l-20.332,20.332l-40.664,-40.664l-40.664,40.664l-20.332,-20.332l40.664,-40.664c-23.591,-14.573 -36.204,-36.482 -37.381,-66.032c22.875,1.681 42.391,21.472 56.84,54.549c10.796,-24.142 27.698,-48.69 59.477,-54.549Z"/></clipPath><g clip-path="url(#_clip1)"><path d="M2.146,51.531l17.772,8.218c0,0 39.57,-29.077 58.66,-14.539c19.089,14.539 21.618,12.643 28.571,15.803c6.953,3.161 55.626,-82.596 3.16,-74.8c-52.465,7.796 -101.137,-41.298 -113.78,0c-12.642,41.298 5.617,65.318 5.617,65.318Z" style="fill:url(#_Linear2);"/><path d="M9.172,79.547c34.976,-40.877 70.796,-40.877 107.459,0l7.507,-10.43c0,0 -55.061,-71.429 -121.992,-3.161l7.026,13.591Z" style="fill:#e99a6e;"/><path d="M80.524,87.426c21.894,12.878 35.434,26.556 43.614,40.748c0,0 -25.025,-9.457 -43.614,-40.748" style="fill:#ecbf7a;"/><path d="M45.171,86.162c-21.894,12.878 -35.434,26.556 -43.614,40.748c0,0 25.025,-9.457 43.614,-40.748" style="fill:#ecbf7a;"/></g><path d="M5.808,0.776l0.276,0.023l0.276,0.025l0.276,0.027l0.275,0.029l0.275,0.03l0.275,0.032l0.274,0.034l0.274,0.035l0.273,0.038l0.274,0.038l0.273,0.041l0.272,0.042l0.273,0.044l0.185,0.031l0.087,0.015l0.271,0.047l0.271,0.049l0.271,0.051l0.271,0.052l0.27,0.054l0.27,0.056l0.27,0.057l0.269,0.059l0.269,0.061l0.268,0.062l0.268,0.064l0.268,0.066l0.267,0.067l0.267,0.069l0.267,0.071l0.266,0.072l0.266,0.074l0.266,0.076l0.265,0.077l0.265,0.079l0.265,0.08l0.264,0.083l0.264,0.083l0.263,0.086l0.263,0.087l0.263,0.089l0.262,0.09l0.262,0.092l0.262,0.093l0.261,0.096l0.26,0.096l0.261,0.099l0.26,0.1l0.26,0.102l0.259,0.103l0.259,0.105l0.258,0.106l0.258,0.108l0.258,0.11l0.257,0.111l0.257,0.113l0.257,0.114l0.256,0.116l0.256,0.118l0.255,0.119l0.255,0.121l0.255,0.122l0.254,0.124l0.254,0.125l0.253,0.127l0.253,0.129l0.253,0.13l0.252,0.132l0.252,0.133l0.251,0.135l0.251,0.137l0.251,0.138l0.25,0.139l0.25,0.141l0.249,0.143l0.249,0.144l0.249,0.146l0.248,0.147l0.247,0.149l0.248,0.15l0.247,0.152l0.246,0.153l0.246,0.155l0.246,0.157l0.245,0.158l0.245,0.159l0.245,0.161l0.244,0.163l0.244,0.164l0.243,0.165l0.243,0.167l0.242,0.169l0.242,0.17l0.242,0.172l0.241,0.173l0.241,0.174l0.24,0.176l0.24,0.178l0.239,0.179l0.24,0.181l0.238,0.182l0.238,0.183l0.238,0.185l0.238,0.187l0.237,0.188l0.236,0.189l0.236,0.191l0.236,0.193l0.236,0.193l0.234,0.196l0.235,0.197l0.234,0.198l0.234,0.2l0.233,0.201l0.233,0.203l0.232,0.204l0.232,0.205l0.231,0.207l0.231,0.209l0.231,0.21l0.23,0.211l0.23,0.213l0.23,0.214l0.228,0.216l0.229,0.217l0.228,0.218l0.228,0.22l0.227,0.222l0.227,0.223l0.226,0.224l0.226,0.226l0.226,0.227l0.225,0.229l0.225,0.23l0.224,0.231l0.224,0.233l0.223,0.234l0.223,0.236l0.222,0.237l0.223,0.238l0.221,0.24l0.221,0.241l0.221,0.243l0.221,0.244l0.219,0.246l0.22,0.246l0.219,0.249l0.219,0.249l0.218,0.251l0.218,0.253l0.217,0.254l0.217,0.255l0.216,0.257l0.216,0.258l0.216,0.259l0.215,0.261l0.215,0.262l0.214,0.263l0.214,0.265l0.213,0.266l0.213,0.268l0.213,0.269l0.212,0.27l0.211,0.272l0.212,0.273l0.21,0.275l0.211,0.275l0.21,0.278l0.209,0.278l0.209,0.28l0.209,0.281l0.208,0.283l0.207,0.284l0.208,0.285l0.206,0.287l0.207,0.287l0.206,0.29l0.205,0.29l0.205,0.292l0.205,0.294l0.204,0.294l0.203,0.296l0.204,0.298l0.202,0.298l0.203,0.3l0.202,0.301l0.201,0.303l0.201,0.304l0.201,0.305l0.2,0.307l0.199,0.308l0.2,0.309l0.198,0.31l0.199,0.312l0.198,0.313l0.197,0.315l0.197,0.315l0.196,0.317l0.197,0.319l0.195,0.319l0.195,0.321l0.195,0.323l0.194,0.323l0.194,0.325l0.193,0.326l0.193,0.328l0.193,0.328l0.192,0.33l0.191,0.332l0.191,0.332l0.191,0.334l0.19,0.335l0.19,0.337l0.189,0.337l0.189,0.339l0.188,0.34l0.188,0.342l0.187,0.343l0.187,0.344l0.187,0.345l0.186,0.347l0.185,0.347l0.185,0.35l0.185,0.35l0.184,0.352l0.184,0.352l0.183,0.355l0.183,0.355l0.182,0.357l0.182,0.358l0.181,0.359l0.181,0.36l0.181,0.362l0.18,0.363l0.179,0.364l0.179,0.365l0.179,0.367l0.178,0.367l0.177,0.37l0.178,0.37l0.176,0.371l0.176,0.373l0.176,0.374l0.176,0.375l0.174,0.377l0.175,0.377l0.174,0.379l0.173,0.38l0.173,0.382l0.131,0.291l0.207,-0.442l0.269,-0.569l0.271,-0.569l0.274,-0.568l0.277,-0.569l0.278,-0.568l0.282,-0.568l0.284,-0.567l0.286,-0.567l0.289,-0.566l0.292,-0.566l0.294,-0.565l0.297,-0.565l0.3,-0.563l0.303,-0.563l0.305,-0.562l0.308,-0.562l0.311,-0.56l0.313,-0.558l0.158,-0.28l0.159,-0.279l0.159,-0.279l0.161,-0.278l0.16,-0.278l0.162,-0.278l0.162,-0.278l0.163,-0.277l0.164,-0.277l0.165,-0.276l0.165,-0.276l0.166,-0.276l0.167,-0.276l0.167,-0.275l0.169,-0.275l0.169,-0.274l0.17,-0.274l0.17,-0.274l0.172,-0.273l0.172,-0.273l0.173,-0.272l0.174,-0.272l0.174,-0.272l0.175,-0.271l0.177,-0.271l0.176,-0.27l0.178,-0.27l0.179,-0.27l0.179,-0.269l0.18,-0.268l0.181,-0.268l0.182,-0.268l0.183,-0.267l0.183,-0.266l0.184,-0.267l0.185,-0.265l0.186,-0.265l0.187,-0.265l0.188,-0.264l0.188,-0.263l0.189,-0.263l0.19,-0.262l0.191,-0.262l0.192,-0.262l0.193,-0.26l0.194,-0.26l0.194,-0.26l0.195,-0.259l0.197,-0.258l0.197,-0.258l0.198,-0.257l0.198,-0.256l0.2,-0.256l0.201,-0.256l0.201,-0.254l0.203,-0.254l0.203,-0.253l0.204,-0.253l0.205,-0.252l0.206,-0.251l0.207,-0.251l0.208,-0.25l0.209,-0.249l0.209,-0.249l0.211,-0.247l0.212,-0.247l0.212,-0.247l0.213,-0.245l0.215,-0.245l0.215,-0.244l0.216,-0.244l0.217,-0.242l0.219,-0.242l0.219,-0.241l0.22,-0.241l0.221,-0.239l0.222,-0.239l0.223,-0.238l0.223,-0.237l0.225,-0.236l0.226,-0.236l0.227,-0.234l0.228,-0.234l0.229,-0.233l0.229,-0.232l0.231,-0.232l0.232,-0.23l0.233,-0.229l0.234,-0.229l0.234,-0.228l0.236,-0.227l0.237,-0.226l0.238,-0.225l0.239,-0.224l0.24,-0.223l0.24,-0.222l0.242,-0.222l0.243,-0.22l0.244,-0.219l0.245,-0.219l0.246,-0.217l0.247,-0.217l0.249,-0.215l0.249,-0.215l0.25,-0.214l0.251,-0.212l0.253,-0.212l0.253,-0.21l0.255,-0.21l0.255,-0.208l0.257,-0.208l0.258,-0.206l0.258,-0.206l0.26,-0.204l0.261,-0.203l0.262,-0.202l0.263,-0.201l0.265,-0.2l0.265,-0.199l0.266,-0.198l0.268,-0.197l0.268,-0.195l0.27,-0.195l0.271,-0.193l0.272,-0.192l0.273,-0.191l0.274,-0.19l0.275,-0.189l0.277,-0.187l0.277,-0.187l0.279,-0.185l0.28,-0.184l0.281,-0.183l0.282,-0.181l0.283,-0.181l0.285,-0.179l0.285,-0.178l0.287,-0.177l0.288,-0.175l0.289,-0.174l0.29,-0.173l0.291,-0.172l0.292,-0.17l0.294,-0.17l0.295,-0.168l0.296,-0.166l0.297,-0.165l0.298,-0.164l0.3,-0.163l0.301,-0.162l0.302,-0.16l0.303,-0.158l0.304,-0.158l0.305,-0.156l0.307,-0.154l0.308,-0.154l0.309,-0.152l0.31,-0.15l0.312,-0.149l0.313,-0.148l0.314,-0.147l0.315,-0.145l0.316,-0.143l0.318,-0.143l0.318,-0.14l0.321,-0.14l0.321,-0.138l0.322,-0.136l0.324,-0.135l0.325,-0.134l0.326,-0.132l0.328,-0.13l0.329,-0.129l0.33,-0.128l0.331,-0.126l0.332,-0.125l0.334,-0.123l0.335,-0.121l0.336,-0.121l0.338,-0.118l0.339,-0.117l0.34,-0.116l0.341,-0.113l0.343,-0.113l0.344,-0.111l0.345,-0.109l0.346,-0.108l0.348,-0.106l0.349,-0.104l0.35,-0.103l0.352,-0.101l0.353,-0.1l0.354,-0.098l0.356,-0.096l0.357,-0.095l0.358,-0.093l0.359,-0.092l0.361,-0.09l0.362,-0.088l0.364,-0.086l0.364,-0.085l0.366,-0.083l0.368,-0.082l0.208,-0.045l0.161,-0.035l0.37,-0.078l0.371,-0.076l0.373,-0.075l0.374,-0.072l0.375,-0.072l0.375,-0.069l0.167,-0.016l0.167,0.013l0.163,0.041l0.153,0.069l0.139,0.094l0.121,0.117l0.098,0.136l0.074,0.151l0.047,0.161l0.017,0.167l-0.011,0.168l-0.957,-0.148l1.269,0.196l-0.264,1.765l-0.081,0.536l-0.173,1.15l-0.174,1.149l-0.176,1.148l-0.089,0.575l-0.089,0.573l-0.091,0.574l-0.091,0.573l-0.092,0.573l-0.094,0.573l-0.094,0.573l-0.096,0.572l-0.096,0.572l-0.099,0.571l-0.099,0.571l-0.102,0.571l-0.103,0.571l-0.104,0.57l-0.107,0.57l-0.108,0.569l-0.11,0.569l-0.113,0.568l-0.114,0.568l-0.117,0.567l-0.119,0.567l-0.121,0.567l-0.124,0.566l-0.126,0.565l-0.129,0.565l-0.132,0.564l-0.135,0.563l-0.137,0.562l-0.07,0.283l-0.071,0.281l-0.071,0.281l-0.072,0.28l-0.073,0.281l-0.074,0.28l-0.075,0.281l-0.075,0.28l-0.076,0.28l-0.077,0.279l-0.078,0.28l-0.079,0.279l-0.08,0.279l-0.08,0.279l-0.082,0.279l-0.082,0.279l-0.084,0.278l-0.084,0.278l-0.085,0.278l-0.086,0.278l-0.087,0.278l-0.088,0.277l-0.089,0.278l-0.09,0.277l-0.091,0.276l-0.092,0.277l-0.093,0.276l-0.094,0.276l-0.096,0.276l-0.096,0.276l-0.097,0.276l-0.098,0.275l-0.035,0.095l-0.065,0.18l-0.101,0.274l-0.102,0.275l-0.103,0.274l-0.104,0.274l-0.105,0.274l-0.106,0.273l-0.108,0.274l-0.109,0.272l-0.11,0.273l-0.111,0.273l-0.112,0.272l-0.114,0.272l-0.115,0.271l-0.116,0.272l-0.117,0.271l-0.119,0.271l-0.119,0.27l-0.122,0.271l-0.122,0.27l-0.124,0.27l-0.125,0.269l-0.126,0.269l-0.128,0.269l-0.129,0.269l-0.13,0.268l-0.132,0.268l-0.133,0.267l-0.135,0.268l-0.136,0.267l-0.137,0.266l-0.139,0.267l-0.14,0.266l-0.142,0.266l-0.143,0.265l-0.144,0.265l-0.146,0.265l-0.148,0.264l-0.149,0.265l-0.15,0.263l-0.152,0.264l-0.154,0.263l-0.155,0.262l-0.156,0.263l-0.159,0.262l-0.159,0.262l-0.162,0.261l-0.162,0.261l-0.165,0.26l-0.166,0.26l-0.168,0.26l-0.169,0.26l-0.171,0.259l-0.173,0.258l-0.174,0.259l-0.176,0.258l-0.177,0.257l-0.18,0.257l-0.181,0.257l-0.182,0.256l-0.185,0.256l-0.186,0.256l-0.188,0.255l-0.189,0.254l-0.192,0.255l-0.193,0.253l-0.195,0.254l-0.196,0.253l-0.199,0.252l-0.2,0.253l-0.202,0.251l-0.204,0.251l-0.206,0.251l-0.208,0.251l-0.209,0.25l-0.211,0.249l-0.214,0.249l-0.215,0.249l-0.217,0.248l-0.218,0.247l-0.221,0.248l-0.223,0.246l-0.224,0.247l-0.227,0.245l-0.229,0.246l-0.23,0.245l-0.232,0.244l-0.235,0.244l-0.236,0.243l-0.239,0.243l-0.24,0.243l-0.243,0.242l-0.244,0.241l-0.246,0.241l-0.249,0.24l-0.251,0.24l-0.252,0.24l-0.255,0.239l-0.257,0.238l-0.259,0.238l-0.261,0.237l-0.263,0.237l-0.265,0.236l-0.267,0.236l-0.27,0.236l-0.272,0.234l-0.273,0.235l-0.276,0.233l-0.278,0.233l-0.281,0.233l-0.282,0.232l-0.285,0.232l-0.287,0.231l-0.289,0.23l-0.292,0.23l-0.293,0.229l-0.296,0.229l-0.298,0.228l-0.301,0.228l-0.303,0.227l-0.305,0.227l-0.307,0.226l-0.31,0.225l-0.312,0.225l-0.314,0.224l-0.317,0.224l-0.319,0.223l-0.321,0.223l-0.324,0.222l-0.326,0.221l-0.328,0.221l-0.331,0.221l-0.333,0.219l-0.336,0.219l-0.338,0.219l-0.341,0.218l-0.343,0.217l-0.345,0.217l-0.348,0.216l-0.351,0.215l-0.353,0.215l-0.355,0.215l-0.331,0.197l21.702,21.581l17.569,17.494l0.181,0.211l0.146,0.236l0.108,0.257l0.066,0.271l0.022,0.278l-0.021,0.278l-0.064,0.271l-0.106,0.259l-0.145,0.238l-0.181,0.213l-4.253,4.27l-16.051,16.09l-0.243,0.204l-0.275,0.159l-0.298,0.109l-0.312,0.056l-0.318,0.001l-0.313,-0.055l-0.299,-0.108l-0.276,-0.159l-0.244,-0.204l-6.809,-6.791l-23.515,-23.506l0.002,-0.017l-9.051,-9.052l0,-0.004l-24.146,24.095l-15.278,15.225l-0.235,0.195l-0.265,0.152l-0.287,0.104l-0.301,0.052l-0.305,-0.001l-0.3,-0.053l-0.286,-0.105l-0.263,-0.153l-0.233,-0.197l-20.3,-20.363l-0.19,-0.228l-0.148,-0.257l-0.1,-0.278l-0.051,-0.292l0.001,-0.296l0.052,-0.291l0.102,-0.278l0.148,-0.256l0.191,-0.225l3.817,-3.805l0.077,0.076l35.464,-35.464l-0.262,-0.171l-0.273,-0.18l-0.272,-0.18l-0.272,-0.181l-0.27,-0.181l-0.269,-0.182l-0.268,-0.183l-0.267,-0.184l-0.266,-0.184l-0.265,-0.185l-0.264,-0.186l-0.263,-0.186l-0.262,-0.187l-0.261,-0.188l-0.26,-0.188l-0.259,-0.189l-0.257,-0.19l-0.257,-0.191l-0.256,-0.191l-0.255,-0.192l-0.254,-0.192l-0.253,-0.194l-0.252,-0.194l-0.251,-0.194l-0.249,-0.196l-0.249,-0.196l-0.248,-0.197l-0.247,-0.197l-0.246,-0.198l-0.244,-0.199l-0.244,-0.2l-0.243,-0.2l-0.242,-0.201l-0.24,-0.202l-0.24,-0.202l-0.239,-0.203l-0.237,-0.204l-0.237,-0.204l-0.235,-0.205l-0.235,-0.206l-0.233,-0.207l-0.233,-0.207l-0.231,-0.208l-0.231,-0.209l-0.229,-0.209l-0.229,-0.21l-0.227,-0.211l-0.227,-0.211l-0.225,-0.212l-0.224,-0.213l-0.224,-0.214l-0.222,-0.214l-0.221,-0.215l-0.22,-0.216l-0.22,-0.216l-0.218,-0.217l-0.217,-0.218l-0.216,-0.218l-0.215,-0.219l-0.214,-0.22l-0.213,-0.221l-0.212,-0.221l-0.211,-0.222l-0.21,-0.222l-0.209,-0.224l-0.208,-0.224l-0.207,-0.224l-0.205,-0.226l-0.205,-0.226l-0.204,-0.227l-0.203,-0.227l-0.201,-0.229l-0.201,-0.228l-0.2,-0.23l-0.198,-0.23l-0.198,-0.231l-0.196,-0.232l-0.196,-0.232l-0.194,-0.234l-0.193,-0.233l-0.193,-0.235l-0.191,-0.235l-0.19,-0.236l-0.19,-0.237l-0.188,-0.237l-0.187,-0.238l-0.186,-0.238l-0.185,-0.24l-0.184,-0.24l-0.183,-0.241l-0.182,-0.241l-0.181,-0.242l-0.18,-0.243l-0.179,-0.244l-0.177,-0.244l-0.177,-0.245l-0.176,-0.246l-0.174,-0.246l-0.174,-0.247l-0.173,-0.248l-0.171,-0.248l-0.171,-0.249l-0.169,-0.25l-0.168,-0.251l-0.168,-0.251l-0.166,-0.252l-0.165,-0.252l-0.164,-0.254l-0.163,-0.254l-0.163,-0.254l-0.161,-0.256l-0.16,-0.256l-0.158,-0.256l-0.158,-0.258l-0.157,-0.258l-0.156,-0.259l-0.155,-0.259l-0.153,-0.261l-0.153,-0.26l-0.152,-0.262l-0.15,-0.262l-0.15,-0.263l-0.148,-0.264l-0.147,-0.264l-0.147,-0.265l-0.145,-0.266l-0.144,-0.267l-0.143,-0.267l-0.142,-0.268l-0.141,-0.268l-0.14,-0.269l-0.139,-0.27l-0.138,-0.271l-0.137,-0.271l-0.136,-0.272l-0.134,-0.273l-0.134,-0.273l-0.133,-0.274l-0.131,-0.275l-0.131,-0.275l-0.129,-0.276l-0.129,-0.277l-0.127,-0.277l-0.126,-0.278l-0.125,-0.279l-0.124,-0.28l-0.124,-0.28l-0.122,-0.281l-0.121,-0.282l-0.119,-0.282l-0.119,-0.283l-0.118,-0.283l-0.117,-0.285l-0.115,-0.285l-0.115,-0.285l-0.114,-0.287l-0.112,-0.287l-0.112,-0.288l-0.11,-0.288l-0.109,-0.289l-0.108,-0.29l-0.108,-0.29l-0.106,-0.292l-0.105,-0.291l-0.104,-0.293l-0.103,-0.293l-0.102,-0.294l-0.101,-0.295l-0.099,-0.295l-0.099,-0.296l-0.098,-0.296l-0.096,-0.298l-0.096,-0.298l-0.094,-0.298l-0.094,-0.3l-0.092,-0.3l-0.091,-0.301l-0.091,-0.301l-0.089,-0.302l-0.088,-0.303l-0.087,-0.303l-0.086,-0.304l-0.085,-0.305l-0.084,-0.306l-0.082,-0.306l-0.082,-0.307l-0.081,-0.307l-0.079,-0.308l-0.079,-0.309l-0.077,-0.31l-0.077,-0.31l-0.075,-0.311l-0.074,-0.312l-0.074,-0.312l-0.072,-0.313l-0.071,-0.314l-0.07,-0.314l-0.069,-0.315l-0.068,-0.316l-0.067,-0.316l-0.066,-0.317l-0.064,-0.318l-0.064,-0.318l-0.063,-0.319l-0.061,-0.32l-0.061,-0.32l-0.059,-0.322l-0.058,-0.321l-0.058,-0.323l-0.056,-0.323l-0.055,-0.324l-0.054,-0.324l-0.053,-0.325l-0.052,-0.326l-0.051,-0.327l-0.05,-0.327l-0.049,-0.328l-0.047,-0.329l-0.047,-0.329l-0.046,-0.33l-0.044,-0.33l-0.044,-0.332l-0.042,-0.332l-0.041,-0.332l-0.041,-0.334l-0.039,-0.334l-0.038,-0.334l-0.037,-0.336l-0.036,-0.336l-0.035,-0.337l-0.034,-0.337l-0.033,-0.338l-0.032,-0.339l-0.03,-0.339l-0.03,-0.34l-0.029,-0.341l-0.027,-0.342l-0.027,-0.342l-0.025,-0.343l-0.024,-0.343l-0.024,-0.344l-0.022,-0.345l-0.021,-0.346l-0.02,-0.346l-0.019,-0.347l-0.018,-0.347l-0.017,-0.349l-0.016,-0.349l-0.015,-0.349l-0.013,-0.348l0.01,-0.236l0.049,-0.23l0.088,-0.218l0.123,-0.201l0.155,-0.177l0.182,-0.149l0.205,-0.116l0.222,-0.079l0.231,-0.042l0.236,-0.002l0.272,0.022Zm114.294,2.687l-0.36,0.078l-0.156,0.035l-0.203,0.045l-0.357,0.081l-0.356,0.083l-0.354,0.084l-0.353,0.086l-0.352,0.088l-0.351,0.089l-0.349,0.091l-0.348,0.092l-0.346,0.094l-0.345,0.095l-0.344,0.098l-0.343,0.098l-0.341,0.1l-0.34,0.102l-0.338,0.103l-0.338,0.105l-0.336,0.106l-0.335,0.108l-0.333,0.11l-0.332,0.11l-0.331,0.113l-0.33,0.114l-0.328,0.115l-0.327,0.117l-0.326,0.118l-0.325,0.12l-0.323,0.121l-0.322,0.122l-0.321,0.125l-0.32,0.125l-0.318,0.127l-0.317,0.128l-0.316,0.13l-0.315,0.131l-0.313,0.133l-0.312,0.134l-0.311,0.135l-0.31,0.137l-0.309,0.138l-0.307,0.14l-0.306,0.14l-0.305,0.143l-0.304,0.143l-0.302,0.145l-0.302,0.146l-0.3,0.148l-0.299,0.149l-0.298,0.15l-0.296,0.152l-0.296,0.152l-0.294,0.154l-0.293,0.156l-0.292,0.157l-0.291,0.158l-0.29,0.159l-0.288,0.16l-0.287,0.162l-0.287,0.163l-0.285,0.164l-0.283,0.166l-0.283,0.167l-0.282,0.168l-0.28,0.169l-0.28,0.17l-0.278,0.172l-0.277,0.173l-0.276,0.174l-0.275,0.175l-0.274,0.176l-0.273,0.178l-0.271,0.178l-0.271,0.18l-0.269,0.181l-0.268,0.182l-0.268,0.184l-0.266,0.184l-0.265,0.186l-0.264,0.186l-0.263,0.188l-0.261,0.189l-0.261,0.19l-0.26,0.191l-0.259,0.193l-0.257,0.193l-0.257,0.194l-0.255,0.196l-0.255,0.196l-0.253,0.198l-0.252,0.198l-0.252,0.2l-0.25,0.201l-0.249,0.201l-0.248,0.203l-0.247,0.204l-0.247,0.205l-0.245,0.206l-0.244,0.206l-0.243,0.208l-0.242,0.209l-0.241,0.21l-0.24,0.21l-0.239,0.212l-0.238,0.213l-0.237,0.213l-0.237,0.215l-0.235,0.215l-0.234,0.217l-0.233,0.217l-0.232,0.218l-0.231,0.22l-0.231,0.22l-0.229,0.221l-0.228,0.221l-0.227,0.223l-0.227,0.224l-0.225,0.224l-0.225,0.226l-0.223,0.226l-0.223,0.227l-0.221,0.228l-0.221,0.229l-0.22,0.23l-0.219,0.23l-0.217,0.231l-0.217,0.233l-0.216,0.232l-0.216,0.234l-0.214,0.235l-0.213,0.235l-0.212,0.236l-0.212,0.237l-0.21,0.238l-0.21,0.238l-0.209,0.239l-0.207,0.24l-0.207,0.241l-0.206,0.241l-0.206,0.242l-0.204,0.243l-0.203,0.244l-0.203,0.244l-0.201,0.245l-0.201,0.246l-0.2,0.246l-0.199,0.247l-0.198,0.248l-0.197,0.248l-0.197,0.249l-0.195,0.25l-0.195,0.251l-0.194,0.251l-0.193,0.251l-0.192,0.253l-0.192,0.252l-0.19,0.254l-0.19,0.254l-0.189,0.255l-0.188,0.255l-0.187,0.256l-0.186,0.257l-0.186,0.257l-0.184,0.257l-0.184,0.259l-0.184,0.259l-0.182,0.259l-0.181,0.26l-0.181,0.26l-0.18,0.261l-0.179,0.262l-0.178,0.262l-0.178,0.262l-0.177,0.263l-0.176,0.264l-0.175,0.264l-0.174,0.264l-0.174,0.265l-0.173,0.266l-0.172,0.265l-0.171,0.267l-0.17,0.267l-0.17,0.267l-0.169,0.268l-0.169,0.268l-0.167,0.268l-0.167,0.269l-0.166,0.27l-0.165,0.269l-0.165,0.271l-0.164,0.27l-0.163,0.271l-0.162,0.271l-0.162,0.272l-0.161,0.272l-0.16,0.272l-0.159,0.273l-0.159,0.273l-0.158,0.274l-0.158,0.273l-0.156,0.275l-0.156,0.274l-0.155,0.275l-0.155,0.275l-0.153,0.274l-0.306,0.552l-0.303,0.553l-0.301,0.554l-0.297,0.554l-0.295,0.556l-0.292,0.556l-0.29,0.557l-0.287,0.558l-0.284,0.559l-0.282,0.559l-0.28,0.56l-0.277,0.561l-0.274,0.561l-0.272,0.561l-0.27,0.562l-0.267,0.563l-0.265,0.562l-0.262,0.563l-0.26,0.563l-0.258,0.563l-0.256,0.563l-0.253,0.563l-0.252,0.565l-0.094,0.17l-0.121,0.153l-0.145,0.131l-0.164,0.106l-0.179,0.077l-0.189,0.047l-0.194,0.015l-0.195,-0.017l-0.189,-0.048l-0.178,-0.079l-0.163,-0.107l-0.143,-0.132l-0.12,-0.154l-0.093,-0.172l-0.17,-0.386l-0.17,-0.383l-0.17,-0.381l-0.171,-0.381l-0.171,-0.379l-0.172,-0.378l-0.172,-0.377l-0.173,-0.376l-0.173,-0.374l-0.173,-0.373l-0.174,-0.372l-0.175,-0.371l-0.175,-0.369l-0.175,-0.368l-0.176,-0.367l-0.176,-0.366l-0.176,-0.364l-0.177,-0.363l-0.178,-0.362l-0.178,-0.36l-0.178,-0.36l-0.179,-0.358l-0.179,-0.356l-0.18,-0.356l-0.18,-0.354l-0.181,-0.353l-0.181,-0.352l-0.181,-0.35l-0.182,-0.349l-0.182,-0.348l-0.183,-0.347l-0.183,-0.345l-0.183,-0.344l-0.184,-0.343l-0.185,-0.341l-0.184,-0.34l-0.186,-0.339l-0.185,-0.338l-0.186,-0.336l-0.187,-0.335l-0.187,-0.334l-0.187,-0.332l-0.188,-0.331l-0.188,-0.33l-0.189,-0.328l-0.189,-0.327l-0.189,-0.326l-0.19,-0.325l-0.19,-0.323l-0.191,-0.322l-0.191,-0.32l-0.191,-0.32l-0.192,-0.318l-0.193,-0.316l-0.192,-0.316l-0.193,-0.314l-0.194,-0.312l-0.194,-0.311l-0.194,-0.31l-0.195,-0.309l-0.195,-0.307l-0.196,-0.306l-0.195,-0.305l-0.197,-0.303l-0.197,-0.302l-0.197,-0.301l-0.197,-0.299l-0.198,-0.298l-0.199,-0.297l-0.198,-0.295l-0.199,-0.294l-0.2,-0.292l-0.2,-0.292l-0.2,-0.289l-0.201,-0.289l-0.201,-0.287l-0.201,-0.286l-0.202,-0.284l-0.203,-0.283l-0.202,-0.282l-0.203,-0.28l-0.204,-0.279l-0.203,-0.278l-0.205,-0.276l-0.204,-0.274l-0.205,-0.274l-0.206,-0.272l-0.205,-0.271l-0.206,-0.269l-0.207,-0.268l-0.207,-0.266l-0.207,-0.265l-0.208,-0.264l-0.207,-0.263l-0.209,-0.26l-0.209,-0.26l-0.209,-0.258l-0.209,-0.257l-0.21,-0.255l-0.21,-0.254l-0.211,-0.253l-0.211,-0.251l-0.211,-0.25l-0.212,-0.248l-0.212,-0.247l-0.212,-0.246l-0.213,-0.244l-0.213,-0.243l-0.214,-0.241l-0.213,-0.24l-0.215,-0.238l-0.214,-0.237l-0.215,-0.236l-0.215,-0.234l-0.216,-0.233l-0.216,-0.231l-0.217,-0.23l-0.216,-0.229l-0.217,-0.227l-0.218,-0.226l-0.217,-0.224l-0.219,-0.223l-0.218,-0.221l-0.219,-0.22l-0.219,-0.218l-0.22,-0.217l-0.219,-0.216l-0.221,-0.214l-0.22,-0.213l-0.221,-0.211l-0.221,-0.21l-0.222,-0.208l-0.222,-0.207l-0.222,-0.206l-0.223,-0.204l-0.222,-0.202l-0.224,-0.201l-0.223,-0.2l-0.224,-0.198l-0.224,-0.197l-0.225,-0.195l-0.225,-0.194l-0.225,-0.192l-0.226,-0.191l-0.226,-0.19l-0.226,-0.187l-0.227,-0.187l-0.226,-0.185l-0.228,-0.183l-0.227,-0.183l-0.228,-0.18l-0.228,-0.179l-0.229,-0.178l-0.229,-0.176l-0.229,-0.175l-0.229,-0.173l-0.23,-0.172l-0.23,-0.17l-0.231,-0.168l-0.23,-0.168l-0.231,-0.165l-0.232,-0.165l-0.231,-0.163l-0.232,-0.161l-0.233,-0.16l-0.232,-0.158l-0.233,-0.157l-0.234,-0.155l-0.233,-0.154l-0.234,-0.152l-0.234,-0.151l-0.235,-0.149l-0.235,-0.148l-0.235,-0.146l-0.235,-0.145l-0.236,-0.143l-0.236,-0.142l-0.236,-0.141l-0.237,-0.138l-0.237,-0.138l-0.237,-0.135l-0.237,-0.135l-0.238,-0.132l-0.238,-0.131l-0.239,-0.13l-0.239,-0.128l-0.239,-0.127l-0.239,-0.125l-0.24,-0.124l-0.24,-0.122l-0.24,-0.12l-0.24,-0.12l-0.241,-0.117l-0.241,-0.116l-0.242,-0.115l-0.241,-0.112l-0.242,-0.112l-0.243,-0.11l-0.242,-0.108l-0.243,-0.107l-0.243,-0.105l-0.244,-0.104l-0.243,-0.102l-0.245,-0.101l-0.244,-0.099l-0.245,-0.098l-0.244,-0.096l-0.246,-0.094l-0.245,-0.093l-0.246,-0.092l-0.246,-0.09l-0.246,-0.088l-0.247,-0.087l-0.247,-0.085l-0.247,-0.084l-0.248,-0.082l-0.248,-0.081l-0.248,-0.079l-0.248,-0.077l-0.249,-0.076l-0.249,-0.075l-0.249,-0.073l-0.25,-0.071l-0.25,-0.07l-0.25,-0.068l-0.25,-0.066l-0.251,-0.066l-0.251,-0.063l-0.252,-0.062l-0.251,-0.06l-0.252,-0.059l-0.252,-0.057l-0.253,-0.056l-0.253,-0.054l-0.253,-0.053l-0.253,-0.051l-0.254,-0.049l-0.254,-0.048l-0.254,-0.046l-0.254,-0.045l-0.255,-0.043l-0.082,-0.013l-0.173,-0.028l-0.256,-0.04l-0.256,-0.039l-0.256,-0.036l-0.256,-0.036l-0.256,-0.033l-0.257,-0.032l-0.258,-0.031l-0.233,-0.026l0.007,0.111l0.02,0.338l0.021,0.337l0.022,0.337l0.023,0.336l0.024,0.335l0.025,0.334l0.027,0.334l0.027,0.333l0.028,0.332l0.029,0.332l0.031,0.33l0.031,0.33l0.032,0.33l0.034,0.329l0.034,0.327l0.036,0.328l0.036,0.326l0.038,0.326l0.038,0.325l0.04,0.324l0.04,0.324l0.042,0.323l0.043,0.322l0.043,0.322l0.045,0.321l0.046,0.32l0.046,0.319l0.048,0.319l0.049,0.318l0.05,0.317l0.051,0.316l0.051,0.316l0.053,0.315l0.054,0.314l0.055,0.314l0.056,0.313l0.057,0.312l0.058,0.312l0.059,0.311l0.06,0.31l0.06,0.309l0.062,0.309l0.064,0.308l0.064,0.307l0.065,0.307l0.066,0.305l0.067,0.306l0.068,0.304l0.069,0.304l0.07,0.303l0.071,0.302l0.072,0.302l0.073,0.3l0.075,0.301l0.075,0.299l0.076,0.299l0.077,0.298l0.078,0.297l0.08,0.297l0.08,0.296l0.081,0.295l0.082,0.295l0.084,0.293l0.084,0.294l0.085,0.292l0.087,0.292l0.087,0.291l0.088,0.29l0.089,0.29l0.091,0.289l0.091,0.288l0.092,0.287l0.094,0.287l0.094,0.286l0.096,0.286l0.096,0.284l0.097,0.284l0.099,0.284l0.099,0.282l0.101,0.282l0.101,0.281l0.102,0.281l0.104,0.28l0.104,0.279l0.106,0.278l0.106,0.278l0.108,0.277l0.108,0.276l0.109,0.276l0.111,0.275l0.111,0.274l0.113,0.274l0.113,0.273l0.115,0.272l0.115,0.271l0.117,0.271l0.117,0.27l0.119,0.27l0.119,0.269l0.121,0.268l0.121,0.267l0.122,0.267l0.124,0.266l0.124,0.265l0.126,0.264l0.126,0.264l0.128,0.264l0.128,0.262l0.13,0.262l0.13,0.261l0.132,0.261l0.132,0.259l0.134,0.259l0.134,0.259l0.136,0.258l0.136,0.257l0.138,0.256l0.138,0.256l0.14,0.255l0.14,0.254l0.142,0.254l0.142,0.253l0.144,0.252l0.144,0.252l0.146,0.251l0.146,0.25l0.148,0.249l0.148,0.249l0.15,0.248l0.15,0.248l0.152,0.247l0.152,0.246l0.154,0.246l0.154,0.244l0.156,0.245l0.156,0.243l0.158,0.243l0.158,0.242l0.16,0.241l0.16,0.241l0.162,0.24l0.162,0.24l0.164,0.238l0.164,0.239l0.165,0.237l0.167,0.237l0.167,0.236l0.169,0.235l0.169,0.235l0.171,0.234l0.171,0.233l0.173,0.233l0.173,0.232l0.175,0.232l0.175,0.23l0.177,0.23l0.177,0.23l0.179,0.228l0.179,0.229l0.181,0.227l0.181,0.227l0.182,0.226l0.184,0.225l0.184,0.225l0.186,0.224l0.186,0.223l0.188,0.223l0.188,0.222l0.19,0.222l0.19,0.22l0.192,0.22l0.192,0.22l0.194,0.219l0.194,0.218l0.196,0.217l0.196,0.217l0.198,0.216l0.198,0.215l0.199,0.215l0.201,0.214l0.201,0.214l0.203,0.213l0.203,0.212l0.205,0.211l0.205,0.211l0.207,0.21l0.207,0.21l0.209,0.209l0.209,0.208l0.211,0.207l0.211,0.207l0.213,0.206l0.213,0.206l0.215,0.205l0.215,0.204l0.217,0.204l0.217,0.203l0.219,0.202l0.219,0.202l0.221,0.201l0.222,0.2l0.222,0.2l0.224,0.199l0.224,0.198l0.226,0.198l0.226,0.197l0.228,0.196l0.228,0.196l0.23,0.195l0.231,0.194l0.231,0.194l0.233,0.193l0.233,0.193l0.235,0.191l0.235,0.192l0.237,0.19l0.238,0.19l0.238,0.189l0.24,0.189l0.24,0.188l0.242,0.187l0.243,0.186l0.243,0.186l0.245,0.186l0.246,0.184l0.246,0.184l0.248,0.183l0.249,0.183l0.249,0.182l0.251,0.181l0.252,0.181l0.252,0.18l0.254,0.18l0.255,0.178l0.255,0.179l0.257,0.177l0.258,0.177l0.258,0.176l0.26,0.175l0.261,0.175l0.262,0.175l0.262,0.173l0.264,0.173l0.265,0.172l0.266,0.172l0.266,0.171l0.268,0.17l0.269,0.17l0.27,0.169l0.271,0.168l0.274,0.169l0.207,0.153l0.179,0.184l0.147,0.212l0.111,0.232l0.071,0.247l0.03,0.256l-0.012,0.258l-0.054,0.252l-0.094,0.24l-0.132,0.221l-0.167,0.197l0,0l-34.358,34.512l-5.025,5.037l0.005,0l17.931,17.93l0,-0.072l16.767,-16.769l-0.012,-0.046l22.616,-22.668l0.244,-0.205l0.276,-0.16l0.299,-0.109l0.314,-0.056l0.319,0l0,-0.001l0.315,0.055l0.3,0.109l0.277,0.159l0.245,0.205l7.544,7.528l23.543,23.552l8.281,8.299l0,0.004l13.3,-13.3l0.03,0.01l4.483,-4.465l0.006,0l-17.795,-17.797l0.062,-0.018l-21.511,-21.641l-0.057,-0.058l-0.176,-0.208l-0.137,-0.235l-0.097,-0.254l-0.053,-0.267l-0.008,-0.271l0.038,-0.269l0.082,-0.259l0.123,-0.241l0.163,-0.218l0.196,-0.187l0.224,-0.151l0.364,-0.203l0.357,-0.202l0.355,-0.202l0.353,-0.203l0.35,-0.203l0.348,-0.204l0.345,-0.205l0.342,-0.205l0.34,-0.205l0.338,-0.206l0.335,-0.207l0.332,-0.207l0.33,-0.207l0.328,-0.208l0.325,-0.209l0.323,-0.209l0.32,-0.21l0.318,-0.21l0.316,-0.211l0.313,-0.211l0.311,-0.212l0.309,-0.212l0.306,-0.213l0.303,-0.213l0.302,-0.214l0.299,-0.214l0.297,-0.215l0.295,-0.215l0.292,-0.216l0.29,-0.217l0.288,-0.216l0.285,-0.218l0.284,-0.217l0.281,-0.218l0.278,-0.219l0.277,-0.219l0.275,-0.22l0.272,-0.22l0.27,-0.221l0.268,-0.221l0.266,-0.221l0.263,-0.222l0.262,-0.223l0.259,-0.223l0.258,-0.223l0.255,-0.224l0.253,-0.224l0.251,-0.225l0.249,-0.226l0.247,-0.225l0.245,-0.226l0.243,-0.227l0.241,-0.227l0.238,-0.228l0.237,-0.228l0.235,-0.228l0.233,-0.229l0.231,-0.229l0.229,-0.23l0.227,-0.23l0.225,-0.231l0.223,-0.231l0.222,-0.231l0.219,-0.232l0.218,-0.233l0.215,-0.232l0.214,-0.234l0.212,-0.233l0.21,-0.234l0.209,-0.235l0.206,-0.235l0.205,-0.235l0.203,-0.236l0.201,-0.236l0.199,-0.237l0.197,-0.237l0.196,-0.237l0.194,-0.238l0.193,-0.238l0.19,-0.239l0.189,-0.239l0.187,-0.24l0.186,-0.239l0.184,-0.241l0.182,-0.24l0.18,-0.242l0.179,-0.241l0.177,-0.242l0.176,-0.242l0.174,-0.243l0.172,-0.243l0.171,-0.244l0.169,-0.244l0.168,-0.244l0.166,-0.245l0.164,-0.245l0.163,-0.246l0.162,-0.246l0.16,-0.246l0.158,-0.247l0.157,-0.247l0.156,-0.247l0.154,-0.248l0.152,-0.248l0.151,-0.249l0.15,-0.249l0.148,-0.249l0.147,-0.25l0.145,-0.25l0.144,-0.251l0.142,-0.251l0.141,-0.251l0.14,-0.252l0.139,-0.252l0.137,-0.252l0.135,-0.253l0.135,-0.253l0.133,-0.254l0.132,-0.254l0.13,-0.254l0.129,-0.254l0.128,-0.255l0.127,-0.256l0.125,-0.255l0.124,-0.257l0.123,-0.256l0.121,-0.257l0.121,-0.257l0.119,-0.257l0.118,-0.258l0.117,-0.259l0.115,-0.258l0.115,-0.259l0.113,-0.259l0.112,-0.26l0.111,-0.26l0.11,-0.26l0.108,-0.261l0.108,-0.261l0.107,-0.261l0.105,-0.262l0.104,-0.262l0.103,-0.262l0.103,-0.263l0.101,-0.263l0.1,-0.263l0.099,-0.264l0.064,-0.172l0.034,-0.092l0.097,-0.264l0.096,-0.264l0.096,-0.265l0.094,-0.265l0.093,-0.266l0.092,-0.266l0.092,-0.266l0.09,-0.266l0.089,-0.267l0.089,-0.267l0.088,-0.268l0.086,-0.267l0.086,-0.268l0.085,-0.269l0.084,-0.268l0.083,-0.269l0.082,-0.269l0.082,-0.27l0.081,-0.27l0.079,-0.27l0.079,-0.27l0.079,-0.271l0.077,-0.271l0.077,-0.271l0.075,-0.272l0.075,-0.272l0.075,-0.272l0.073,-0.272l0.073,-0.273l0.072,-0.273l0.071,-0.273l0.071,-0.272l0.139,-0.549l0.137,-0.549l0.134,-0.549l0.131,-0.551l0.129,-0.552l0.126,-0.553l0.124,-0.554l0.122,-0.554l0.119,-0.556l0.118,-0.557l0.116,-0.557l0.113,-0.558l0.112,-0.56l0.11,-0.56l0.108,-0.561l0.107,-0.561l0.105,-0.563l0.104,-0.563l0.102,-0.564l0.101,-0.565l0.1,-0.565l0.099,-0.567l0.098,-0.567l0.097,-0.567l0.096,-0.568l0.095,-0.569l0.094,-0.57l0.094,-0.569l0.186,-1.143l0.184,-1.144l0.183,-1.146l0.086,-0.535l0.044,-0.277l-0.137,0.029Z"/></g><defs><linearGradient id="_Linear2" x1="0" y1="0" x2="1" y2="0" gradientUnits="userSpaceOnUse" gradientTransform="matrix(3.52542e-15,57.5745,-57.5745,3.52542e-15,62.269,-21.1614)"><stop offset="0" style="stop-color:#d57a51;stop-opacity:1"/><stop offset="0.49" style="stop-color:#d3724a;stop-opacity:1"/><stop offset="1" style="stop-color:#ce5934;stop-opacity:1"/></linearGradient></defs></svg>